<svg viewBox="0 0 51.84 49.84" xmlns="http://www.w3.org/2000/svg" xmlns:xlink="http://www.w3.org/1999/xlink"><radialGradient id="a" cx="1.44" cy=".06" gradientTransform="matrix(20.05 0 0 -20.05 -5.01 35.08)" gradientUnits="userSpaceOnUse" r="1"><stop offset="0" stop-color="#cd5627"/><stop offset="1" stop-color="#b33024"/></radialGradient><radialGradient id="b" cx="1.44" cy=".06" gradientTransform="matrix(20.05 0 0 -20.05 -5.01 35.08)" gradientUnits="userSpaceOnUse" r="1"><stop offset="0" stop-color="#c54129"/><stop offset="1" stop-color="#ad2925"/></radialGradient><radialGradient id="c" cx="1.44" cy=".06" gradientTransform="matrix(20.05 0 0 -20.05 -5.01 35.08)" gradientUnits="userSpaceOnUse" r="1"><stop offset="0" stop-color="#c14929"/><stop offset="1" stop-color="#aa2c25"/></radialGradient><radialGradient id="d" cx="1.44" cy=".06" gradientTransform="matrix(20.05 0 0 -20.05 -5.01 35.08)" gradientUnits="userSpaceOnUse" r="1"><stop offset="0" stop-color="#ba392a"/><stop offset="1" stop-color="#a42826"/></radialGradient><radialGradient id="e" cx="1.44" cy=".06" gradientTransform="matrix(20.05 0 0 -20.05 -5.01 35.08)" gradientUnits="userSpaceOnUse" r="1"><stop offset="0" stop-color="#c74729"/><stop offset="1" stop-color="#ae2b25"/></radialGradient><radialGradient id="f" cx="1.44" cy=".06" gradientTransform="matrix(20.05 0 0 -20.05 -5.01 35.08)" gradientUnits="userSpaceOnUse" r="1"><stop offset="0" stop-color="#bc3e29"/><stop offset="1" stop-color="#a52926"/></radialGradient><radialGradient id="g" cx="1.44" cy=".06" gradientTransform="matrix(20.05 0 0 -20.05 -5.01 35.08)" gradientUnits="userSpaceOnUse" r="1"><stop offset="0" stop-color="#d26527"/><stop offset=".6" stop-color="#c44d25"/><stop offset="1" stop-color="#ba3b25"/></radialGradient><radialGradient id="h" cx="1.44" cy=".06" gradientTransform="matrix(20.05 0 0 -20.05 -5.01 35.08)" gradientUnits="userSpaceOnUse" r="1"><stop offset="0" stop-color="#cb4f28"/><stop offset="1" stop-color="#b53026"/></radialGradient><radialGradient id="i" cx="1.44" cy=".06" gradientTransform="matrix(20.05 0 0 -20.05 -5.01 35.08)" gradientUnits="userSpaceOnUse" r="1"><stop offset="0" stop-color="#c85828"/><stop offset="1" stop-color="#b23425"/></radialGradient><radialGradient id="j" cx="1.44" cy=".06" gradientTransform="matrix(20.05 0 0 -20.05 -5.01 35.08)" gradientUnits="userSpaceOnUse" r="1"><stop offset="0" stop-color="#c14529"/><stop offset="1" stop-color="#ad2d26"/></radialGradient><radialGradient id="k" cx="1.44" cy=".06" gradientTransform="matrix(20.05 0 0 -20.05 -5.01 35.08)" gradientUnits="userSpaceOnUse" r="1"><stop offset="0" stop-color="#cd5728"/><stop offset="1" stop-color="#b73425"/></radialGradient><linearGradient id="l"><stop offset="0" stop-color="#b5372a"/><stop offset="1" stop-color="#9f2726"/></linearGradient><radialGradient id="m" cx="1.44" cy=".06" gradientTransform="matrix(20.05 0 0 -20.05 -5.01 35.08)" gradientUnits="userSpaceOnUse" r="1" xlink:href="#l"/><radialGradient id="n" cx="1.51" cy="-.52" gradientTransform="matrix(20.05 0 0 -20.05 -5.01 35.08)" gradientUnits="userSpaceOnUse" r="0" xlink:href="#l"/><radialGradient id="o" cx="1.44" cy=".06" gradientTransform="matrix(20.05 0 0 -20.05 -5.01 35.08)" gradientUnits="userSpaceOnUse" r="1"><stop offset="0" stop-color="#ab322a"/><stop offset="1" stop-color="#972526"/></radialGradient><radialGradient id="p" cx="1.44" cy=".06" gradientTransform="matrix(20.05 0 0 -20.05 -5.01 35.08)" gradientUnits="userSpaceOnUse" r="1"><stop offset="0" stop-color="#b94029"/><stop offset="1" stop-color="#a22925"/></radialGradient><radialGradient id="q" cx="1.44" cy=".06" gradientTransform="matrix(20.05 0 0 -20.05 -5.01 35.08)" gradientUnits="userSpaceOnUse" r="1"><stop offset="0" stop-color="#af3829"/><stop offset="1" stop-color="#9a2725"/></radialGradient><radialGradient id="r" cx="1.44" cy=".06" gradientTransform="matrix(20.05 0 0 -20.05 -5.01 35.08)" gradientUnits="userSpaceOnUse" r="1"><stop offset="0" stop-color="#d76f26"/><stop offset=".4" stop-color="#cf6025"/><stop offset="1" stop-color="#c04225"/></radialGradient><radialGradient id="s" cx="1.44" cy=".06" gradientTransform="matrix(20.05 0 0 -20.05 -5.01 35.08)" gradientUnits="userSpaceOnUse" r="1"><stop offset="0" stop-color="#c65728"/><stop offset="1" stop-color="#b33526"/></radialGradient><radialGradient id="t" cx="1.44" cy=".06" gradientTransform="matrix(20.05 0 0 -20.05 -5.01 35.08)" gradientUnits="userSpaceOnUse" r="1"><stop offset="0" stop-color="#bd4b29"/><stop offset=".95" stop-color="#ac3126"/><stop offset="1" stop-color="#ac3026"/></radialGradient><radialGradient id="u" cx="1.44" cy=".06" gradientTransform="matrix(20.05 0 0 -20.05 -5.01 35.08)" gradientUnits="userSpaceOnUse" r="1"><stop offset="0" stop-color="#cd6127"/><stop offset=".88" stop-color="#bb3f25"/><stop offset="1" stop-color="#b93a25"/></radialGradient><radialGradient id="v" cx="1.44" cy=".06" gradientTransform="matrix(20.05 0 0 -20.05 -5.01 35.08)" gradientUnits="userSpaceOnUse" r="1"><stop offset="0" stop-color="#b3332a"/><stop offset="1" stop-color="#9d2626"/></radialGradient><radialGradient id="w" cx="1.44" cy=".06" gradientTransform="matrix(20.05 0 0 -20.05 -5.01 35.08)" gradientUnits="userSpaceOnUse" r="1"><stop offset="0" stop-color="#b0382a"/><stop offset="1" stop-color="#9b2725"/></radialGradient><radialGradient id="x" cx="1.44" cy=".06" gradientTransform="matrix(20.05 0 0 -20.05 -5.01 35.08)" gradientUnits="userSpaceOnUse" r="1"><stop offset="0" stop-color="#a92f2b"/><stop offset="1" stop-color="#962526"/></radialGradient><radialGradient id="y" cx="1.44" cy=".06" gradientTransform="matrix(20.05 0 0 -20.05 -5.01 35.08)" gradientUnits="userSpaceOnUse" r="1"><stop offset="0" stop-color="#bd4829"/><stop offset=".7" stop-color="#b03727"/><stop offset="1" stop-color="#aa2f26"/></radialGradient><radialGradient id="z" cx="1.44" cy=".06" gradientTransform="matrix(20.05 0 0 -20.05 -5.01 35.08)" gradientUnits="userSpaceOnUse" r="1"><stop offset="0" stop-color="#b5402a"/><stop offset="1" stop-color="#a32c26"/></radialGradient><radialGradient id="A" cx="1.44" cy=".06" gradientTransform="matrix(20.05 0 0 -20.05 -5.01 35.08)" gradientUnits="userSpaceOnUse" r="1"><stop offset="0" stop-color="#b73c2a"/><stop offset="1" stop-color="#a52926"/></radialGradient><radialGradient id="B" cx="1.44" cy=".06" gradientTransform="matrix(20.05 0 0 -20.05 -5.01 35.08)" gradientUnits="userSpaceOnUse" r="1"><stop offset="0" stop-color="#c04d29"/><stop offset=".53" stop-color="#b74127"/><stop offset="1" stop-color="#ae3326"/></radialGradient><radialGradient id="C" cx="1.44" cy=".06" gradientTransform="matrix(20.05 0 0 -20.05 -5.01 35.08)" gradientUnits="userSpaceOnUse" r="1"><stop offset="0" stop-color="#b73f29"/><stop offset="1" stop-color="#a12925"/></radialGradient><radialGradient id="D" cx="1.44" cy=".06" gradientTransform="matrix(20.05 0 0 -20.05 -5.01 35.08)" gradientUnits="userSpaceOnUse" r="1"><stop offset="0" stop-color="#b2372a"/><stop offset="1" stop-color="#9d2726"/></radialGradient><radialGradient id="E" cx="1.44" cy=".06" gradientTransform="matrix(20.05 0 0 -20.05 -5.01 35.08)" gradientUnits="userSpaceOnUse" r="1"><stop offset="0" stop-color="#c55328"/><stop offset=".6" stop-color="#b94126"/><stop offset="1" stop-color="#b03325"/></radialGradient><radialGradient id="F" cx="1.44" cy=".06" gradientTransform="matrix(20.05 0 0 -20.05 -5.01 35.08)" gradientUnits="userSpaceOnUse" r="1"><stop offset="0" stop-color="#c14929"/><stop offset="1" stop-color="#ad2f26"/></radialGradient><radialGradient id="G" cx="1.44" cy=".06" gradientTransform="matrix(20.05 0 0 -20.05 -5.01 35.08)" gradientUnits="userSpaceOnUse" r="1"><stop offset="0" stop-color="#a22e2a"/><stop offset="1" stop-color="#8f2526"/></radialGradient><linearGradient id="H" gradientTransform="matrix(7.8 0 0 -7.8 10.65 38.09)" gradientUnits="userSpaceOnUse" x1="1.44" x2="2.44" y1=".27" y2=".27"><stop offset="0" stop-color="#f8961d"/><stop offset="1" stop-color="#fba919"/></linearGradient><radialGradient id="I" cx="1.44" cy=".06" gradientTransform="matrix(20.05 0 0 -20.05 -5.01 35.08)" gradientUnits="userSpaceOnUse" r="1"><stop offset="0" stop-color="#e59322"/><stop offset=".3" stop-color="#e18b22"/><stop offset=".75" stop-color="#d97523"/><stop offset="1" stop-color="#d46724"/></radialGradient><linearGradient id="J" gradientTransform="matrix(7.8 0 0 -7.8 10.65 38.09)" gradientUnits="userSpaceOnUse" x1="1.44" x2="2.44" y1=".63" y2=".63"><stop offset="0" stop-color="#febb12"/><stop offset="1" stop-color="#ffc808"/></linearGradient><linearGradient id="K" gradientTransform="matrix(7.8 0 0 -7.8 10.65 38.09)" gradientUnits="userSpaceOnUse" x1="1.44" x2="2.44" y1="0" y2="0"><stop offset="0" stop-color="#f28321"/><stop offset="1" stop-color="#f4931f"/></linearGradient><radialGradient id="L" cx="1.44" cy=".06" gradientTransform="matrix(20.05 0 0 -20.05 -5.01 35.08)" gradientUnits="userSpaceOnUse" r="1"><stop offset="0" stop-color="#9d2d2a"/><stop offset="1" stop-color="#8a2426"/></radialGradient><radialGradient id="M" cx="1.44" cy=".06" gradientTransform="matrix(20.05 0 0 -20.05 -5.01 35.08)" gradientUnits="userSpaceOnUse" r="1"><stop offset="0" stop-color="#a7332a"/><stop offset="1" stop-color="#932625"/></radialGradient><linearGradient id="N"><stop offset="0" stop-color="#ef4623"/><stop offset=".05" stop-color="#ef4623"/><stop offset="1" stop-color="#f36b21"/></linearGradient><linearGradient id="O" gradientTransform="matrix(14.02763144 4.42827915 4.42827915 -14.02763144 15.66 33.12)" gradientUnits="userSpaceOnUse" x1="1.38" x2="2.38" xlink:href="#N" y1="-.08" y2="-.08"/><linearGradient id="P" gradientTransform="matrix(14.34232337 4.52762192 4.52762192 -14.34232337 15.29 32.15)" gradientUnits="userSpaceOnUse" x1="1.39" x2="2.39" xlink:href="#N" y1=".05" y2=".05"/><linearGradient id="Q"><stop offset="0" stop-color="#fba919"/><stop offset="1" stop-color="#ffc709"/></linearGradient><linearGradient id="R" gradientTransform="matrix(14.34232337 4.52762192 4.52762192 -14.34232337 15.59 31.2)" gradientUnits="userSpaceOnUse" x1="1.39" x2="2.39" xlink:href="#Q" y1=".09" y2=".09"/><radialGradient id="S" cx="1.44" cy=".06" gradientTransform="matrix(20.05 0 0 -20.05 -5.01 35.08)" gradientUnits="userSpaceOnUse" r="1"><stop offset="0" stop-color="#d15f27"/><stop offset=".7" stop-color="#c24525"/><stop offset="1" stop-color="#bc3925"/></radialGradient><radialGradient id="T" cx="1.44" cy=".06" gradientTransform="matrix(20.05 0 0 -20.05 -5.01 35.08)" gradientUnits="userSpaceOnUse" r="1"><stop offset="0" stop-color="#c85328"/><stop offset="1" stop-color="#b53326"/></radialGradient><linearGradient id="U"><stop offset="0" stop-color="#fdb913"/><stop offset="1" stop-color="#ffd100"/></linearGradient><linearGradient id="V" gradientTransform="matrix(14.34232337 4.52762192 4.52762192 -14.34232337 15.59 31.2)" gradientUnits="userSpaceOnUse" x1="1.39" x2="2.39" xlink:href="#U" y1=".1" y2=".1"/><linearGradient id="W"><stop offset="0" stop-color="#f47c20"/><stop offset="1" stop-color="#d82726"/></linearGradient><linearGradient id="X" gradientTransform="matrix(9.44075807 2.98028304 2.98028304 -9.44075807 25.01 34.53)" gradientUnits="userSpaceOnUse" x1="1.36" x2="2.36" xlink:href="#W" y1=".35" y2=".35"/><radialGradient id="Y" cx="1.44" cy=".06" gradientTransform="matrix(20.05 0 0 -20.05 -5.01 35.08)" gradientUnits="userSpaceOnUse" r="1"><stop offset="0" stop-color="#dc7c25"/><stop offset=".38" stop-color="#d56f25"/><stop offset="1" stop-color="#c75225"/></radialGradient><linearGradient id="Z"><stop offset="0" stop-color="#f15f22"/><stop offset=".05" stop-color="#f15f22"/><stop offset=".25" stop-color="#f16721"/><stop offset="1" stop-color="#f5831f"/></linearGradient><linearGradient id="aa" gradientTransform="matrix(14.02763144 4.42827915 4.42827915 -14.02763144 15.66 33.12)" gradientUnits="userSpaceOnUse" x1="1.38" x2="2.38" xlink:href="#Z" y1=".02" y2=".02"/><linearGradient id="ab" gradientTransform="matrix(14.34232337 4.52762192 4.52762192 -14.34232337 15.29 32.15)" gradientUnits="userSpaceOnUse" x1="1.39" x2="2.39" xlink:href="#Z" y1=".06" y2=".06"/><linearGradient id="ac" gradientTransform="matrix(14.34232337 4.52762192 4.52762192 -14.34232337 15.59 31.2)" gradientUnits="userSpaceOnUse" x1="1.39" x2="2.39" xlink:href="#U" y1="-.02" y2="-.02"/><linearGradient id="ad"><stop offset="0" stop-color="#e57125"/><stop offset="1" stop-color="#e78024"/></linearGradient><linearGradient id="ae" gradientTransform="matrix(14.34232337 4.52762192 4.52762192 -14.34232337 15.59 31.2)" gradientUnits="userSpaceOnUse" x1="1.39" x2="2.39" xlink:href="#ad" y1=".13" y2=".13"/><linearGradient id="af"><stop offset="0" stop-color="#e67924"/><stop offset="1" stop-color="#e78524"/></linearGradient><linearGradient id="ag" gradientTransform="matrix(14.34232337 4.52762192 4.52762192 -14.34232337 15.59 31.2)" gradientUnits="userSpaceOnUse" x1="1.39" x2="2.39" xlink:href="#af" y1=".1" y2=".1"/><linearGradient id="ah"><stop offset="0" stop-color="#e35726"/><stop offset="1" stop-color="#ce2428"/></linearGradient><linearGradient id="ai" gradientTransform="matrix(9.44075807 2.98028304 2.98028304 -9.44075807 25.01 34.53)" gradientUnits="userSpaceOnUse" x1="1.36" x2="2.36" xlink:href="#ah" y1=".18" y2=".18"/><linearGradient id="aj"><stop offset="0" stop-color="#d92c27"/><stop offset=".05" stop-color="#d92c27"/><stop offset="1" stop-color="#da3727"/></linearGradient><linearGradient id="ak" gradientTransform="matrix(14.02763144 4.42827915 4.42827915 -14.02763144 15.66 33.12)" gradientUnits="userSpaceOnUse" x1="1.38" x2="2.38" xlink:href="#aj" y1="-.16" y2="-.16"/><linearGradient id="al" gradientTransform="matrix(14.02763144 4.42827915 4.42827915 -14.02763144 15.66 33.12)" gradientUnits="userSpaceOnUse" x1="1.38" x2="2.38" xlink:href="#aj" y1="-.03" y2="-.03"/><linearGradient id="am" gradientTransform="matrix(14.34232337 4.52762192 4.52762192 -14.34232337 15.29 32.15)" gradientUnits="userSpaceOnUse" x1="1.39" x2="2.39" xlink:href="#aj" y1=".08" y2=".08"/><linearGradient id="an"><stop offset="0" stop-color="#db4c27"/><stop offset="1" stop-color="#db5527"/></linearGradient><linearGradient id="ao" gradientTransform="matrix(14.34232337 4.52762192 4.52762192 -14.34232337 15.59 31.2)" gradientUnits="userSpaceOnUse" x1="1.39" x2="2.39" xlink:href="#an" y1=".21" y2=".21"/><radialGradient id="ap" cx="1.44" cy=".06" gradientTransform="matrix(20.05 0 0 -20.05 -5.01 35.08)" gradientUnits="userSpaceOnUse" r="1"><stop offset="0" stop-color="#c13829"/><stop offset="1" stop-color="#ad2826"/></radialGradient><radialGradient id="aq" cx="1.44" cy=".06" gradientTransform="matrix(20.05 0 0 -20.05 -5.01 35.08)" gradientUnits="userSpaceOnUse" r="1"><stop offset="0" stop-color="#af2e2a"/><stop offset=".79" stop-color="#a22827"/><stop offset="1" stop-color="#9e2627"/></radialGradient><linearGradient id="ar" gradientTransform="matrix(14.34232337 4.52762192 4.52762192 -14.34232337 15.29 32.15)" gradientUnits="userSpaceOnUse" x1="1.39" x2="2.39" xlink:href="#aj" y1=".1" y2=".1"/><radialGradient id="as" cx="1.44" cy=".06" gradientTransform="matrix(20.05 0 0 -20.05 -5.01 35.08)" gradientUnits="userSpaceOnUse" r="1"><stop offset="0" stop-color="#c73f29"/><stop offset="1" stop-color="#b73027"/></radialGradient><linearGradient id="at"><stop offset="0" stop-color="#d93427"/><stop offset=".05" stop-color="#d93427"/><stop offset="1" stop-color="#da4027"/></linearGradient><linearGradient id="au" gradientTransform="matrix(14.34232337 4.52762192 4.52762192 -14.34232337 15.29 32.15)" gradientUnits="userSpaceOnUse" x1="1.39" x2="2.39" xlink:href="#at" y1=".1" y2=".1"/><linearGradient id="av"><stop offset="0" stop-color="#db5127"/><stop offset="1" stop-color="#db5827"/></linearGradient><linearGradient id="aw" gradientTransform="matrix(14.34232337 4.52762192 4.52762192 -14.34232337 15.59 31.2)" gradientUnits="userSpaceOnUse" x1="1.39" x2="2.39" xlink:href="#av" y1=".17" y2=".17"/><linearGradient id="ax" gradientTransform="matrix(14.27242881 -3.56116215 -3.56116215 -14.27242881 .9 24.92)" gradientUnits="userSpaceOnUse" x1="1.48" x2="2.48" xlink:href="#N" y1="-.09" y2="-.09"/><linearGradient id="ay" gradientTransform="matrix(14.59261246 -3.64105226 -3.64105226 -14.59261246 .07 24.29)" gradientUnits="userSpaceOnUse" x1="1.48" x2="2.48" xlink:href="#N" y1=".1" y2=".1"/><linearGradient id="az"><stop offset="0" stop-color="#fba919"/><stop offset="1" stop-color="#f8961d"/></linearGradient><linearGradient id="aA" gradientTransform="matrix(14.59261246 -3.64105226 -3.64105226 -14.59261246 -.17 23.32)" gradientUnits="userSpaceOnUse" x1="1.48" x2="2.48" xlink:href="#az" y1="-.18" y2="-.18"/><linearGradient id="aB"><stop offset="0" stop-color="#fdb913"/><stop offset="1" stop-color="#faa819"/></linearGradient><linearGradient id="aC" gradientTransform="matrix(14.59261246 -3.64105226 -3.64105226 -14.59261246 -.17 23.32)" gradientUnits="userSpaceOnUse" x1="1.48" x2="2.48" xlink:href="#aB" y1="-.17" y2="-.17"/><linearGradient id="aD" gradientTransform="matrix(9.60550953 -2.39670328 -2.39670328 -9.60550953 9.6 21.23)" gradientUnits="userSpaceOnUse" x1="1.51" x2="2.51" xlink:href="#W" y1=".19" y2=".19"/><linearGradient id="aE" gradientTransform="matrix(14.59261246 -3.64105226 -3.64105226 -14.59261246 -.17 23.32)" gradientUnits="userSpaceOnUse" x1="1.48" x2="2.48" xlink:href="#aB" y1="-.21" y2="-.21"/><linearGradient id="aF" gradientTransform="matrix(14.27242881 -3.56116215 -3.56116215 -14.27242881 .9 24.92)" gradientUnits="userSpaceOnUse" x1="1.48" x2="2.48" xlink:href="#aj" y1="-.15" y2="-.15"/><radialGradient id="aG" cx="1.44" cy=".06" gradientTransform="matrix(20.05 0 0 -20.05 -5.01 35.08)" gradientUnits="userSpaceOnUse" r="1"><stop offset="0" stop-color="#a32b2a"/><stop offset="1" stop-color="#902426"/></radialGradient><linearGradient id="aH" gradientTransform="matrix(14.27242881 -3.56116215 -3.56116215 -14.27242881 .9 24.92)" gradientUnits="userSpaceOnUse" x1="1.48" x2="2.48" xlink:href="#aj" y1="-.05" y2="-.05"/><linearGradient id="aI" gradientTransform="matrix(14.27242881 -3.56116215 -3.56116215 -14.27242881 .9 24.92)" gradientUnits="userSpaceOnUse" x1="1.48" x2="2.48" xlink:href="#aj" y1="-.12" y2="-.12"/><linearGradient id="aJ" gradientTransform="matrix(14.32485539 3.34404218 3.34404218 -14.32485539 -11.42 7.07)" gradientUnits="userSpaceOnUse" x1="1.4" x2="2.4" xlink:href="#N" y1="-.05" y2="-.05"/><linearGradient id="aK" gradientTransform="matrix(14.64621516 3.41906148 3.41906148 -14.64621516 -11.86 6.14)" gradientUnits="userSpaceOnUse" x1="1.4" x2="2.4" xlink:href="#N" y1=".06" y2=".06"/><linearGradient id="aL" gradientTransform="matrix(14.64621516 3.41906148 3.41906148 -14.64621516 -11.64 5.17)" gradientUnits="userSpaceOnUse" x1="1.4" x2="2.4" xlink:href="#az" y1=".12" y2=".12"/><linearGradient id="aM" gradientTransform="matrix(14.64621516 3.41906148 3.41906148 -14.64621516 -11.64 5.17)" gradientUnits="userSpaceOnUse" x1="1.4" x2="2.4" xlink:href="#aB" y1=".38" y2=".38"/><linearGradient id="aN" gradientTransform="matrix(9.64079323 2.25057903 2.25057903 -9.64079323 -1.99 7.76)" gradientUnits="userSpaceOnUse" x1="1.38" x2="2.38" xlink:href="#W" y1=".41" y2=".41"/><linearGradient id="aO" gradientTransform="matrix(14.32485539 3.34404218 3.34404218 -14.32485539 -11.42 7.07)" gradientUnits="userSpaceOnUse" x1="1.4" x2="2.4" xlink:href="#Z" y1=".02" y2=".02"/><linearGradient id="aP" gradientTransform="matrix(14.64621516 3.41906148 3.41906148 -14.64621516 -11.86 6.14)" gradientUnits="userSpaceOnUse" x1="1.4" x2="2.4" xlink:href="#Z" y1=".06" y2=".06"/><linearGradient id="aQ" gradientTransform="matrix(14.64621516 3.41906148 3.41906148 -14.64621516 -11.64 5.17)" gradientUnits="userSpaceOnUse" x1="1.4" x2="2.4" xlink:href="#aB" y1="0" y2="0"/><linearGradient id="aR" gradientTransform="matrix(14.64621516 3.41906148 3.41906148 -14.64621516 -11.64 5.17)" gradientUnits="userSpaceOnUse" x1="1.4" x2="2.4" y1=".27" y2=".27"><stop offset="0" stop-color="#e57125"/><stop offset="1" stop-color="#e46725"/></linearGradient><linearGradient id="aS"><stop offset="0" stop-color="#e67924"/><stop offset="1" stop-color="#e57125"/></linearGradient><linearGradient id="aT" gradientTransform="matrix(14.64621516 3.41906148 3.41906148 -14.64621516 -11.64 5.17)" gradientUnits="userSpaceOnUse" x1="1.4" x2="2.4" xlink:href="#aS" y1=".32" y2=".32"/><linearGradient id="aU" gradientTransform="matrix(9.64079323 2.25057903 2.25057903 -9.64079323 -1.99 7.76)" gradientUnits="userSpaceOnUse" x1="1.38" x2="2.38" xlink:href="#ah" y1=".44" y2=".44"/><linearGradient id="aV"><stop offset="0" stop-color="#db4c27"/><stop offset="1" stop-color="#da4727"/></linearGradient><linearGradient id="aW" gradientTransform="matrix(14.64621516 3.41906148 3.41906148 -14.64621516 -11.64 5.17)" gradientUnits="userSpaceOnUse" x1="1.4" x2="2.4" xlink:href="#aV" y1=".36" y2=".36"/><linearGradient id="aX" gradientTransform="matrix(14.64621516 3.41906148 3.41906148 -14.64621516 -11.64 5.17)" gradientUnits="userSpaceOnUse" x1="1.4" x2="2.4" xlink:href="#aV" y1=".29" y2=".29"/><radialGradient id="aY" cx="1.44" cy=".06" gradientTransform="matrix(20.05 0 0 -20.05 -5.01 35.08)" gradientUnits="userSpaceOnUse" r="1"><stop offset="0" stop-color="#c33a29"/><stop offset=".94" stop-color="#b22b26"/><stop offset="1" stop-color="#b12a26"/></radialGradient><linearGradient id="aZ" gradientTransform="matrix(14.32485539 3.34404218 3.34404218 -14.32485539 -11.42 7.07)" gradientUnits="userSpaceOnUse" x1="1.4" x2="2.4" xlink:href="#aj" y1="0" y2="0"/><linearGradient id="a0" gradientTransform="matrix(14.64621516 3.41906148 3.41906148 -14.64621516 -11.86 6.14)" gradientUnits="userSpaceOnUse" x1="1.4" x2="2.4" xlink:href="#aj" y1=".1" y2=".1"/><linearGradient id="a1" gradientTransform="matrix(14.64621516 3.41906148 3.41906148 -14.64621516 -11.64 5.17)" gradientUnits="userSpaceOnUse" x1="1.4" x2="2.4" xlink:href="#aV" y1=".13" y2=".13"/><linearGradient id="a2" gradientTransform="matrix(14.64621516 3.41906148 3.41906148 -14.64621516 -11.86 6.14)" gradientUnits="userSpaceOnUse" x1="1.4" x2="2.4" xlink:href="#at" y1=".1" y2=".1"/><linearGradient id="a3"><stop offset="0" stop-color="#db5127"/><stop offset="1" stop-color="#db4c27"/></linearGradient><linearGradient id="a4" gradientTransform="matrix(14.64621516 3.41906148 3.41906148 -14.64621516 -11.64 5.17)" gradientUnits="userSpaceOnUse" x1="1.4" x2="2.4" xlink:href="#a3" y1=".18" y2=".18"/><linearGradient id="a5" gradientTransform="matrix(14.32485539 3.34404218 3.34404218 -14.32485539 -8.59 11.75)" gradientUnits="userSpaceOnUse" x1="1.4" x2="2.4" xlink:href="#N" y1="-.01" y2="-.01"/><linearGradient id="a6" gradientTransform="matrix(14.64621516 3.41906148 3.41906148 -14.64621516 -9.03 10.81)" gradientUnits="userSpaceOnUse" x1="1.4" x2="2.4" xlink:href="#N" y1=".1" y2=".1"/><linearGradient id="a7" gradientTransform="matrix(14.64621516 3.41906148 3.41906148 -14.64621516 -8.8 9.84)" gradientUnits="userSpaceOnUse" x1="1.4" x2="2.4" xlink:href="#az" y1=".11" y2=".11"/><linearGradient id="a8" gradientTransform="matrix(9.64079323 2.25057903 2.25057903 -9.64079323 -1.99 7.76)" gradientUnits="userSpaceOnUse" x1="1.38" x2="2.38" y1=".34" y2=".34"><stop offset="0" stop-color="#e87124"/><stop offset=".22" stop-color="#e56724"/><stop offset=".58" stop-color="#de4c25"/><stop offset="1" stop-color="#d52727"/></linearGradient><linearGradient id="a9" gradientTransform="matrix(14.64621516 3.41906148 3.41906148 -14.64621516 -8.8 9.84)" gradientUnits="userSpaceOnUse" x1="1.4" x2="2.4" xlink:href="#aB" y1=".12" y2=".12"/><linearGradient id="ba" gradientTransform="matrix(9.64079323 2.25057903 2.25057903 -9.64079323 .84 12.44)" gradientUnits="userSpaceOnUse" x1="1.38" x2="2.38" xlink:href="#W" y1=".35" y2=".35"/><linearGradient id="bb" gradientTransform="matrix(14.32485539 3.34404218 3.34404218 -14.32485539 -8.59 11.75)" gradientUnits="userSpaceOnUse" x1="1.4" x2="2.4" xlink:href="#Z" y1=".08" y2=".08"/><linearGradient id="bc" gradientTransform="matrix(14.64621516 3.41906148 3.41906148 -14.64621516 -9.03 10.81)" gradientUnits="userSpaceOnUse" x1="1.4" x2="2.4" xlink:href="#Z" y1=".06" y2=".06"/><linearGradient id="bd" gradientTransform="matrix(14.64621516 3.41906148 3.41906148 -14.64621516 -8.8 9.84)" gradientUnits="userSpaceOnUse" x1="1.4" x2="2.4" xlink:href="#aB" y1=".07" y2=".07"/><linearGradient id="be" gradientTransform="matrix(14.64621516 3.41906148 3.41906148 -14.64621516 -8.8 9.84)" gradientUnits="userSpaceOnUse" x1="1.4" x2="2.4" xlink:href="#aS" y1="-.12" y2="-.12"/><linearGradient id="bf" gradientTransform="matrix(14.27242881 -3.56116215 -3.56116215 -14.27242881 .9 24.92)" gradientUnits="userSpaceOnUse" x1="1.48" x2="2.48" xlink:href="#aj" y1="-.1" y2="-.1"/><linearGradient id="bg" gradientTransform="matrix(14.59261246 -3.64105226 -3.64105226 -14.59261246 -.17 23.32)" gradientUnits="userSpaceOnUse" x1="1.48" x2="2.48" xlink:href="#aV" y1="-.17" y2="-.17"/><linearGradient id="bh" gradientTransform="matrix(14.59261246 -3.64105226 -3.64105226 -14.59261246 -.17 23.32)" gradientUnits="userSpaceOnUse" x1="1.48" x2="2.48" xlink:href="#a3" y1="-.19" y2="-.19"/><linearGradient id="bi" gradientTransform="matrix(14.32485539 3.34404218 3.34404218 -14.32485539 -8.59 11.75)" gradientUnits="userSpaceOnUse" x1="1.4" x2="2.4" xlink:href="#aj" y1="-.02" y2="-.02"/><linearGradient id="bj" gradientTransform="matrix(14.64621516 3.41906148 3.41906148 -14.64621516 -8.8 9.84)" gradientUnits="userSpaceOnUse" x1="1.4" x2="2.4" xlink:href="#aV" y1=".29" y2=".29"/><linearGradient id="bk" gradientTransform="matrix(14.32485539 3.34404218 3.34404218 -14.32485539 -8.59 11.75)" gradientUnits="userSpaceOnUse" x1="1.4" x2="2.4" xlink:href="#aj" y1=".09" y2=".09"/><linearGradient id="bl" gradientTransform="matrix(14.64621516 3.41906148 3.41906148 -14.64621516 -9.03 10.81)" gradientUnits="userSpaceOnUse" x1="1.4" x2="2.4" xlink:href="#aj" y1=".1" y2=".1"/><linearGradient id="bm" gradientTransform="matrix(14.64621516 3.41906148 3.41906148 -14.64621516 -8.8 9.84)" gradientUnits="userSpaceOnUse" x1="1.4" x2="2.4" xlink:href="#aV" y1=".13" y2=".13"/><linearGradient id="bn" gradientTransform="matrix(14.64621516 3.41906148 3.41906148 -14.64621516 -9.03 10.81)" gradientUnits="userSpaceOnUse" x1="1.4" x2="2.4" xlink:href="#at" y1=".1" y2=".1"/><linearGradient id="bo" gradientTransform="matrix(14.64621516 3.41906148 3.41906148 -14.64621516 -8.8 9.84)" gradientUnits="userSpaceOnUse" x1="1.4" x2="2.4" xlink:href="#a3" y1=".18" y2=".18"/><linearGradient id="bp" gradientTransform="matrix(14.59261246 -3.64105226 -3.64105226 -14.59261246 -.17 20.42)" gradientUnits="userSpaceOnUse" x1="1.48" x2="2.48" xlink:href="#az" y1=".31" y2=".31"/><linearGradient id="bq" gradientTransform="matrix(9.60550953 -2.39670328 -2.39670328 -9.60550953 9.6 18.33)" gradientUnits="userSpaceOnUse" x1="1.51" x2="2.51" xlink:href="#W" y1=".19" y2=".19"/><linearGradient id="br" gradientTransform="matrix(14.02763144 4.42827915 4.42827915 -14.02763144 3.21 4.59)" gradientUnits="userSpaceOnUse" x1="1.38" x2="2.38" xlink:href="#N" y1="-.03" y2="-.03"/><linearGradient id="bs" gradientTransform="matrix(14.34232337 4.52762192 4.52762192 -14.34232337 2.84 3.62)" gradientUnits="userSpaceOnUse" x1="1.39" x2="2.39" xlink:href="#N" y1=".1" y2=".1"/><linearGradient id="bt" gradientTransform="matrix(14.34232337 4.52762192 4.52762192 -14.34232337 3.14 2.67)" gradientUnits="userSpaceOnUse" x1="1.39" x2="2.39" xlink:href="#Q" y1=".09" y2=".09"/><linearGradient id="bu" gradientTransform="matrix(14.34232337 4.52762192 4.52762192 -14.34232337 3.14 2.67)" gradientUnits="userSpaceOnUse" x1="1.39" x2="2.39" xlink:href="#U" y1=".1" y2=".1"/><linearGradient id="bv" gradientTransform="matrix(9.44075807 2.98028304 2.98028304 -9.44075807 12.56 6)" gradientUnits="userSpaceOnUse" x1="1.36" x2="2.36" xlink:href="#W" y1=".35" y2=".35"/><linearGradient id="bw" gradientTransform="matrix(14.02763144 4.42827915 4.42827915 -14.02763144 3.21 4.59)" gradientUnits="userSpaceOnUse" x1="1.38" x2="2.38" xlink:href="#Z" y1=".02" y2=".02"/><linearGradient id="bx" gradientTransform="matrix(14.34232337 4.52762192 4.52762192 -14.34232337 2.84 3.62)" gradientUnits="userSpaceOnUse" x1="1.39" x2="2.39" xlink:href="#Z" y1=".06" y2=".06"/><linearGradient id="by" gradientTransform="matrix(14.34232337 4.52762192 4.52762192 -14.34232337 3.14 2.67)" gradientUnits="userSpaceOnUse" x1="1.39" x2="2.39" xlink:href="#U" y1="-.02" y2="-.02"/><linearGradient id="bz" gradientTransform="matrix(14.34232337 4.52762192 4.52762192 -14.34232337 3.14 2.67)" gradientUnits="userSpaceOnUse" x1="1.39" x2="2.39" xlink:href="#ad" y1=".13" y2=".13"/><linearGradient id="bA" gradientTransform="matrix(14.34232337 4.52762192 4.52762192 -14.34232337 3.14 2.67)" gradientUnits="userSpaceOnUse" x1="1.39" x2="2.39" xlink:href="#af" y1=".1" y2=".1"/><linearGradient id="bB" gradientTransform="matrix(9.44075807 2.98028304 2.98028304 -9.44075807 12.56 6)" gradientUnits="userSpaceOnUse" x1="1.36" x2="2.36" xlink:href="#ah" y1=".18" y2=".18"/><linearGradient id="bC" gradientTransform="matrix(14.27242881 -3.56116215 -3.56116215 -14.27242881 .9 24.92)" gradientUnits="userSpaceOnUse" x1="1.48" x2="2.48" xlink:href="#aj" y1=".03" y2=".03"/><linearGradient id="bD" gradientTransform="matrix(14.59261246 -3.64105226 -3.64105226 -14.59261246 -.17 23.32)" gradientUnits="userSpaceOnUse" x1="1.48" x2="2.48" xlink:href="#aV" y1="-.1" y2="-.1"/><linearGradient id="bE" gradientTransform="matrix(14.27242881 -3.56116215 -3.56116215 -14.27242881 .9 24.92)" gradientUnits="userSpaceOnUse" x1="1.48" x2="2.48" y1=".05" y2=".05"><stop offset="0" stop-color="#c8262a"/><stop offset=".05" stop-color="#c8262a"/><stop offset="1" stop-color="#c8282a"/></linearGradient><linearGradient id="bF" gradientTransform="matrix(14.02763144 4.42827915 4.42827915 -14.02763144 3.21 4.59)" gradientUnits="userSpaceOnUse" x1="1.38" x2="2.38" xlink:href="#aj" y1="-.03" y2="-.03"/><linearGradient id="bG" gradientTransform="matrix(14.34232337 4.52762192 4.52762192 -14.34232337 2.84 3.62)" gradientUnits="userSpaceOnUse" x1="1.39" x2="2.39" xlink:href="#aj" y1=".08" y2=".08"/><linearGradient id="bH" gradientTransform="matrix(14.34232337 4.52762192 4.52762192 -14.34232337 3.14 2.67)" gradientUnits="userSpaceOnUse" x1="1.39" x2="2.39" xlink:href="#an" y1=".21" y2=".21"/><linearGradient id="bI" gradientTransform="matrix(14.34232337 4.52762192 4.52762192 -14.34232337 2.84 3.62)" gradientUnits="userSpaceOnUse" x1="1.39" x2="2.39" xlink:href="#aj" y1=".13" y2=".13"/><linearGradient id="bJ" gradientTransform="matrix(14.34232337 4.52762192 4.52762192 -14.34232337 2.84 3.62)" gradientUnits="userSpaceOnUse" x1="1.39" x2="2.39" xlink:href="#at" y1=".1" y2=".1"/><linearGradient id="bK" gradientTransform="matrix(14.34232337 4.52762192 4.52762192 -14.34232337 3.14 2.67)" gradientUnits="userSpaceOnUse" x1="1.39" x2="2.39" xlink:href="#av" y1=".17" y2=".17"/><linearGradient id="bL" gradientTransform="matrix(14.02763144 4.42827915 4.42827915 -14.02763144 3.21 4.59)" gradientUnits="userSpaceOnUse" x1="1.38" x2="2.38" xlink:href="#aj" y1=".03" y2=".03"/><linearGradient id="bM" gradientTransform="matrix(14.34232337 4.52762192 4.52762192 -14.34232337 2.84 3.62)" gradientUnits="userSpaceOnUse" x1="1.39" x2="2.39" xlink:href="#aj" y1=".06" y2=".06"/><linearGradient id="bN" gradientTransform="matrix(14.34232337 4.52762192 4.52762192 -14.34232337 2.84 3.62)" gradientUnits="userSpaceOnUse" x1="1.39" x2="2.39" xlink:href="#at" y1=".09" y2=".09"/><linearGradient id="bO"><stop offset="0" stop-color="#e36e25"/><stop offset="1" stop-color="#e26425"/></linearGradient><linearGradient id="bP" gradientTransform="matrix(14.64621516 3.41906148 3.41906148 -14.64621516 -11.64 5.17)" gradientUnits="userSpaceOnUse" x1="1.4" x2="2.4" xlink:href="#bO" y1=".24" y2=".24"/><linearGradient id="bQ"><stop offset="0" stop-color="#d64f28"/><stop offset="1" stop-color="#d64828"/></linearGradient><linearGradient id="bR" gradientTransform="matrix(14.64621516 3.41906148 3.41906148 -14.64621516 -11.64 5.17)" gradientUnits="userSpaceOnUse" x1="1.4" x2="2.4" xlink:href="#bQ" y1=".21" y2=".21"/><linearGradient id="bS" gradientTransform="matrix(9.64079323 2.25057903 2.25057903 -9.64079323 -1.99 7.76)" gradientUnits="userSpaceOnUse" x1="1.38" x2="2.38" y1=".35" y2=".35"><stop offset="0" stop-color="#d53f28"/><stop offset="1" stop-color="#c42429"/></linearGradient><linearGradient id="bT"><stop offset="0" stop-color="#e47524"/><stop offset="1" stop-color="#e36e25"/></linearGradient><linearGradient id="bU" gradientTransform="matrix(14.64621516 3.41906148 3.41906148 -14.64621516 -11.64 5.17)" gradientUnits="userSpaceOnUse" x1="1.4" x2="2.4" xlink:href="#bT" y1=".2" y2=".2"/><linearGradient id="bV" gradientTransform="matrix(14.64621516 3.41906148 3.41906148 -14.64621516 -11.64 5.17)" gradientUnits="userSpaceOnUse" x1="1.4" x2="2.4" y1=".2" y2=".2"><stop offset="0" stop-color="#da5c27"/><stop offset="1" stop-color="#da5627"/></linearGradient><linearGradient id="bW" gradientTransform="matrix(9.64079323 2.25057903 2.25057903 -9.64079323 -1.99 7.76)" gradientUnits="userSpaceOnUse" x1="1.38" x2="2.38" y1=".34" y2=".34"><stop offset="0" stop-color="#d94e27"/><stop offset=".34" stop-color="#d54427"/><stop offset=".9" stop-color="#cc2a27"/><stop offset="1" stop-color="#cb2528"/></linearGradient><linearGradient id="bX" gradientTransform="matrix(14.64621516 3.41906148 3.41906148 -14.64621516 -8.8 9.84)" gradientUnits="userSpaceOnUse" x1="1.4" x2="2.4" xlink:href="#bT" y1=".39" y2=".39"/><linearGradient id="bY" gradientTransform="matrix(9.64079323 2.25057903 2.25057903 -9.64079323 .84 12.44)" gradientUnits="userSpaceOnUse" x1="1.38" x2="2.38" y1=".51" y2=".51"><stop offset="0" stop-color="#e15525"/><stop offset="1" stop-color="#ce2428"/></linearGradient><linearGradient id="bZ"><stop offset="0" stop-color="#df3526"/><stop offset=".05" stop-color="#df3526"/><stop offset="1" stop-color="#e04a26"/></linearGradient><linearGradient id="b0" gradientTransform="matrix(14.27242881 -3.56116215 -3.56116215 -14.27242881 .9 24.92)" gradientUnits="userSpaceOnUse" x1="1.48" x2="2.48" xlink:href="#bZ" y1="-.14" y2="-.14"/><linearGradient id="b1" gradientTransform="matrix(14.59261246 -3.64105226 -3.64105226 -14.59261246 -.17 23.32)" gradientUnits="userSpaceOnUse" x1="1.48" x2="2.48" xlink:href="#bO" y1="-.19" y2="-.19"/><linearGradient id="b2" gradientTransform="matrix(14.59261246 -3.64105226 -3.64105226 -14.59261246 -.17 23.32)" gradientUnits="userSpaceOnUse" x1="1.48" x2="2.48" xlink:href="#bT" y1="-.18" y2="-.18"/><linearGradient id="b3" gradientTransform="matrix(14.32485539 3.34404218 3.34404218 -14.32485539 -8.59 11.75)" gradientUnits="userSpaceOnUse" x1="1.4" x2="2.4" xlink:href="#bZ" y1=".06" y2=".06"/><linearGradient id="b4" gradientTransform="matrix(14.64621516 3.41906148 3.41906148 -14.64621516 -8.8 9.84)" gradientUnits="userSpaceOnUse" x1="1.4" x2="2.4" xlink:href="#bO" y1="-.06" y2="-.06"/><linearGradient id="b5" gradientTransform="matrix(14.64621516 3.41906148 3.41906148 -14.64621516 -8.8 9.84)" gradientUnits="userSpaceOnUse" x1="1.4" x2="2.4" xlink:href="#bT" y1="-.09" y2="-.09"/><linearGradient id="b6" gradientTransform="matrix(14.64621516 3.41906148 3.41906148 -14.64621516 -8.8 9.84)" gradientUnits="userSpaceOnUse" x1="1.4" x2="2.4" xlink:href="#bQ" y1="-.03" y2="-.03"/><linearGradient id="b7" gradientTransform="matrix(14.64621516 3.41906148 3.41906148 -14.64621516 -8.8 9.84)" gradientUnits="userSpaceOnUse" x1="1.4" x2="2.4" y1="-.09" y2="-.09"><stop offset="0" stop-color="#d75428"/><stop offset="1" stop-color="#d64f28"/></linearGradient><linearGradient id="b8"><stop offset="0" stop-color="#cf3929"/><stop offset="1" stop-color="#cf3629"/></linearGradient><linearGradient id="b9" gradientTransform="matrix(14.59261246 -3.64105226 -3.64105226 -14.59261246 -.17 23.32)" gradientUnits="userSpaceOnUse" x1="1.48" x2="2.48" xlink:href="#b8" y1="-.13" y2="-.13"/><linearGradient id="ca"><stop offset="0" stop-color="#ce2728"/><stop offset=".05" stop-color="#ce2728"/><stop offset="1" stop-color="#ce2d28"/></linearGradient><linearGradient id="cb" gradientTransform="matrix(14.32485539 3.34404218 3.34404218 -14.32485539 -8.59 11.75)" gradientUnits="userSpaceOnUse" x1="1.4" x2="2.4" xlink:href="#ca" y1=".06" y2=".06"/><linearGradient id="cc" gradientTransform="matrix(14.27242881 -3.56116215 -3.56116215 -14.27242881 .89 22.02)" gradientUnits="userSpaceOnUse" x1="1.48" x2="2.48" xlink:href="#bZ" y1="-.09" y2="-.09"/><linearGradient id="cd" gradientTransform="matrix(14.59261246 -3.64105226 -3.64105226 -14.59261246 .07 21.39)" gradientUnits="userSpaceOnUse" x1="1.48" x2="2.48" xlink:href="#bZ" y1=".1" y2=".1"/><linearGradient id="ce" gradientTransform="matrix(14.59261246 -3.64105226 -3.64105226 -14.59261246 -.17 20.42)" gradientUnits="userSpaceOnUse" x1="1.48" x2="2.48" xlink:href="#bO" y1=".06" y2=".06"/><linearGradient id="cf" gradientTransform="matrix(14.59261246 -3.64105226 -3.64105226 -14.59261246 -.17 20.42)" gradientUnits="userSpaceOnUse" x1="1.48" x2="2.48" xlink:href="#bT" y1="-.24" y2="-.24"/><linearGradient id="cg" gradientTransform="matrix(9.64079323 2.25057903 2.25057903 -9.64079323 .84 12.44)" gradientUnits="userSpaceOnUse" x1="1.38" x2="2.38" y1=".52" y2=".52"><stop offset="0" stop-color="#e26125"/><stop offset=".27" stop-color="#df5625"/><stop offset=".74" stop-color="#d73a26"/><stop offset="1" stop-color="#d22927"/></linearGradient><linearGradient id="ch"><stop offset="0" stop-color="#e04326"/><stop offset=".05" stop-color="#e04326"/><stop offset=".22" stop-color="#e04725"/><stop offset="1" stop-color="#e25825"/></linearGradient><linearGradient id="ci" gradientTransform="matrix(14.27242881 -3.56116215 -3.56116215 -14.27242881 .89 22.02)" gradientUnits="userSpaceOnUse" x1="1.48" x2="2.48" xlink:href="#ch" y1=".02" y2=".02"/><linearGradient id="cj" gradientTransform="matrix(14.59261246 -3.64105226 -3.64105226 -14.59261246 .07 21.39)" gradientUnits="userSpaceOnUse" x1="1.48" x2="2.48" xlink:href="#ch" y1=".06" y2=".06"/><linearGradient id="ck" gradientTransform="matrix(14.59261246 -3.64105226 -3.64105226 -14.59261246 -.17 20.42)" gradientUnits="userSpaceOnUse" x1="1.48" x2="2.48" xlink:href="#bT" y1="-.01" y2="-.01"/><linearGradient id="cl" gradientTransform="matrix(14.64621516 3.41906148 3.41906148 -14.64621516 -8.8 9.84)" gradientUnits="userSpaceOnUse" x1="1.4" x2="2.4" xlink:href="#b8" y1="-.03" y2="-.03"/><linearGradient id="cm" gradientTransform="matrix(14.27242881 -3.56116215 -3.56116215 -14.27242881 .89 22.02)" gradientUnits="userSpaceOnUse" x1="1.48" x2="2.48" xlink:href="#ca" y1="-.03" y2="-.03"/><linearGradient id="cn" gradientTransform="matrix(14.59261246 -3.64105226 -3.64105226 -14.59261246 .07 21.39)" gradientUnits="userSpaceOnUse" x1="1.48" x2="2.48" xlink:href="#ca" y1=".1" y2=".1"/><linearGradient id="co" gradientTransform="matrix(14.59261246 -3.64105226 -3.64105226 -14.59261246 -.17 20.42)" gradientUnits="userSpaceOnUse" x1="1.48" x2="2.48" xlink:href="#b8" y1=".21" y2=".21"/><linearGradient id="cp" gradientTransform="matrix(14.64621516 3.41906148 3.41906148 -14.64621516 -8.8 9.84)" gradientUnits="userSpaceOnUse" x1="1.4" x2="2.4" y1=".39" y2=".39"><stop offset="0" stop-color="#cf3e29"/><stop offset="1" stop-color="#cf3c29"/></linearGradient><linearGradient id="cq"><stop offset="0" stop-color="#ce2b28"/><stop offset=".05" stop-color="#ce2b28"/><stop offset="1" stop-color="#cf3229"/></linearGradient><linearGradient id="cr" gradientTransform="matrix(14.59261246 -3.64105226 -3.64105226 -14.59261246 .07 21.39)" gradientUnits="userSpaceOnUse" x1="1.48" x2="2.48" xlink:href="#cq" y1=".1" y2=".1"/><linearGradient id="cs" gradientTransform="matrix(14.59261246 -3.64105226 -3.64105226 -14.59261246 -.17 20.42)" gradientUnits="userSpaceOnUse" x1="1.48" x2="2.48" y1=".18" y2=".18"><stop offset="0" stop-color="#cf3c29"/><stop offset="1" stop-color="#cf3929"/></linearGradient><linearGradient id="ct" gradientTransform="matrix(14.02763144 4.42827915 4.42827915 -14.02763144 3.21 4.59)" gradientUnits="userSpaceOnUse" x1="1.38" x2="2.38" xlink:href="#bZ" y1="-.15" y2="-.15"/><linearGradient id="cu" gradientTransform="matrix(14.02763144 4.42827915 4.42827915 -14.02763144 3.21 4.59)" gradientUnits="userSpaceOnUse" x1="1.38" x2="2.38" xlink:href="#ca" y1="-.16" y2="-.16"/><linearGradient id="cv" gradientTransform="matrix(14.02763144 4.42827915 4.42827915 -14.02763144 3.21 4.59)" gradientUnits="userSpaceOnUse" x1="1.38" x2="2.38" xlink:href="#ca" y1="-.15" y2="-.15"/><linearGradient id="cw" gradientTransform="matrix(14.34232337 4.52762192 4.52762192 -14.34232337 2.84 3.62)" gradientUnits="userSpaceOnUse" x1="1.39" x2="2.39" xlink:href="#ca" y1=".07" y2=".07"/><linearGradient id="cx" gradientTransform="matrix(14.34232337 4.52762192 4.52762192 -14.34232337 2.84 3.62)" gradientUnits="userSpaceOnUse" x1="1.39" x2="2.39" xlink:href="#cq" y1=".09" y2=".09"/><linearGradient id="cy" gradientTransform="matrix(14.02763144 4.42827915 4.42827915 -14.02763144 3.21 4.59)" gradientUnits="userSpaceOnUse" x1="1.38" x2="2.38" xlink:href="#ca" y1=".06" y2=".06"/><linearGradient id="cz" gradientTransform="matrix(14.34232337 4.52762192 4.52762192 -14.34232337 2.84 3.62)" gradientUnits="userSpaceOnUse" x1="1.39" x2="2.39" xlink:href="#ca" y1=".02" y2=".02"/><linearGradient id="cA" gradientTransform="matrix(14.59261246 -3.64105226 -3.64105226 -14.59261246 -.17 20.42)" gradientUnits="userSpaceOnUse" x1="1.48" x2="2.48" xlink:href="#b8" y1=".14" y2=".14"/><linearGradient id="cB" gradientTransform="matrix(14.02763144 4.42827915 4.42827915 -14.02763144 3.21 4.59)" gradientUnits="userSpaceOnUse" x1="1.38" x2="2.38" xlink:href="#ca" y1="-.09" y2="-.09"/><radialGradient id="cC" cx="1.44" cy=".06" gradientTransform="matrix(20.05 0 0 -20.05 -5.01 35.08)" gradientUnits="userSpaceOnUse" r="1"><stop offset="0" stop-color="#db7725"/><stop offset=".4" stop-color="#d46925"/><stop offset="1" stop-color="#c74d25"/></radialGradient><radialGradient id="cD" cx="1.44" cy=".06" gradientTransform="matrix(20.05 0 0 -20.05 -5.01 35.08)" gradientUnits="userSpaceOnUse" r="1"><stop offset="0" stop-color="#d66926"/><stop offset=".43" stop-color="#cd5825"/><stop offset="1" stop-color="#bf3d25"/></radialGradient><radialGradient id="cE" cx="1.44" cy=".06" gradientTransform="matrix(20.05 0 0 -20.05 -5.01 35.08)" gradientUnits="userSpaceOnUse" r="1"><stop offset="0" stop-color="#df8024"/><stop offset=".33" stop-color="#da7524"/><stop offset=".9" stop-color="#cd5a24"/><stop offset="1" stop-color="#cb5525"/></radialGradient><radialGradient id="cF" cx="1.53" cy=".57" gradientTransform="matrix(20.05 0 0 -20.05 -5.01 35.08)" gradientUnits="userSpaceOnUse" r="0"><stop offset="0" stop-color="#c65128"/><stop offset="1" stop-color="#b33226"/></radialGradient><radialGradient id="cG" cx="1.44" cy=".06" gradientTransform="matrix(20.05 0 0 -20.05 -5.01 35.08)" gradientUnits="userSpaceOnUse" r="1"><stop offset="0" stop-color="#cc6028"/><stop offset=".4" stop-color="#c75727"/><stop offset="1" stop-color="#bc4126"/></radialGradient><path d="m42.12 45.4s0 0 0 0zm-8.1-2.87c-2.14.82-4.73 1.22-7.39 1.22-1.01 0-2.04-.06-3.05-.17.6.08 1.22.15 1.85.19.6.04 1.19.06 1.75.06 2.68 0 4.92-.43 6.81-1.17 0-.04.02-.08.03-.12m-30.63-.94c-.4.51-.9 1.18-.95 2.5-.02.35.37.62 1.07.84h.01s0 0 0 0c.23.03 2.14.29 4.21.29 1.41 0 2.9-.12 3.98-.52.16-.06.27-.12.35-.17-.02-.19-.13-.37-.3-.55-.81-.21-1.82-.62-2.85-1.12-.84-.25-1.74-.52-2.61-.79-1.12-.22-2.17-.37-2.91-.48zm22.79-20.47c-.06 0-.11 0-.17 0h.44.01c-.1 0-.2 0-.29-.01m12.55-.06c-.06 0-.12 0-.18.02-.66.62-1.99 2.13-3.84 3.64-1.17.95-2.54 1.91-4.09 2.64 3.83-1.57 6.6-4.12 8.37-4.12.59 0 1.06.28 1.43.98 1.11 2.11 1.61 5.24.98 8.54h.3.39c.31-.76.57-1.25.79-1.52.33-1.73.38-3.3.3-4.47-1.08-2.81-2.57-4.31-3.53-5.28-.35-.29-.64-.41-.92-.41m.26-.3c.06.07.13.15.2.22-.07-.08-.14-.15-.2-.22s0 0 0 0m-31.98-1c-.32.34-.66.72-1.02 1.17-1.76 2.18-1.37 7.05 1.3 11.74 1.47 1.98 3.38 4.36 5.71 6.43-4.88-5.17-5.77-16.73-2.98-17.3-.45-.45-.86-.89-1.21-1.31-.58-.3-1.17-.55-1.8-.73m33.86-7.43c.56.56.91 1.2 1.01 1.92.08.57-.17 1.34-.71 2.19.76-.82 1.18-1.4 1.23-1.47-.06.47-.24.94-.5 1.41-.73 1.32-2.07 2.52-2.87 3.19-.23.19-.33.37-.33.55 0-.18.1-.36.33-.55.8-.67 2.14-1.87 2.87-3.18.26-.47.45-.95.5-1.42.1-.79-.15-1.56-.98-2.24-.17-.14-.35-.28-.55-.42m-3.06-.22c-.07.22-.16.43-.26.62s-.04.09-.04.09c.64 1.24.57 2.7.03 3.84.52-.67.87-1.36 1.01-2.01.04-.28.06-.55.08-.81-.02-.6-.24-1.14-.67-1.58-.05-.05-.1-.1-.16-.15m-28.45-4.08c-1.64.4-3.01.96-4.01 1.66-1.58 1.12-1.25 2.56-.31 3.93s0 .01 0 .01c.88 1.27 2.29 2.46 3.19 3.25l.13.12-.13-.12c-.9-.79-2.31-1.99-3.19-3.25.29.29 9.65 9.9 20.66 9.94s0 0 0 0c-.69-.05-1.39-.15-2.1-.29-11.02-2.19-18.89-10.17-19.18-12.53 0 0 2.34.05 4.06 2.4 1.13 1.55 4.18 4.5 9.02 6.35-.62-.34-1.19-.74-1.69-1.2-.55-.5-1.1-.99-1.64-1.45-.47-.31-.91-.62-1.33-.92-.23-.16-.44-.33-.66-.49-.02-.02-.04-.03-.06-.05-.02-.01-.04-.03-.05-.04-.06-.04-.11-.09-.17-.13-.04-.03-.08-.06-.12-.1-.86-.68-1.58-1.3-2.12-1.8-.12-.11-.24-.22-.34-.32v-.02s-.01 0-.01 0c0-.01-.01-.03-.02-.04-.54-.47-.95-.87-1.22-1.28-.26-.36-.31-.62-.08-.79.03-.02.05-.04.08-.06.17-.22.48-.42.89-.6.01 0 .02-.01.03-.02l.07-.46c-.48.17-.86.35-1.09.49-.59.37-.98.59-1.25.59s-.44-.22-.58-.74c-.12-.45 1.04-1.2 3.15-1.81.02-.08.05-.15.08-.23m12.87-.72c.12.12.24.24.35.37.27.03.55.06.83.09.02-.07.04-.14.06-.21l.04-.11v-.02s0 0 0 0 0 0 0-.01c-.43-.04-.86-.08-1.29-.11" fill="url(#a)"/><path d="m39.18 21.01c.13.14.29.29.46.46-.17-.17-.33-.32-.46-.46m-30.9-2.6c-.3.37-.75.8-1.28 1.37.26-.27.5-.52.71-.74.22-.23.42-.44.57-.63m.31-1.04s0 0 0 0zm-.25-.35c.12.12.2.24.25.35-.05-.12-.13-.23-.25-.35" fill="#ea9a99"/><path d="m19.98 27.7c-.1.05-.22.09-.35.11 1.06.32 2.24.55 3.55.66-.01 0-.03 0-.05 0-1.11-.2-2.16-.46-3.16-.77m18.98-6.92c-.07 0-.21.11-.42.3.06-.01.12-.02.18-.02.28 0 .58.13.92.41-.17-.17-.33-.32-.46-.46-.07-.08-.14-.15-.2-.22 0 0-.02 0-.03 0m-31.23-1.75c-.21.22-.45.47-.71.74.63.18 1.22.43 1.8.73-.44-.53-.81-1.03-1.09-1.47" fill="url(#b)"/><path d="m6.31 42.08c.87.28 1.77.54 2.61.79-.25-.12-.5-.25-.75-.38-.61-.15-1.25-.29-1.86-.41" fill="url(#c)"/><path d="m3.53 44.94c1.86.57 5.8.71 10 .71 2.03 0 4.12-.03 6.06-.07 1.94-.03 3.73-.07 5.17-.07h.03c-.01 0-.02 0-.03 0-1.43 0-3.2.03-5.13.06-1.92.03-3.99.06-6.01.06-.63 0-1.26 0-1.87-.01-3.5-.04-6.62-.21-8.21-.7" fill="#e5b9ba"/><path d="m12.07 44.54c-.08.06-.19.12-.35.17-1.08.4-2.57.52-3.98.52-2.07 0-3.98-.26-4.21-.29 1.59.48 4.71.66 8.21.7.62 0 1.24.01 1.87.01 2.02 0 4.09-.03 6.01-.06s3.7-.06 5.13-.06h.03s-.02 0-.03 0c-1.43 0-3.2.03-5.13.06-1.92.03-3.99.06-6.01.06-.63 0-1.26 0-1.87-.01.17-.3.29-.61.34-.92 0-.06 0-.12 0-.18" fill="url(#c)"/><path d="m25.95 45.52c2.74.03 6.28.12 9.57.12.94 0 1.87 0 2.74-.03 0 0 0 0-.01 0-.87.02-1.79.03-2.74.03-3.29 0-6.83-.1-9.57-.12" fill="#e5b9ba"/><path d="m15.15 25.64c.25.18.52.35.8.53-.13-.1-.25-.2-.37-.29-.14-.08-.29-.15-.43-.23" fill="url(#c)"/><path d="m15.58 25.87c.12.1.25.2.37.29 1.02.63 2.24 1.21 3.68 1.64.13-.02.25-.06.35-.11-1.62-.5-3.09-1.13-4.4-1.82" fill="url(#d)"/><g fill="url(#e)"><path d="m15.51 41.08c1.25.85 2.6 1.57 4.04 2.09 1.17.42 1.91.75 2.32 1 1.02-.05 1.99-.08 2.92-.08.66 0 1.3.01 1.91.03 2.81-.16 5.18-.5 7.18-.93.03-.17.07-.36.12-.55-1.88.74-4.13 1.17-6.81 1.17-.56 0-1.15-.02-1.75-.06-.63-.04-1.25-.1-1.85-.19-2.96-.34-5.83-1.18-8.08-2.49m27.65-14.32c.09 1.17.03 2.75-.3 4.47.16-.19.3-.28.43-.28.41 0 .64.93.78 1.98.08.02.17.04.25.06-.04-1.68-.25-3.46-.78-5.15-.12-.38-.24-.74-.38-1.08m-37.18-5.8c-.92 1.17-1.9 2.76-2.61 5.02-.55 1.74-.75 3.58-.75 5.35 0 2.8.49 5.42.87 7.17s.04.05.12.13c-.45-2.04-.78-9.39.21-10.05.03-.02.06-.03.09-.03.48 0 1.61 1.79 3.36 4.15-2.66-4.69-3.06-9.56-1.3-11.74"/><path d="m3.75 41.13c-.09.15-.22.31-.35.47.74.1 1.79.26 2.91.48-.95-.3-1.85-.62-2.56-.95"/><path d="m25.5 45.52h.45c-.15 0-.3 0-.44 0m-.73 0h.42c-.14 0-.29 0-.42 0m-13.01-1.53c.17.17.28.36.3.55.2-.15.16-.32-.05-.49-.08-.02-.16-.04-.25-.06"/></g><path d="m25.5 45.52h.44c2.73.03 6.28.12 9.57.12.94 0 1.86 0 2.74-.03-.59 0-1.19-.02-1.74-.06.17.05.26.08.26.08s-5.11-.09-11.27-.12m-13.48-1.46c.22.17.26.33.05.49v.18c-.04.31-.16.63-.34.92.62 0 1.24.01 1.87.01 2.02 0 4.09-.03 6.01-.06s3.7-.06 5.13-.06h.03.42c-.64 0-1.28 0-1.92 0-5.78 0-11.07.13-11.07.13s-.15-.55 4.11-1.04c-2.03-.21-3.8-.46-3.8-.46-.15-.02-.32-.05-.5-.09m21.87-.88c-2 .43-4.37.77-7.18.93 3.08.11 5.53.46 7.24.8-.02-.02-.04-.04-.05-.06-.19-.27-.16-.88 0-1.67m-30.4-4.7c.24 1.08.43 1.83.44 2.08v.03c0 .19-.07.36-.18.52.7.33 1.61.65 2.56.95.61.12 1.25.25 1.86.41-2.18-1.17-4.26-2.69-4.52-3.72-.01-.05-.02-.09-.03-.15-.08-.08-.12-.13-.12-.13" fill="url(#f)"/><path d="m14.62 33.88c-.16 0-.32-.05-.49-.17-1.16-.79-.46-3.29.6-3.29.16 0 .33.06.5.18 1.15.85.46 3.28-.61 3.28m9.32-3.33c-.04-1.03-.03-1.68.06-1.7h.05c.15 0 .34.13.6.27.25.13.56.27.95.27.35 0 .76-.11 1.25-.41.07 0 .1.81.11 1.88.12.09.24.19.37.3 1.3.92 2.22 2.29 2.27 2.67.08.55-.69 2.35-.69 2.35-.4 0-2.55-2.11-3.36-2.11 0 0-.01 0-.02 0-.02 0-.05 0-.07 0-.72.18-1.37.8-.63 1.65.73.85 5.25.96 4.83 2.31-.31 1.01-1.62 2.94-2.85 3.68-.03.77-.07 1.27-.1 1.31-.06.08-.22.1-.42.1-.41 0-.95-.11-.95-.11-.07-.03-.17-.5-.29-1.24-1.44-.61-3.33-1.95-3.15-2.6.17-.62 1.1-1.1 1.67-1.1.1 0 .18.01.26.04.45.19.84 1.78 1.58 2.05l.17.04s.03 0 .05 0c.85 0 2.14-1.44 1.64-2.02-.51-.6-4.1.37-5.02-1.93-.59-1.47-.07-3.6.97-4.87.23-.33.47-.6.73-.82m-13.94-8.74c-2.79.57-1.9 12.13 2.98 17.3.3.26.6.52.91.77 2.63 1.8 5.86 3.15 9.69 3.68 1.01.12 2.04.17 3.05.17 2.66 0 5.25-.4 7.39-1.22.5-2.06 1.53-4.8 1.73-5.68.03-.25.08-.5.16-.74l.04-.11v-.02s0 0 0 0c.17-.48.43-.91.77-1.29.05-.05.09-.11.14-.16l.03-.03c.66-.72 1.37-1.01 1.49-1.05h.01c.45-.22.94-.39 1.46-.5.49-.11 1-.17 1.53-.19.63-3.3.13-6.43-.98-8.54-.37-.69-.84-.98-1.43-.98-1.77 0-4.54 2.55-8.37 4.12-1.45.69-3.05 1.17-4.78 1.28-.83.13-1.68.2-2.55.2-.52 0-1.04-.02-1.57-.08-1.37-.13-2.59-.58-3.72-1.21-1.09-.41-2.36-1.3-3.54-2.3-1.81-1.08-3.3-2.28-4.45-3.42" fill="url(#g)"/><path d="m18 27.54c1.13.63 2.35 1.07 3.72 1.21.53.05 1.05.08 1.57.08.87 0 1.73-.07 2.55-.2-.23.01-.46.02-.69.02-.64 0-1.3-.05-1.97-.17-1.31-.11-2.49-.35-3.55-.66-.09.02-.19.02-.29.02-.35 0-.79-.09-1.34-.29" fill="url(#h)"/><path d="m14.46 25.24c1.19 1 2.45 1.89 3.54 2.3-.71-.4-1.39-.86-2.05-1.37-.28-.17-.55-.35-.8-.53-.24-.13-.47-.26-.69-.4" fill="url(#i)"/><path d="m15.96 26.17c.66.51 1.33.98 2.05 1.37.54.2.99.29 1.34.29.11 0 .2 0 .29-.02-1.44-.43-2.66-1.01-3.68-1.64" fill="url(#j)"/><path d="m13.9 39.89c.52.42 1.05.82 1.6 1.19 2.25 1.31 5.12 2.15 8.08 2.49-3.83-.53-7.05-1.88-9.69-3.68" fill="url(#k)"/><path d="m25.21 45.52s.02 0 .03 0h.26c-.1 0-.2 0-.29 0" fill="#d89297"/><path d="m24.79 44.09c-.93 0-1.9.02-2.92.08.02.01.05.03.07.04.42 0 .85.01 1.29.01.72 0 1.45-.01 2.21-.04.43-.02.85-.04 1.26-.06-.61-.02-1.25-.03-1.91-.03" fill="url(#m)"/><path d="m25.21 45.52s0 0 0 0h.29c-.1 0-.2 0-.3 0" fill="url(#n)"/><path d="m26.7 44.12c-.41.02-.83.04-1.26.06-.76.03-1.5.04-2.21.04-.44 0-.87 0-1.29-.01.77.51.06.68-1.25.68-1.18 0-2.84-.14-4.36-.3-4.26.49-4.11 1.04-4.11 1.04s5.29-.13 11.07-.13h1.92.3c6.15.04 11.27.12 11.27.12s-.09-.03-.26-.08c-1.23-.09-2.24-.28-2.58-.63-1.71-.34-4.16-.69-7.24-.8" fill="url(#o)"/><path d="m19.6 19.69c-.1.19-.19.34-.28.43 1.98.58 4.21.96 6.69 1.02h.17c-.68-.03-1.35-.1-2.01-.2-.01 0-.02 0-.03 0s-.07-.01-.1-.02c-.85-.14-1.69-.33-2.49-.56-.12-.03-.23-.07-.35-.1-.54-.17-1.08-.35-1.6-.56m-5.45-2.85c.54.46 1.09.94 1.64 1.45.5.46 1.07.86 1.69 1.2.29.11.58.22.88.32-.87-.52-2.26-1.49-3.93-2.78-.1-.06-.19-.12-.28-.18m-6.11-6.04s-.05.04-.08.06c-.23.17-.18.44.08.79-.02-.03-.04-.06-.06-.09-.16-.26-.13-.52.05-.75m.93-.64s-.02.01-.03.02c.01 0 .02 0 .03-.01" fill="url(#p)"/><path d="m8.04 11.66c.27.41.67.81 1.22 1.28-.02-.04-.04-.08-.05-.12-.53-.45-.93-.84-1.16-1.16m.88-1.45c-.41.18-.72.38-.89.6.28-.2.57-.41.89-.6" fill="url(#c)"/><path d="m14.44 17.04c1.67 1.29 3.06 2.26 3.93 2.78.31.11.63.21.96.3.08-.09.18-.24.28-.43-.62-.24-1.23-.5-1.81-.78-1.21-.58-2.33-1.22-3.35-1.87m-5.49-6.84s-.02 0-.03.01c-.32.2-.61.4-.89.6-.18.23-.22.49-.05.75.02.03.04.06.06.09.23.32.64.7 1.16 1.16-.23-.55-.35-1.11-.35-1.68 0-.25.02-.5.07-.74v-.02s.03-.18.03-.18" fill="url(#q)"/><path d="m37.51 12.82-.1.23c.55 1.2.57 2.63-.11 3.9.08-.1.16-.19.24-.29.54-1.14.61-2.6-.03-3.84" fill="url(#c)"/><path d="m37.41 13.05-.33.79c-.2.59-.54 1.1-.98 1.54.03.81-.19 1.62-.61 2.38s0 0 0 0c-.19.34-.43.68-.7.99l-.05.05-.02.02c-.14.16-.3.33-.46.48 1.28-.69 2.3-1.51 3.03-2.37.68-1.27.66-2.7.11-3.9" fill="url(#q)"/><path d="m37.98 10.58s0 .01 0 .02 0 .16 0 .16c1.1.49 2.07 1.02 2.87 1.59-.68-.69-1.67-1.27-2.88-1.77" fill="#fff"/><path d="m4.4 10.75c.29 2.36 8.15 10.33 19.17 12.53.71.14 1.41.24 2.1.29-1.6-2.6 4.3-1.96 8.52-3.81.59-.26 1.02-.37 1.29-.37.84 0 .23 1.05-1.49 2.09-1.38.83-3.46 1.67-6.1 1.97 6.63-.74 11.2-4.77 13.26-7 .54-.86.79-1.63.71-2.19-.1-.72-.46-1.36-1.01-1.92-.8-.57-1.77-1.1-2.87-1.59v.11s0 .1 0 .1v.04s-.02.24-.02.24l-.02.14c-.03.24-.08.47-.15.7s0 0 0 .01c.05.05.11.1.16.15.43.44.65.98.67 1.58.07-1.07 0-1.9.36-1.98 0 0 2.42.91 2.43 2.7 0 1.18-1.63 2.15-2.57 2.15-.49 0-.79-.26-.57-.9.13-.38.22-.77.27-1.15-.15.65-.49 1.34-1.01 2.01-.21.44-.48.83-.81 1.14-.01.01-.03.03-.04.04-.58.66-1.39 1.25-2.46 1.68-.31.12-.63.24-.96.36-.97.44-2.03.78-3.21 1-1.04.19-2.06.27-3.06.27-.17 0-.34 0-.51 0 0 0 0 0-.01 0-.15 0-.29 0-.44 0-.27 0-.53.01-.8.01-2.81 0-5.59-.48-7.73-1.65-4.85-1.85-7.89-4.8-9.02-6.35-1.72-2.35-4.06-2.4-4.06-2.4m4.84-2.49c-2.12.61-3.27 1.36-3.15 1.81.14.52.3.74.58.74s.66-.22 1.25-.59c.23-.14.61-.32 1.09-.49l.07-.49c0-.25.04-.5.1-.75l.03-.12v-.02s0 0 0 0c0-.03.02-.06.03-.09m13.31-.58c.23.26.43.53.6.81.04-.03.07-.06.11-.09l.02-.09c.02-.18.05-.36.1-.53-.28-.03-.56-.06-.83-.09" fill="url(#r)"/><path d="m17.49 19.5c2.14 1.17 4.92 1.65 7.73 1.65.27 0 .53 0 .8-.01-2.48-.05-4.71-.44-6.69-1.02-.06.07-.12.11-.17.11-.01 0-.02 0-.03 0-.16-.06-.42-.2-.76-.41-.3-.1-.59-.21-.88-.32m19.19-1.65c-.6.56-1.49 1.09-2.5 1.55-.01.01-.03.03-.04.04-.28.16-.58.31-.88.45.33-.11.66-.23.96-.36 1.07-.43 1.88-1.01 2.46-1.68" fill="url(#s)"/><path d="m18.37 19.82c.34.21.6.34.76.41h.03c.05 0 .11-.04.17-.11-.33-.1-.65-.2-.96-.3" fill="url(#t)"/><path d="m37.54 16.66c-.08.1-.15.19-.24.29-.16.31-.37.61-.62.89.01-.01.03-.03.04-.04.33-.32.61-.71.81-1.14" fill="url(#u)"/><path d="m37.3 16.95c-.73.86-1.76 1.68-3.03 2.37-.03.03-.05.05-.08.08 1-.46 1.89-.99 2.5-1.55.25-.29.45-.59.62-.89" fill="url(#t)"/><path d="m38.54 21.07c-.33.06-.63.3-.96.66-.24.3-.53.64-.85.99 0 0-.02.02-.02.03-1.66 2-5.07 4.51-9.34 5.57 1.16-.21 2.25-.56 3.26-.97 1.54-.73 2.92-1.68 4.09-2.64 1.85-1.51 3.17-3.01 3.84-3.64m-29.76-.56c.35.42.76.86 1.21 1.31.07-.01.14-.02.22-.02.35 0 .74.15 1.19.49-.84-.68-1.7-1.29-2.61-1.77m30.19-.92c-.48.4-.41.72-.02 1.18-.2-.24-.31-.44-.31-.63 0-.18.1-.36.33-.55m-30.41-2.23c.04.09.05.17.05.26 0 .24-.13.49-.36.78.31-.39.44-.71.31-1.04m-0-0s0 0 0 0zm-3.57-3.73c.88 1.28 2.29 2.47 3.19 3.26l.13.12c.09.08.23.21.41.36 5.08 3.99 7.97 5.16 9.62 6.09 1.86.82 3.9 1.52 6.05 1.95.66.13 1.32.19 1.97.19 1.12 0 2.22-.18 3.3-.48 1.42-.71 4.03-1.75 5.53-2.69 3.83-2.59 6.52-5.85 6.66-6.02.26-.47.45-.95.5-1.42-.05.07-.46.64-1.23 1.47-1.91 3.03-7.37 7.15-14.22 7.15-.38 0-.77-.01-1.16-.04-.03 0-.06 0-.09 0-11.02-.04-20.37-9.64-20.66-9.95" fill="url(#p)"/><path d="m36.72 22.72c-1.45 1.57-3.72 3.38-6.43 3.38-.46 0-.93-.05-1.41-.17-.43-.1 0-.4.81-.81-1.08.31-2.18.48-3.3.48-.65 0-1.31-.06-1.97-.19-2.16-.43-4.2-1.13-6.05-1.95.7.4 1.18.75 1.49 1.27.71 1.15.94 2.53.12 2.96.99.31 2.05.57 3.16.77h.05c.54.05 1.11.07 1.7.07h.05c.84 0 1.64-.08 2.41-.22 4.28-1.06 7.68-3.57 9.34-5.57 0 0 .02-.02.02-.03m-28.37-5.69c.12.12.2.24.25.35.14.33 0 .65-.31 1.04-.15.19-.35.4-.57.63.28.44.64.94 1.09 1.47.92.48 1.78 1.1 2.61 1.77-.58-.64-.99-1.16-1.13-1.41-.53-.94-1.7-3.49-1.54-3.49-.18-.16-.32-.28-.41-.36m33.55-.6c-.14.17-2.82 3.43-6.66 6.02.09-.06.18-.12.26-.17 1.96-1.34 2.84-1.92 3.01-1.92.05 0 .04.05-.03.15-.07.11-.38.59-.89 1.24.33-.35.64-.59.96-.66.2-.19.34-.3.42-.3h.03c-.38-.46-.45-.79.02-1.18.8-.67 2.14-1.87 2.87-3.18" fill="url(#v)"/><path d="m35.22 22.44c-1.49.93-4.11 1.98-5.53 2.69 1.98-.56 3.86-1.56 5.53-2.69m2.35-.71c-.26.27-.53.61-.85.99.33-.35.61-.69.85-.99" fill="url(#w)"/><path d="m38.49 20.34c-.17 0-1.04.58-3.01 1.92-.08.06-.17.11-.26.17-1.66 1.13-3.54 2.12-5.53 2.69-.82.41-1.25.71-.81.81.48.11.95.17 1.41.17 2.71 0 4.97-1.81 6.43-3.38.32-.38.59-.72.85-.99.51-.64.82-1.13.89-1.24.07-.1.08-.15.03-.15" fill="url(#x)"/><path d="m11.41 22.28s0 0 0 0c.57.43 1.71 1.93 3.73 3.35.14.08.28.16.43.23-1.42-1.15-2.76-2.46-4.17-3.59m-2.65-4.89c1.31 1.13 4.87 4 9.62 6.09-1.64-.93-4.54-2.1-9.62-6.09z" fill="url(#w)"/><path d="m8.74 17.38c-.16 0 1 2.55 1.54 3.49.15.25.55.77 1.13 1.41 1.4 1.14 2.74 2.45 4.17 3.59 1.32.7 2.78 1.32 4.4 1.82.82-.43.59-1.8-.12-2.96-.32-.52-.79-.87-1.49-1.27-4.75-2.09-8.31-4.96-9.62-6.09" fill="url(#x)"/><path d="m10.23 21.8c-.08 0-.15 0-.22.02 1.15 1.14 2.63 2.34 4.45 3.42-1.17-.99-2.26-2.08-3.04-2.95-.44-.34-.84-.49-1.19-.49" fill="url(#y)"/><path d="m11.42 22.29c.78.87 1.87 1.97 3.04 2.95.23.14.46.27.69.4-2.03-1.42-3.16-2.92-3.73-3.35z" fill="url(#z)"/><path d="m30.62 27.35c-1.01.42-2.1.76-3.26.97-.49.12-1 .22-1.52.3 1.72-.1 3.32-.59 4.78-1.28" fill="url(#y)"/><path d="m27.35 28.32c-.77.14-1.58.22-2.41.22-.02 0-.03 0-.05 0-.59 0-1.16-.02-1.7-.07.67.12 1.32.17 1.97.17.23 0 .46 0 .69-.02.52-.08 1.02-.18 1.52-.3" fill="url(#A)"/><path d="m41.16 16.47c-2.06 2.22-6.63 6.25-13.26 7-.67.08-1.37.12-2.11.12.39.03.78.04 1.16.04 6.84 0 12.31-4.12 14.22-7.15" fill="url(#B)"/><path d="m42.87 31.22c-.23.27-.49.76-.79 1.52.13 0 .25.01.38.02h.06c.14-.52.26-1.04.36-1.54" fill="url(#c)"/><path d="m43.3 30.94c-.12 0-.27.09-.43.28-.1.5-.21 1.02-.36 1.54h.13c.5 0 .98.06 1.43.16-.13-1.05-.36-1.98-.78-1.98" fill="url(#f)"/><path d="m8.92 42.87c1.03.5 2.04.91 2.85 1.12-.08-.08-.18-.17-.3-.25-.6-.27-1.53-.56-2.56-.87m-1.63-10.18c1.41 2.48 3.46 4.92 6.16 6.87-.05-.05-.11-.1-.16-.15-.1-.09-.19-.19-.29-.29-2.34-2.07-4.24-4.45-5.71-6.43" fill="url(#c)"/><path d="m8.17 42.48c.25.13.5.26.75.38 1.03.31 1.95.6 2.56.87-.71-.5-1.95-.92-3.3-1.26" fill="url(#C)"/><path d="m3.92 28.54s-.07 0-.09.03c-.99.67-.66 8.02-.21 10.05.8.81 5.65 5.16 17.75 5.58.14 0 .29-.02.43-.02h.07c-.41-.25-1.15-.58-2.32-1-1.44-.52-2.79-1.24-4.04-2.09-.77-.45-1.46-.96-2.07-1.52-2.7-1.95-4.75-4.39-6.16-6.87-1.75-2.36-2.88-4.15-3.36-4.15" fill="url(#f)"/><path d="m11.47 43.74c.11.08.21.16.3.25.09.02.17.04.25.06-.13-.1-.31-.2-.55-.31" fill="url(#f)"/><path d="m3.61 38.62c.01.05.02.1.03.15.26 1.03 2.34 2.55 4.52 3.72 1.35.34 2.6.76 3.3 1.26.23.11.42.21.55.31.18.04.35.07.5.09 0 0 1.77.25 3.8.46 1.26-.15 2.9-.28 5.04-.4-12.1-.41-16.95-4.77-17.75-5.58" fill="url(#D)"/><path d="m12.99 39.12c.09.1.19.2.29.29.05.05.11.1.16.15.15.11.31.22.46.33-.31-.25-.61-.51-.91-.77" fill="url(#E)"/><path d="m13.44 39.56c.6.56 1.3 1.07 2.07 1.52-.55-.37-1.09-.77-1.6-1.19-.16-.11-.31-.22-.46-.33" fill="url(#F)"/><path d="m21.87 44.17s-.05 0-.07 0c-.15 0-.29.02-.43.02.19 0 .38.01.58.02-.02-.01-.04-.03-.07-.04" fill="url(#o)"/><path d="m21.36 44.19c-2.14.12-3.78.26-5.04.4 1.52.16 3.18.3 4.36.3 1.32 0 2.03-.17 1.25-.68-.19 0-.39 0-.58-.02" fill="url(#G)"/><path d="m27.1 40.28s-.07-.01-.08-.05c-.17-.36.8-1.85.49-2.13s-4.41-.82-4.22-1.42c0 0 .55-.77 1.3-.77.17 0 .34.04.52.13.99.51 4.46.92 4.27 1.82-.17.82-1.86 2.41-2.28 2.41m-3.89-8.9c-1.04 1.28-1.56 3.41-.97 4.87.92 2.29 4.51 1.33 5.02 1.93.5.58-.79 2.02-1.64 2.02-.02 0-.03 0-.05 0l-.17-.04c-.74-.27-1.13-1.86-1.58-2.05-.07-.03-.16-.04-.26-.04-.57 0-1.5.48-1.67 1.1-.18.64 1.72 1.99 3.15 2.6.12.75.22 1.22.29 1.24 0 0 .55.11.95.11.2 0 .36-.03.42-.1.03-.04.06-.54.1-1.31 1.24-.74 2.54-2.68 2.85-3.68.42-1.35-4.1-1.45-4.83-2.31s-.09-1.47.63-1.65c-1.27.2-2.36 2.36-2.93 2.36-.18 0-.31-.21-.37-.77-.2-1.66.31-3.23 1.05-4.29m4.12-.22c1.06.9 2 2.06 2 2.42 0 .62-.27 1.59-.81 1.7-.02 0-.04 0-.06 0-.25 0-.57-.31-.99-.62-.43-.31-.96-.62-1.64-.62-.09 0-.19 0-.29.02h.02c.8 0 2.96 2.1 3.36 2.11 0 0 .76-1.8.69-2.35-.05-.38-.97-1.75-2.27-2.67m-3.29-2.29s-.03 0-.05 0c-.09.02-.1.67-.06 1.7.41-.35.84-.55 1.23-.55h.02c.49 0 1.13.36 1.77.85-.02-1.07-.04-1.88-.11-1.88-.49.31-.9.41-1.25.41-.39 0-.7-.13-.95-.27-.25-.13-.44-.27-.6-.27" fill="url(#H)"/><path d="m25.53 34.05s-.05 0-.07 0zm1.43-3.21s0 .04 0 .06c.12.08.25.16.36.24-.12-.1-.24-.2-.37-.3m-3.01-.29c-.26.22-.5.5-.73.82.22-.27.47-.51.74-.69 0-.05 0-.09 0-.13" fill="url(#I)"/><path d="m25.17 30c-.39 0-.82.2-1.23.55v.13c-.27.18-.51.42-.74.69-.74 1.06-1.25 2.62-1.05 4.29.07.55.19.77.37.77.57 0 1.67-2.17 2.93-2.36s.05 0 .07 0c.1-.01.2-.02.29-.02.68 0 1.22.31 1.64.62.43.31.74.62.99.62h.06c.54-.11.82-1.08.81-1.7 0-.36-.94-1.52-2-2.42-.12-.08-.24-.16-.36-.24 0-.02 0-.04 0-.06-.63-.48-1.27-.84-1.77-.85 0 0-.01 0-.02 0" fill="url(#J)"/><path d="m24.59 35.92c-.75 0-1.3.77-1.3.77-.19.6 3.91 1.14 4.22 1.42s-.66 1.77-.49 2.13c.01.03.04.05.08.05.42 0 2.11-1.6 2.28-2.41.19-.9-3.28-1.31-4.27-1.82-.18-.09-.36-.13-.52-.13" fill="url(#K)"/><path d="m27.47 31.26c-1.1-.69-.78 1.16.45 2.21 1.24 1.05 1.46-1-.45-2.21z" fill="#fff"/><path d="m42.11 45.4c-.45.05-.93.09-1.45.12-.74.05-1.55.08-2.4.1h.15c1.47 0 2.92-.1 3.71-.22" fill="#d89297"/><path d="m42.12 45.4c-.45.05-.94.09-1.46.12.52-.03 1-.07 1.45-.12m-4.57-2.18c-.45.21-.85.43-1.18.64-.47.75 1.4 1.23 3.1 1.5.49.01.97.02 1.4.02s.81 0 1.09-.01c-.33-.07-.67-.16-1-.26-.96-.3-1.83-.73-2.59-1.25-.25-.17-.48-.34-.7-.53s-.08-.07-.12-.11m-1.45-1.71c-.62.39-1.32.73-2.07 1.01 0 .04-.02.08-.03.12.78-.3 1.49-.66 2.15-1.05-.02-.03-.03-.06-.05-.08" fill="url(#p)"/><path d="m37.52 43.2c-.29.11-.56.21-.8.29-.16.12-.28.25-.36.37.33-.21.73-.43 1.18-.64 0 0-.02-.01-.02-.02" fill="url(#w)"/><path d="m40.66 45.52c-.74.05-1.55.08-2.4.1h.01c.85-.02 1.66-.05 2.4-.1" fill="#ca757a"/><path d="m39.46 45.36c.42.07.83.12 1.18.16-.74.05-1.55.08-2.4.1.85-.02 1.66-.05 2.4-.1.52-.03 1.01-.07 1.46-.12-.05-.01-.11-.02-.16-.03-.28 0-.66.01-1.09.01s-.91 0-1.4-.02" fill="url(#w)"/><path d="m36.14 41.59c-.66.4-1.37.75-2.15 1.05-.04.19-.08.37-.12.55.6-.13 1.16-.27 1.69-.41.14-.29.37-.63.67-1.03-.04-.05-.07-.11-.1-.16" fill="url(#m)"/><path d="m36.37 43.86c-.19.12-.35.24-.48.36-.92.82 1.43 1.07 3.58 1.14-1.7-.27-3.57-.74-3.1-1.5z" fill="url(#m)"/><path d="m35.57 42.78c-.53.15-1.1.28-1.69.41-.15.79-.18 1.4 0 1.67.01.02.03.04.05.06 1.3.26 2.18.51 2.58.63.55.04 1.14.06 1.74.06.85-.02 1.66-.05 2.4-.1-.36-.04-.77-.1-1.18-.16-2.15-.06-4.5-.32-3.58-1.14.13-.12.29-.24.48-.36.08-.12.2-.24.36-.37-.52.19-.84.3-.84.3-.51-.16-.56-.5-.31-1.02" fill="url(#o)"/><path d="m35.75 36.84c-.2.88-1.23 3.62-1.73 5.68.75-.29 1.44-.62 2.07-1.01 0 0 0-.01-.01-.02v-.02h-.01c-.19-.3-.34-.59-.41-.86v-.03s-.01 0-.01 0c-.19-.51-.29-1.04-.29-1.56 0-.35.05-.7.14-1.04v-.02s.26-1.12.26-1.12" fill="url(#y)"/><path d="m33.93 44.93c.34.35 1.35.54 2.58.63-.4-.12-1.28-.37-2.58-.63" fill="url(#L)"/><path d="m37.39 43.08c-.26.14-.48.27-.66.41.23-.08.5-.18.8-.29-.05-.04-.09-.08-.13-.12" fill="url(#M)"/><path d="m36.24 41.75c-.3.39-.53.74-.67 1.03.41-.11.81-.23 1.19-.35-.09-.11-.19-.22-.27-.34v-.02c-.09-.11-.17-.21-.24-.32" fill="url(#o)"/><path d="m36.76 42.43c-.38.12-.77.24-1.19.35-.25.52-.2.86.31 1.02 0 0 .33-.12.84-.3.18-.14.4-.27.66-.41-.23-.21-.44-.43-.63-.65" fill="url(#G)"/><path d="m46.3 45.22.07-.02zm-10.71-6.98c-.09 1.89.56 3.27.81 3.71s.07.13.07.13c-.14-.19-.28-.39-.39-.58v-.02h-.01v.02s.02.01.02.02c.02.03.03.06.05.08.03.05.07.11.1.16.07.11.15.22.23.32v.02c.1.11.19.23.28.34.19.22.4.44.63.65.04.04.09.08.13.12 0 0 .02.01.02.02.04.04.08.07.12.1.22.19.45.37.7.53.76.52 1.63.94 2.59 1.25.33.11.67.19 1 .26.05.01.11.02.16.03s0 0 0 0c.61.12 1.21.17 1.79.17.84 0 1.64-.12 2.36-.34h.03s.07-.03.07-.03c.45-.14.86-.33 1.24-.56-.38.22-.79.41-1.24.56.19-.07.64-.25 1.16-.62.63-.44 1.36-1.15 1.9-2.24h-.03s-.13-.05-.13-.05h-.03c-1.09 1.09-2.82 1.7-4.77 1.7-.97 0-1.99-.15-3.02-.48-.99-.31-1.89-.76-2.67-1.29s0 0 0 0-.11-.08-.23-.17l-.18-.13c-.56-.43-1.04-.91-1.43-1.42-.5-.62-.95-1.37-1.14-2.21h-.02s-.19-.06-.19-.06" fill="url(#O)"/><path d="m49.67 41.78-.14.18c-.09.12-.18.23-.29.33h.03s.13.05.13.05h.03s.02-.04.02-.04c.08-.16.15-.33.22-.51m-13.96-4.6c-.02.11-.04.21-.05.31v.05c-.04.24-.06.47-.07.69l.19.06h.02c-.06-.28-.1-.58-.1-.89v-.2s0 0 0 0" fill="url(#P)"/><path d="m41.69 32.73c-.1 0-.2 0-.3 0-.53.02-1.05.08-1.53.19-.07.03-1.66.59-2.86 1.84-.27.36-.53.8-.69 1.31-.05.17-.09.34-.12.52l-.02.14c-.06.59 0 1.17.16 1.71.57 2.08 2.3 3.64 2.45 3.77-.03-.02-.11-.07-.23-.17-.35-.26-1.01-.8-1.61-1.55.39.51.88.99 1.43 1.42l.18.13c.12.09.2.15.23.17s0 0 0 0c.78.54 1.67.98 2.67 1.29 1.02.32 2.05.48 3.02.48 1.95 0 3.68-.62 4.77-1.71.1-.1.2-.21.29-.32s.14-.19.14-.19l.02-.05.02-.07c.1-.28.19-.58.26-.9l.04-.22c.31-1.7-.17-3.08-.75-4.05-.48-.8-1.02-1.32-1.23-1.5l-.09-.08c-.49-.4-1.05-.76-1.66-1.07.23.16.35.3.34.38-.05.32-.56.45-.92 1.23-.02.04-.04.1-.05.16.06.04.21.15.41.3.69.5 1.22 1.11 1.54 1.75.33.61.5 1.32.26 2.07-.35 1.11-1.09 1.7-1.87 2 .5 1.11 2 1.58.23 2-.39.09-.84.13-1.32.13-1.75 0-3.8-.52-3.92-.75-.08-.14.23-.8.55-1.64-1.96-.79-3.26-2.37-3.26-3.88 0-.17.02-.34.05-.51l.07-.26c.4-1.26 1.72-2.05 3.35-2.16-.1-1.03-.12-1.81.11-1.85.21-.03.41-.05.62-.05-.13-.01-.25-.02-.38-.02s-.26 0-.39 0" fill="url(#R)"/><path d="m44.32 32.98s0 .07 0 .11c.13.04.26.07.39.11.55.17 1.08.39 1.57.64-.39-.28-1.1-.64-1.96-.86" fill="#fff"/><path d="m44.07 32.92s0 .07.01.11c.08.02.16.04.24.06 0-.04 0-.07 0-.11-.08-.02-.17-.04-.25-.06" fill="url(#S)"/><path d="m42.51 32.76s-.04 0-.06 0h.05" fill="url(#u)"/><path d="m42.64 32.76s-.09 0-.13 0c.52.04 1.04.13 1.58.26 0-.04 0-.07-.01-.11-.45-.1-.93-.16-1.43-.16" fill="url(#T)"/><path d="m41.52 41.48c-.32.84-.63 1.5-.55 1.64.12.23 2.17.75 3.92.75.48 0 .93-.04 1.32-.13 1.77-.43.27-.89-.23-2-.6.23-1.22.29-1.7.29s-.81-.06-.84-.06c-.46-.04-.93-.14-1.4-.29-.18-.06-.35-.12-.52-.19m.94-8.73c-.2 0-.41.02-.62.05-.23.03-.21.82-.11 1.85.14 0 .28-.01.42-.01.64 0 1.33.1 2.01.32.5.16.97.37 1.39.61h.07s.01 0 .03.02c.02-.06.03-.11.05-.16.36-.78.87-.91.92-1.23.01-.08-.11-.22-.34-.38-.49-.25-1.02-.46-1.57-.64-.13-.04-.26-.08-.39-.11-.08-.02-.16-.04-.24-.06-.53-.13-1.06-.22-1.58-.26-.02 0-.04 0-.05 0" fill="url(#V)"/><path d="m46.06 35.91c.44.35 1.12.98 1.54 1.75-.32-.65-.85-1.25-1.54-1.75m-3.91-1.26c-.14 0-.28 0-.42.01-1.63.12-2.95.9-3.35 2.16l-.07.26c.53-1.22 1.97-1.93 3.68-1.93.64 0 1.32.1 2.01.32.9.28 1.68.73 2.29 1.26-.54-.74-1.05-1.15-.77-1.15h.03c-.42-.25-.89-.46-1.39-.61-.68-.22-1.36-.32-2.01-.32" fill="url(#X)"/><path d="m42.04 41.67c-2.49-.79-4.09-2.79-3.73-4.58.73-1.68 3.2-2.4 5.68-1.61 2.49.79 4.09 2.8 3.73 4.58-.73 1.68-3.2 2.4-5.68 1.61" fill="#f7921e"/><path d="m43.52 32.98c1.59.26-1.21 2.43-2.41-.11 0 0 1.13-.1 2.41.11z" fill="#fff"/><path d="m36.86 34.51c-.05.05-.09.1-.14.16l.13-.15" fill="url(#Y)"/><path d="m35.8 38.3c.19.84.64 1.6 1.14 2.21l-.16-.22c-.45-.63-.77-1.3-.93-1.98l-.05-.02" fill="url(#aa)"/><path d="m35.73 37.09s-.02.11-.02.11 0 .21 0 .21c0 .31.03.6.1.89l.05.02c-.08-.32-.12-.64-.12-.96v-.26s0 0 0 0" fill="url(#ab)"/><path d="m37 34.77c-.34.36-.66.77-.89 1.24-.17.33-.29.69-.37 1.07s0 .26 0 .26c0 .32.04.64.12.96.16.68.48 1.35.93 1.98l.16.22c.6.74 1.26 1.29 1.61 1.55.12.09.2.15.23.17-.14-.13-1.88-1.69-2.45-3.77-.15-.54-.22-1.12-.16-1.71l.02-.14c.03-.18.07-.35.12-.52.16-.51.41-.95.69-1.31" fill="url(#ac)"/><path d="m40.38 34.94s-3.17 1.75-1.55 4.44c0 0-2.12-3.06 1.55-4.44z" fill="#fee00e"/><path d="m47.6 37.67c.35.7.44 1.44.22 2.14l-.09.25c-.31.72-.95 1.27-1.77 1.59.01.03.02.06.04.08.78-.3 1.52-.88 1.87-2 .24-.75.07-1.45-.26-2.07m-1.96-2.05s0 .02 0 .03c.14.09.28.18.41.28-.19-.16-.34-.26-.41-.3" fill="url(#ae)"/><path d="m45.95 41.65c-.56.22-1.21.34-1.9.34-.2 0-.4 0-.61-.03.03 0 .36.06.84.06s1.1-.06 1.7-.29c-.01-.03-.02-.06-.04-.08m-.39-6.07s.06.04.09.06c0 0 0-.02 0-.03-.02-.01-.03-.02-.03-.02-.03 0-.05 0-.07 0" fill="url(#ag)"/><path d="m45.52 35.58c-.28 0 .23.41.77 1.15 1.09.95 1.67 2.18 1.43 3.33-.53 1.22-1.97 1.93-3.67 1.93-.2 0-.4 0-.61-.03.2.02.41.03.61.03.69 0 1.34-.12 1.9-.34.82-.32 1.46-.87 1.77-1.59l.09-.25c.22-.7.12-1.44-.22-2.14-.42-.78-1.09-1.4-1.54-1.75-.13-.1-.27-.19-.41-.28-.03-.02-.06-.04-.09-.06-.01 0-.02 0-.03 0" fill="url(#ai)"/><path d="m46.29 36.73c.45.61.91 1.44.96 2.44.12 2.33-3.81 2.78-3.81 2.78.2.02.41.03.61.03 1.7 0 3.15-.71 3.67-1.93.24-1.14-.34-2.38-1.43-3.33" fill="#e46525"/><path d="m46.37 45.2-.07.02z" fill="url(#ak)"/><path d="m49.53 42.37c-.33.96-1.01 1.73-1.93 2.27.91-.55 1.6-1.32 1.93-2.27m0 0s0 0 0 0zm-1.49-7.37c1.41 1.17 2.29 2.66 2.39 4.13s0 .27 0 .27v.14s0-.04 0-.04v-.1s-.01-.26-.01-.26c-.1-1.49-.98-2.97-2.39-4.14" fill="#db616d"/><path d="m49.43 42.34c-.53 1.09-1.27 1.8-1.9 2.24-.53.37-.97.55-1.16.62.45-.15.86-.33 1.24-.56.91-.55 1.6-1.32 1.93-2.27s0 0 0 0l-.1-.03" fill="url(#al)"/><path d="m49.99 41.27c-.09.17-.19.34-.31.49v.02c-.08.18-.15.35-.23.51l-.02.05.1.03s0 0 0 0z" fill="url(#am)"/><path d="m48.04 35c.21.19.75.7 1.23 1.5.57.96 1.06 2.34.75 4.05l-.04.22c-.07.32-.16.62-.26.9l-.02.07-.02.05v-.02c.13-.16.23-.32.32-.49.11-.2.19-.42.26-.64.07-.23.12-.47.15-.7l.02-.14v-.24s.02-.14.02-.14v-.26s-.01-.01-.01-.01c-.1-1.48-.98-2.96-2.39-4.13" fill="url(#ao)"/><path d="m36.72 34.67c-.33.38-.6.81-.77 1.29s0 .02 0 .02l-.04.11c-.08.24-.13.49-.16.74.03-.25.08-.5.16-.74l.04-.11v-.02s0 0 0 0c.17-.48.43-.91.77-1.29z" fill="url(#ap)"/><path d="m35.65 40.61c.08.27.23.56.41.86-.17-.28-.3-.57-.41-.86" fill="url(#aq)"/><path d="m35.49 37.98c-.09.34-.14.69-.14 1.04 0 .52.1 1.05.29 1.56s0 .03 0 .03c.11.29.25.58.41.86v.02c.13.2.26.39.41.58l-.07-.12c-.24-.45-.9-1.83-.81-3.72l-.09-.03-.06-.02.05-.21" fill="url(#al)"/><path d="m35.75 36.84-.26 1.12v.02s-.05.21-.05.21l.06.02.09.03c.01-.22.03-.45.06-.69v-.05c.02-.1.04-.2.06-.3 0-.12.02-.22.04-.33zm.2-.88v.02s0-.02 0-.02z" fill="url(#ar)"/><path d="m36.72 34.67c-.33.38-.6.81-.77 1.29s0 .02 0 .02l-.04.11c-.08.24-.13.49-.16.74v.03s0-.05 0-.05v-.04c.04-.16.07-.31.11-.46.03-.13.07-.24.11-.35.19-.53.46-.96.74-1.3m3.14-1.73c-.52.12-1.01.28-1.46.5s.02-.01.02-.01c.03 0-.76.48-1.42 1.36 1.2-1.25 2.78-1.82 2.86-1.84" fill="url(#ao)"/><path d="m38.39 33.43h-.01c-.13.05-.83.34-1.49 1.06l-.03.03-.13.15s0 0 0 0l.13-.15.03-.03c.41-.42.92-.78 1.49-1.05h.01" fill="url(#as)"/><path d="m35.75 36.87c-.02.11-.03.22-.04.32l.02-.1s.02-.22.02-.22" fill="url(#au)"/><path d="m38.42 33.42s0 0-.02 0-.01 0-.01 0c-.58.28-1.08.63-1.49 1.05l-.03.03-.13.15s0 0 0 0c-.28.34-.55.77-.74 1.3-.04.11-.08.22-.11.34-.04.15-.08.3-.11.46v.04s-.01.05-.01.05l-.02.22c.08-.39.21-.75.37-1.07.24-.47.55-.89.89-1.24.66-.88 1.45-1.36 1.42-1.36" fill="url(#aw)"/><path d="m43.44 43.8c-1.7-.53 2.63-2.04 3.77-2.02 1.15.02.82 1.23 0 1.68s-2.92.61-3.77.35z" fill="#fff"/><path d="m35.49 17.77s0 0 0 0m-.74 1.04.04-.05zm1.19-3.27c-.22.2-.47.38-.73.54-.74 1.32-2.09 2.5-3.82 3.25-.63.34-1.36.6-2.2.68-.65.13-1.3.19-1.92.19-.16 0-.32 0-.48-.01s0 0 0 0-.13 0-.28-.02l-.22-.02c-.35-.04-.69-.1-1.02-.17-.27.31-.59.59-.94.84-.05.03-.1.07-.15.1 0 0 .01 0 .02.01.66.1 1.33.17 2.01.2.1 0 .2 0 .29.01h.51c1 0 2.02-.09 3.06-.27 1.18-.21 2.25-.56 3.21-1 .3-.14.6-.29.88-.45.01-.01.03-.03.04-.04.03-.02.05-.05.08-.08.16-.16.32-.32.46-.48l.02-.02.05-.05c.27-.32.5-.65.7-.99-.19.34-.43.68-.7.99.13-.16.41-.54.67-1.13.23-.54.44-1.25.47-2.09" fill="url(#ax)"/><path d="m21.82 18.5-.07-.2v-.02l-.37-1.09-.01-.02-.16-.49v-.01l-.11-.31-.01-.02.03-.01.13-.03.21-.05.28-.07 8.36-2 5.04-1.21.33-.08.24-.06h.01l.11.68.19 1.18-.01.01-.1.02-.03.01-.13.04-.07.01-.01.01-3.53.94-9.42 2.53-.49.13-.05.02h-.02l-.19.05-.09.03z" fill="url(#ay)"/><path d="m25.86 19.04c-.13.27-.29.53-.47.77.73.26 1.3.36 1.39.38-.03 0-.13 0-.28-.02-.27-.03-.72-.08-1.23-.2.33.08.67.13 1.02.17l.22.02c.15.01.25.02.28.02s0 0 0 0c.16 0 .32.01.48.01.62 0 1.27-.06 1.92-.19 0 0 0 0-.01 0-.29.03-.56.04-.8.04-1.77 0-2.33-.64-2.51-1.02m9.33-2.94s-.06.04-.09.05c-.29.17-.61.32-.95.45.32.15.37.38-.26 1.01-.39.39-.94.76-1.54 1.08-.29.24-.62.46-.98.66 1.73-.76 3.08-1.93 3.82-3.25" fill="url(#aA)"/><path d="m34.16 16.58s-.02 0-.03 0c-.07.14-.67 1.18-1.78 2.08.59-.32 1.15-.69 1.54-1.08.63-.63.59-.86.26-1.01" fill="url(#aC)"/><path d="m29.26 18.01c-2.53.63-4.95-.24-5.57-1.96l-.08-.25c-.47-1.88 1.3-3.95 3.95-4.61s5.18.33 5.65 2.21l.05.26c.26 1.81-1.47 3.71-4 4.34" fill="url(#aD)"/><path d="m29.26 18.01c-2.53.63-4.95-.24-5.57-1.96-.26-1.81 1.47-3.72 4-4.35s4.95.24 5.57 1.96c.26 1.81-1.47 3.71-4 4.34" fill="#f7921e"/><path d="m25.98 9.84c.67-.27.78.24.5.75-.35.63-1.31 1.27-2.61.42 0 0 .91-.68 2.11-1.17" fill="#fff"/><path d="m25.39 19.81c-.04.05-.09.11-.13.16.52.12.96.18 1.23.2.15.01.25.02.28.02-.09-.02-.65-.12-1.39-.38" fill="url(#aE)"/><path d="m24.33 13.15s-1.79 3.15 1 4.59c0 0-3.41-1.5-1-4.59" fill="#fee00e"/><path d="m34.8 18.76-.05.05z" fill="url(#aF)"/><path d="m35.49 17.77s0 0 0 0m.61-2.39c.03.81-.19 1.62-.61 2.38.43-.76.65-1.58.61-2.38" fill="url(#aG)"/><path d="m36.1 15.38c-.05.05-.11.11-.17.16-.03.84-.24 1.55-.47 2.08-.26.59-.54.98-.67 1.14.27-.32.5-.65.7-.99s0 0 0 0c.43-.76.64-1.58.61-2.38" fill="url(#aH)"/><path d="m24.16 20.92s0 0-.01 0h.03s-.01 0-.02-.01" fill="url(#aI)"/><path d="m9.05 10.65c.03 1.11.31 2.03.59 2.68.54.5 1.26 1.12 2.12 1.8 0-.02 0-.04.01-.05v-.02s.16-1.06.16-1.06c-.52-.36-.97-.76-1.36-1.19-.54-.58-1.05-1.29-1.3-2.12h-.02s-.19-.04-.19-.04" fill="url(#aJ)"/><path d="m9.09 9.61c-.01.1-.02.2-.03.3v.05c-.02.24-.02.47-.01.69l.19.04h.02c-.09-.28-.14-.57-.16-.88v-.2" fill="url(#aK)"/><path d="m10.56 12.81c.39.43.85.83 1.36 1.19-.38-.28-.88-.68-1.36-1.19zm8.81-7.35c.24.15.37.28.37.35-.02.32-.52.49-.82 1.29-.02.04-.03.1-.04.16.07.04.22.13.43.27.73.45 1.3 1.01 1.67 1.63.09.14.17.29.24.45.71-.4 1.32-.71 1.69-.88.03-.03.07-.06.1-.09-.14-.28-.3-.53-.46-.76-.54-.76-1.11-1.24-1.34-1.41l-.1-.07c-.52-.36-1.11-.68-1.74-.94m-3.94-.79c-.9 0-1.76.13-2.54.36-.07.03-1.61.72-2.71 2.06-.24.38-.47.84-.58 1.36-.04.17-.06.35-.08.53v.15c-.02.6.09 1.16.28 1.69.49 1.37 1.49 2.46 2.13 3.06.01-.24.04-.47.1-.71l.03-.12v-.02s0 0 0 0c.12-.43.31-.82.55-1.19-.36-.39-.62-.81-.79-1.25-.36-.9-.49-2.26 1.17-3.3.52-.34 1.17-.57 1.89-.68-.18-1.02-.26-1.8-.03-1.85.2-.05.41-.08.61-.1-.01 0-.03 0-.04 0" fill="url(#aL)"/><path d="m16.13 4.63c-.22 0-.44.01-.66.04.74 0 1.51.09 2.28.27.57.13 1.11.31 1.61.52-.59-.36-1.84-.82-3.24-.82" fill="#fff"/><path d="m15.47 4.67c-.2.02-.41.06-.61.1-.22.05-.14.83.03 1.85.29-.04.59-.06.89-.06.5 0 1.02.06 1.55.18.51.12 1 .29 1.43.51h.07s.01 0 .03.02c.01-.06.03-.12.04-.16.3-.81.8-.97.82-1.29 0-.08-.13-.21-.37-.35-.51-.21-1.05-.39-1.61-.52-.78-.18-1.54-.27-2.28-.27" fill="url(#aM)"/><path d="m19.31 7.53c.47.32 1.19.89 1.67 1.63-.37-.62-.94-1.18-1.67-1.63m-3.52-.98c-.31 0-.61.02-.89.06-.72.11-1.36.34-1.89.68.17-.1.35-.2.56-.3 0 0-.76.5-1.29 1.31.75-.78 1.99-1.24 3.39-1.24.5 0 1.02.06 1.55.18.92.21 1.73.59 2.38 1.08-.61-.72-1.17-1.09-.83-1.09-.44-.21-.92-.39-1.43-.51-.53-.12-1.05-.18-1.55-.18" fill="url(#aN)"/><path d="m15.74 13.58c-2.54-.59-4.3-2.47-4.07-4.28.6-1.73 3-2.64 5.54-2.04 2.54.59 4.3 2.47 4.07 4.29-.6 1.73-3 2.63-5.54 2.04" fill="#f7921e"/><path d="m16.55 4.8c1.6.14-1.02 2.51-2.41.08 0 0 1.12-.19 2.41-.08z" fill="#fff"/><path d="m10.03 6.84c-.04.05-.08.11-.12.17l.12-.16" fill="#fff"/><path d="m9.26 10.69c.25.83.76 1.54 1.3 2.12l-.18-.2c-.5-.59-.86-1.24-1.08-1.9h-.05" fill="url(#aO)"/><path d="m9.1 9.49s-.01.11-.01.11 0 .21 0 .21c.02.31.08.6.16.88h.05c-.1-.3-.16-.62-.19-.94l-.02-.26" fill="url(#aP)"/><path d="m10.18 7.08c-.32.38-.6.82-.79 1.31-.14.34-.24.71-.29 1.1s.02.26.02.26c.03.32.09.64.19.95.21.67.58 1.31 1.08 1.9l.18.2c.48.51.98.91 1.36 1.18v-.07s.01-.03.01-.05c-.65-.6-1.65-1.7-2.13-3.06-.19-.53-.3-1.1-.29-1.69v-.15c.02-.18.04-.36.08-.53.12-.52.34-.98.58-1.36" fill="url(#aQ)"/><path d="m13.57 6.99s-3.03 1.98-1.2 4.55c0 0-2.35-2.89 1.2-4.55" fill="#fee00e"/><path d="m20.97 9.16c.09.15.17.3.23.46h.02c-.07-.16-.15-.31-.24-.45m-2.1-1.91s0 .02 0 .03c.15.08.3.16.43.24-.21-.14-.36-.23-.43-.27" fill="url(#aR)"/><path d="m18.77 7.24s.07.03.1.05c0 0 0-.02 0-.03-.02-.01-.03-.02-.03-.02-.03 0-.05 0-.07 0" fill="url(#aT)"/><path d="m18.77 7.24c-.34 0 .22.37.83 1.09.49.36.88.78 1.17 1.22.13.03.25.07.36.11.02-.01.04-.02.06-.04-.06-.16-.14-.31-.23-.46-.48-.74-1.2-1.31-1.67-1.63-.14-.09-.28-.17-.43-.24-.03-.02-.07-.03-.1-.05" fill="url(#aU)"/><path d="m19.6 8.33c.27.31.54.69.76 1.12.14.03.28.06.41.1-.29-.45-.69-.86-1.17-1.22" fill="#e46525"/><path d="m21.21 6.47c.23.17.81.64 1.34 1.41.16.23.32.48.46.76.05-.05.11-.1.17-.15-.47-.75-1.14-1.44-1.97-2.02" fill="url(#aW)"/><path d="m12.89 5.03c-.51.16-.99.36-1.42.61s.02-.01.02-.01c.03 0-.72.54-1.32 1.46 1.1-1.34 2.64-2.02 2.71-2.06" fill="url(#aX)"/><path d="m9.26 8.26s-.02.06-.03.09 0 .02 0 .02l-.03.12c-.06.25-.09.5-.1.75l-.07.49.07-.49c0-.25.04-.5.1-.75l.03-.12v-.02s0 0 0 0 .02-.06.03-.09" fill="url(#aY)"/><path d="m8.93 10.4c-.05.25-.07.5-.07.74 0 .62.15 1.24.42 1.84s.01.03.01.03c.1.1.22.2.34.32-.28-.65-.55-1.57-.59-2.68l-.09-.02h-.06s.03-.23.03-.23" fill="url(#aZ)"/><path d="m9.1 9.25-.07.49-.1.65v.02s-.03.22-.03.22h.06s.09.03.09.03c0-.22 0-.45.01-.69v-.05c.01-.1.02-.2.03-.3 0-.12 0-.22.01-.33v-.03m.13-.91v.02s0-.02 0-.02z" fill="url(#a0)"/><path d="m9.9 7.01c-.28.38-.5.8-.64 1.26 0 .03-.02.06-.03.09s0 .02 0 .02l-.03.12c-.06.25-.09.5-.1.75v.03-.05s0-.04 0-.04c.02-.16.04-.32.07-.46.02-.13.05-.24.08-.35.15-.54.38-.99.64-1.36" fill="url(#a1)"/><path d="m11.47 5.64c-.12.06-.81.4-1.41 1.17l-.03.03-.12.16s0 0 0 0l.12-.16.03-.03c.38-.45.86-.84 1.41-1.16" fill="#db616d"/><path d="m9.1 9.27c-.01.11-.01.22-.01.33s0 0 0 0v-.1s.01 0 .01 0v-.22" fill="url(#a2)"/><path d="m11.5 5.62s0 0-.02 0 0 0 0 0c-.55.32-1.03.71-1.41 1.16l-.03.03-.12.16s0 0 0 0c-.26.36-.49.81-.64 1.36-.03.11-.06.23-.08.35-.03.15-.05.31-.07.47v.04s0 .05 0 .05v.22c.05-.39.15-.76.29-1.1.2-.49.48-.93.79-1.31.59-.92 1.34-1.46 1.32-1.46" fill="url(#a4)"/><path d="m24.31 20.82c-.05.04-.11.07-.16.11s0 0 .01 0c.05-.03.1-.07.15-.1m1.47-2.07s-.18.04-.5.08c-.94.81-2.25 1.34-3.73 1.51.81.23 1.64.43 2.49.56.07-.05.15-.11.23-.18.51-.42 1.08-1.04 1.51-1.92 0-.04 0-.06 0-.06m-13.73-3.39s.04.03.05.04c0-.01 0-.02-.01-.03h-.02s-.02 0-.02 0" fill="url(#a5)"/><path d="m11.92 14.28c-.01.1-.02.2-.03.3v.05c-.02.2-.02.4-.02.6.06.04.11.09.17.13h.02s.02 0 .02 0c-.09-.28-.14-.58-.16-.88zm.15-1.25s0 0 0 0" fill="url(#a6)"/><path d="m25.28 18.84c-.4.05-1.01.11-1.73.11-.07 0-.14 0-.22 0 .45.42.66.69-.44 1.05-.48.16-1.08.23-1.69.25.12.04.23.07.35.1 1.48-.17 2.79-.71 3.73-1.51m-7.01-9.5c-.9 0-1.76.13-2.54.36-.07.03-1.61.72-2.71 2.06-.24.38-.47.84-.58 1.36-.04.17-.06.35-.08.53v.15c-.02.6.09 1.16.28 1.69.05.15.12.3.18.45.42.3.86.61 1.33.92.09.06.19.12.28.18 1.02.65 2.14 1.3 3.35 1.87.07-.24.16-.51.25-.81-2.11-.67-3.55-2.24-3.55-3.82 0-.11 0-.21.02-.32l.05-.26c.3-1.29 1.56-2.17 3.18-2.41-.06-.37-.12-.71-.15-1-.22-.17-.42-.41-.61-.74 0 0 .26-.04.66-.08.02-.02.04-.03.06-.04.2-.05.41-.08.61-.1-.01 0-.03 0-.04 0" fill="url(#a7)"/><path d="m18.97 9.31c-.22 0-.44.01-.66.04.68 0 1.39.08 2.11.23-.02-.04-.04-.08-.06-.12-.43-.09-.9-.15-1.39-.15" fill="#faa61a"/><path d="m20.77 9.55s.05.08.08.13c.06.02.11.03.17.05.04-.02.08-.04.11-.07-.12-.04-.24-.07-.36-.11" fill="url(#a8)"/><path d="m20.36 9.45s.04.08.06.12c.06.01.11.03.17.04.09.02.18.04.26.06-.03-.04-.05-.09-.08-.13-.13-.04-.27-.07-.41-.1" fill="#e97d23"/><path d="m18.04 18.1c-.09.3-.17.57-.25.81.58.28 1.19.54 1.81.78.52.2 1.05.39 1.6.56.62-.02 1.21-.1 1.69-.25 1.1-.36.89-.63.44-1.05-.96-.02-2.1-.14-3.2-.5-.08 0-.12 0-.13 0-.46 0-.94-.07-1.42-.18-.18-.04-.36-.09-.53-.15m.26-8.78c-.2.02-.41.06-.61.1-.02 0-.04.02-.06.04.25-.02.57-.04.91-.04.26 0 .54 0 .83.03 1.06.09.26 1.17-.8 1.17-.32 0-.67-.1-1-.36.03.29.08.63.15 1 .29-.04.59-.06.89-.06h.18c.72-.58 1.51-1.09 2.22-1.51-.06-.02-.11-.03-.17-.05-.09-.02-.17-.04-.26-.06-.06-.01-.11-.03-.17-.04-.72-.15-1.43-.23-2.11-.23" fill="url(#a9)"/><path d="m18.63 11.23c-.31 0-.61.02-.89.06-1.61.24-2.88 1.13-3.18 2.41l-.05.26c.45-1.29 1.91-2.13 3.69-2.22.19-.18.4-.35.61-.52-.06 0-.12 0-.18 0" fill="url(#ba)"/><path d="m18.58 18.25c-2.54-.59-4.3-2.47-4.07-4.28.6-1.73 3-2.64 5.54-2.04 2.54.59 4.3 2.47 4.07 4.29-.6 1.73-3 2.63-5.54 2.04" fill="#f7921e"/><path d="m19.39 9.48c1.6.14-1.02 2.51-2.41.08 0 0 1.12-.19 2.41-.08" fill="#fff"/><path d="m12.86 11.51c-.04.05-.08.11-.12.17l.12-.16" fill="#faa61a"/><path d="m12.09 15.37s0 .02.01.03c.02.02.04.03.06.05 0-.02-.02-.05-.02-.07h-.05" fill="url(#bb)"/><path d="m11.94 14.17s-.01.11-.01.11 0 .21 0 .21c.02.31.08.6.16.88h.05c-.1-.3-.16-.62-.19-.94l-.02-.26" fill="url(#bc)"/><path d="m13.02 11.76c-.32.38-.6.82-.79 1.31-.14.34-.24.71-.29 1.1s.02.26.02.26c.03.32.09.64.19.95s.01.05.02.07c.21.16.43.32.66.49-.07-.15-.13-.3-.18-.45-.19-.53-.3-1.1-.29-1.69v-.15c.02-.18.04-.36.08-.53.12-.52.34-.98.58-1.36z" fill="url(#bd)"/><path d="m16.41 11.67s-3.03 1.98-1.2 4.55c0 0-2.35-2.89 1.2-4.55z" fill="#fee00e"/><path d="m19.99 18.43s.06 0 .13 0c0 0-.02 0-.03 0-.04 0-.07 0-.11 0" fill="url(#be)"/><path d="m20.06 18.42s-.07.01-.07.01h.11c-.02 0-.03-.01-.05-.02" fill="#e46525"/><path d="m25.25 19.98c-.27.31-.58.59-.94.84.36-.25.67-.53.94-.84z" fill="url(#bf)"/><path d="m25.26 19.97s0 0 0 0zm.6-.93c-.13.27-.29.53-.47.77.19-.24.35-.5.47-.77z" fill="url(#bg)"/><path d="m25.39 19.81c-.04.05-.09.11-.13.16.04-.05.09-.11.13-.16z" fill="url(#bh)"/><path d="m25.79 18.82c-.43.88-1 1.49-1.51 1.91-.08.07-.15.13-.23.18.03 0 .07.01.1.02.05-.04.11-.07.16-.11.36-.25.67-.53.94-.84.04-.05.09-.11.13-.16.19-.24.35-.5.47-.77-.04-.09-.06-.17-.07-.22" fill="url(#bi)"/><path d="m15.73 9.7c-.51.16-.99.36-1.42.61s.02-.01.02-.01c.03 0-.72.54-1.32 1.46 1.1-1.34 2.64-2.02 2.71-2.06" fill="url(#bj)"/><path d="m11.76 15.07s0 .04-.01.05v-.06" fill="url(#bk)"/><path d="m11.94 13.92v.07s-.17 1.07-.17 1.07v.02s-.01.06-.01.06c.04.03.08.06.12.1 0-.19 0-.39.01-.6v-.05c.01-.1.02-.2.03-.3 0-.12 0-.22.01-.33v-.03m.14-.9v.02s0-.02 0-.02z" fill="url(#bl)"/><path d="m12.74 11.68c-.3.41-.53.86-.67 1.35v.02s-.03.12-.03.12c-.05.23-.09.47-.1.71v.05.03-.05s0-.04 0-.04c.02-.16.04-.32.07-.46.02-.13.05-.24.08-.35.15-.54.38-.99.64-1.36" fill="url(#bm)"/><path d="m14.31 10.31c-.12.06-.81.4-1.41 1.17l-.03.03-.12.16s0 0 0 0l.12-.16.03-.03c.38-.45.86-.84 1.41-1.16" fill="#db4b27"/><path d="m11.94 13.95c-.01.11-.01.22-.01.33s0 0 0 0v-.1s.01 0 .01 0v-.22" fill="url(#bn)"/><path d="m14.33 10.3s0 0-.02 0 0 0 0 0c-.55.32-1.03.71-1.41 1.16l-.03.03-.12.16s0 0 0 0c-.26.36-.49.81-.64 1.36-.03.11-.06.23-.08.35-.03.15-.05.31-.07.47v.04s0 .05 0 .05v.22c.05-.39.15-.76.29-1.1.2-.49.48-.93.79-1.31.59-.92 1.34-1.46 1.32-1.46" fill="url(#bo)"/><path d="m22.9 10.38c-.02.27 0 .53.05.75-.03-.21-.05-.43-.05-.64 0-.04 0-.07 0-.11m.21-1.22c-.02.1-.05.2-.07.31 0 0 0 0 0-.01v-.02s.07-.28.07-.28m.17-.76s-.07.06-.11.09c-.06.05-.11.1-.17.15-.03.03-.07.06-.1.09.16-.08.28-.13.33-.15l.04-.18" fill="url(#bp)"/><path d="m29.26 15.12c-2.53.63-4.95-.24-5.57-1.96l-.08-.25c-.47-1.88 1.3-3.95 3.95-4.61s5.18.33 5.65 2.21l.05.26c.26 1.81-1.47 3.71-4 4.34" fill="url(#bq)"/><path d="m29.26 15.12c-2.53.63-4.95-.24-5.57-1.96-.26-1.81 1.47-3.72 4-4.35s4.95.24 5.57 1.96c.26 1.81-1.47 3.71-4 4.34" fill="#f7921e"/><path d="m25.98 6.94c.67-.27.78.24.5.75-.35.63-1.31 1.27-2.61.42 0 0 .91-.68 2.11-1.17" fill="#fff"/><path d="m24.32 10.25s-1.79 3.15 1 4.59c0 0-3.41-1.5-1-4.59" fill="#fee00e"/><path d="m35.11 16.14c-.3.18-.63.33-.98.45h.03c.34-.12.66-.27.95-.45m-11.97-6.43c-.03.64.03 1.23.12 1.74.71.67 2.64 2.32 5.39 3.48 3.53 1.49 5.49 1.65 5.49 1.65.23-.1.56-.27.93-.53.63-.44 1.36-1.15 1.9-2.24h-.03s-.13-.05-.13-.05h-.03c-1.09 1.09-2.82 1.7-4.77 1.7-.97 0-1.99-.15-3.02-.48-.99-.31-1.89-.76-2.67-1.29s0 0 0 0-.11-.08-.23-.17l-.18-.13c-.56-.43-1.04-.91-1.43-1.42-.5-.62-.95-1.37-1.14-2.21h-.02s-.19-.06-.19-.06" fill="url(#br)"/><path d="m37.22 13.25-.14.18c-.09.12-.18.23-.28.33h.03s.13.05.13.05h.03s.02-.04.02-.04c.08-.16.15-.33.22-.51m-13.97-4.6c-.02.11-.04.21-.05.31v.05c-.04.24-.06.47-.07.69l.19.06h.02c-.06-.28-.1-.58-.1-.89v-.2s0 0 0 0m.25-1.25s0 0 0 0" fill="url(#bs)"/><path d="m29.24 4.2c-.64 0-1.26.07-1.83.2-.07.03-1.66.59-2.86 1.84-.27.36-.53.8-.69 1.31-.05.17-.09.34-.12.52l-.02.14c-.06.59 0 1.17.16 1.71.57 2.08 2.3 3.64 2.45 3.77-.03-.02-.11-.07-.23-.17-.35-.26-1.01-.8-1.61-1.55.39.51.88.99 1.43 1.42l.18.13c.12.09.2.15.23.17s0 0 0 0c.78.54 1.67.98 2.67 1.29 1.02.32 2.05.48 3.02.48 1.95 0 3.68-.62 4.77-1.71.1-.1.2-.21.28-.32s.14-.19.14-.19l.02-.05.02-.07c.1-.28.19-.58.26-.9l.04-.22c.31-1.7-.17-3.08-.75-4.05-.48-.8-1.02-1.32-1.23-1.5l-.09-.08c-.49-.4-1.05-.76-1.66-1.07.23.16.35.3.34.38-.05.32-.56.45-.92 1.23-.02.04-.04.1-.05.16.06.04.21.15.41.3.69.5 1.22 1.11 1.54 1.75.33.61.5 1.32.26 2.07-.35 1.11-1.09 1.7-1.87 2 .02.05.05.1.08.15.47-.23.94-.39 1.28-.41h.13c1.14 0 .89.94.65 1.34-.11.19-.58.44-1.19.65-.13.09-.35.18-.71.27-.39.09-.84.13-1.32.13-1.75 0-3.8-.52-3.92-.75-.08-.14.23-.8.55-1.64-1.96-.79-3.26-2.37-3.26-3.88 0-.17.02-.34.05-.51l.07-.26c.4-1.26 1.72-2.05 3.35-2.16-.1-1.03-.12-1.81.11-1.85.21-.03.41-.05.62-.05-.26-.02-.51-.03-.77-.03" fill="url(#bt)"/><path d="m30.2 4.23c-.06 0-.13 0-.19 0 .74.06 1.5.21 2.26.45.55.17 1.08.39 1.57.64-.63-.45-2.04-1.09-3.64-1.09" fill="#fff"/><path d="m29.07 12.95c-.32.84-.63 1.5-.55 1.64.12.23 2.17.75 3.92.75.48 0 .93-.04 1.32-.13.36-.09.58-.17.71-.27-.62.21-1.39.38-2.08.38-.16 0-.31 0-.46-.03-1-.12.38-1.29 1.69-1.93-.03-.05-.05-.1-.08-.15-.6.23-1.22.29-1.7.29s-.82-.06-.84-.06c-.46-.04-.93-.14-1.4-.29-.18-.06-.35-.12-.52-.19m.93-8.73c-.2 0-.41.02-.62.05-.23.03-.21.82-.11 1.85.14 0 .28-.01.42-.01.64 0 1.33.1 2.01.32.5.16.97.37 1.39.61h.07s.01 0 .03.02c.02-.06.03-.11.05-.16.36-.78.87-.91.92-1.23.01-.08-.11-.22-.34-.38-.49-.25-1.02-.46-1.57-.64-.76-.24-1.52-.39-2.26-.45" fill="url(#bu)"/><path d="m33.61 7.38c.44.35 1.12.98 1.54 1.75-.32-.65-.85-1.25-1.54-1.75m-3.91-1.26c-.14 0-.28 0-.42.01-1.63.12-2.95.9-3.35 2.16l-.07.26c.53-1.22 1.97-1.93 3.68-1.93.64 0 1.32.1 2.01.32.9.28 1.68.73 2.29 1.26-.54-.74-1.05-1.15-.77-1.15h.03c-.42-.25-.89-.46-1.39-.61-.68-.22-1.36-.32-2.01-.32" fill="url(#bv)"/><path d="m29.59 13.14c-2.49-.79-4.09-2.79-3.73-4.58.73-1.68 3.2-2.4 5.68-1.61 2.49.79 4.09 2.8 3.73 4.58-.73 1.68-3.2 2.4-5.68 1.61" fill="#f7921e"/><path d="m31.07 4.45c1.59.26-1.21 2.43-2.41-.11 0 0 1.13-.1 2.41.11z" fill="#fff"/><path d="m24.41 5.98c-.05.05-.09.1-.14.16l.13-.15" fill="#fff"/><path d="m23.35 9.77c.19.84.64 1.6 1.14 2.21l-.16-.22c-.45-.63-.77-1.3-.93-1.98l-.05-.02" fill="url(#bw)"/><path d="m23.28 8.56-.02.1s0 .21 0 .21c0 .31.03.6.1.89l.05.02c-.08-.32-.12-.64-.12-.96v-.26" fill="url(#bx)"/><path d="m24.55 6.24c-.34.36-.66.77-.89 1.24-.17.33-.29.69-.37 1.07s0 .26 0 .26c0 .32.04.64.12.96.16.68.48 1.35.93 1.98l.16.22c.6.74 1.26 1.29 1.61 1.55.12.09.2.15.23.17-.14-.13-1.88-1.69-2.45-3.77-.15-.54-.22-1.12-.16-1.71l.02-.14c.03-.18.07-.35.12-.52.16-.51.41-.95.69-1.31" fill="url(#by)"/><path d="m27.93 6.41s-3.17 1.75-1.55 4.44c0 0-2.12-3.06 1.55-4.44z" fill="#fee00e"/><path d="m35.15 9.14c.35.7.44 1.44.22 2.14l-.09.25c-.31.72-.95 1.27-1.77 1.59.01.03.02.06.04.08.78-.3 1.52-.88 1.87-2 .24-.75.07-1.45-.26-2.07m-1.96-2.05s0 .02 0 .03c.14.09.28.18.41.28-.2-.16-.34-.26-.41-.3" fill="url(#bz)"/><path d="m33.5 13.12c-.56.22-1.21.34-1.9.34-.2 0-.4 0-.61-.03.03 0 .36.06.84.06s1.1-.06 1.7-.29c-.01-.03-.02-.06-.04-.08m-.39-6.07s.06.04.1.06c0 0 0-.02 0-.03-.02-.01-.03-.02-.03-.02-.03 0-.05 0-.07 0" fill="url(#bA)"/><path d="m33.07 7.05c-.28 0 .23.41.77 1.15 1.09.95 1.67 2.18 1.43 3.33-.53 1.22-1.97 1.93-3.67 1.93-.2 0-.4 0-.61-.03.2.02.41.03.61.03.69 0 1.34-.12 1.9-.34.82-.32 1.46-.87 1.77-1.59l.09-.25c.22-.7.12-1.44-.22-2.14-.42-.78-1.09-1.4-1.54-1.75-.13-.1-.27-.19-.41-.28-.03-.02-.06-.04-.1-.06-.01 0-.02 0-.03 0" fill="url(#bB)"/><path d="m33.84 8.2c.45.61.91 1.44.96 2.44.12 2.33-3.81 2.78-3.81 2.78.2.02.41.03.61.03 1.7 0 3.15-.71 3.67-1.93.24-1.14-.34-2.38-1.43-3.33" fill="#e46525"/><path d="m37.99 10.76v.11.14-.04-.1z" fill="url(#aY)"/><path d="m37.08 13.84c-.2.59-.54 1.1-.98 1.54.44-.44.78-.96.98-1.54m0 0s0 0 0 0" fill="url(#aG)"/><path d="m35.94 15.54c-.22.2-.47.38-.73.54.27-.16.51-.34.73-.54z" fill="url(#bC)"/><path d="m35.2 16.08s-.06.04-.09.05c.03-.02.06-.04.09-.05z" fill="url(#bD)"/><path d="m36.1 15.38c-.05.05-.11.11-.17.16.06-.05.11-.1.17-.16z" fill="url(#bE)"/><path d="m36.98 13.81c-.53 1.09-1.27 1.8-1.9 2.24-.37.26-.7.43-.93.53v.01c.35-.13.67-.28.98-.45.03-.02.06-.04.09-.05.27-.16.51-.34.73-.54.06-.05.11-.1.17-.16.44-.44.78-.96.98-1.54s-.1-.03-.1-.03" fill="url(#bF)"/><path d="m37.54 12.73c-.09.17-.19.34-.31.49v.02c-.08.18-.15.35-.23.51l-.02.05.1.03s0 0 0 0z" fill="url(#bG)"/><path d="m35.59 6.47c.21.19.75.7 1.23 1.5.57.96 1.06 2.34.75 4.05l-.04.22c-.07.32-.16.62-.26.9l-.02.07-.02.05v-.02c.13-.15.23-.32.32-.49.11-.2.19-.42.26-.64.07-.23.12-.47.15-.7l.02-.14v-.24s.02-.14.02-.14v-.11s0-.15 0-.15c-.1-1.49-.98-2.97-2.39-4.14" fill="url(#bH)"/><path d="m23.3 8.31-.02.09-.04.18s.02 0 .03-.01c0-.07.02-.15.03-.22v-.03m.2-.89v.02s0-.02 0-.02z" fill="url(#bI)"/><path d="m24.27 6.14c-.33.38-.6.81-.77 1.29v.02s-.04.11-.04.11c-.02.07-.04.14-.06.21-.04.18-.08.35-.1.53v.03s0-.05 0-.05v-.04c.04-.16.07-.31.11-.46.03-.13.07-.24.11-.35.19-.53.46-.96.74-1.3m3.14-1.73c-.52.12-1.01.28-1.46.5s.02-.01.02-.01c.03 0-.76.48-1.42 1.36 1.2-1.25 2.78-1.82 2.86-1.84" fill="url(#bH)"/><path d="m25.94 4.89h-.01c-.13.05-.83.34-1.49 1.06l-.03.03-.13.15s0 0 0 0l.13-.15.03-.03c.41-.42.92-.78 1.49-1.05h.01" fill="#db616d"/><path d="m23.3 8.34c-.01.08-.02.15-.03.22h.01s.02-.22.02-.22" fill="url(#bJ)"/><path d="m25.97 4.88s0 0-.02 0-.01 0-.01 0c-.58.28-1.08.63-1.49 1.05l-.03.03-.13.15s0 0 0 0c-.28.34-.55.77-.74 1.3-.04.11-.08.22-.11.34-.04.15-.08.3-.11.46v.04s-.01.05-.01.05l-.02.22c.08-.39.21-.75.37-1.07.24-.47.55-.89.89-1.24.66-.88 1.45-1.36 1.42-1.36" fill="url(#bK)"/><path d="m23 9.66c-.04.23-.08.48-.09.72v.11c0 .21.02.43.05.64v.01s.11.11.31.3c-.1-.51-.15-1.09-.12-1.74l-.09-.03-.05-.02m.03-.2s0 0 0 .01c0 .02 0 .04-.01.06l.02-.08" fill="url(#bL)"/><path d="m23.27 8.61c-.03.09-.09.29-.16.55l-.06.28v.02s-.02.08-.02.08c0 .04-.02.09-.03.14l.05.02.09.03c.01-.22.03-.45.06-.69v-.05c.02-.1.04-.2.06-.3s0-.05 0-.07" fill="url(#bM)"/><path d="m23.28 8.56s0 .02-.02.05v.06l.02-.1" fill="url(#bN)"/><path d="m31.93 15.28c-1.36-.17 1.68-2.27 2.96-2.34s1.02.92.78 1.34c-.25.42-2.3 1.18-3.74 1" fill="#fff"/><path d="m22.91 8.73c-.37.18-.98.48-1.69.88.01.03.03.06.04.09.23.08.44.17.61.25.26-.4.59-.78.95-1.14s.06-.05.08-.08" fill="url(#bP)"/><path d="m21.22 9.61s-.01 0-.02 0c0 .02.02.05.03.07h.03c-.01-.03-.02-.06-.04-.09" fill="url(#bR)"/><path d="m21.2 9.62s-.04.02-.06.04c.03.01.06.02.09.03 0-.02-.02-.05-.03-.07" fill="url(#bS)"/><path d="m21.26 9.7s.03.07.04.11c.19.06.37.12.55.18 0-.01.02-.03.03-.04-.18-.09-.38-.17-.61-.25" fill="url(#bU)"/><path d="m21.23 9.69s.03.07.04.11h.03c-.01-.04-.03-.07-.04-.11 0 0-.02 0-.03 0" fill="url(#bV)"/><path d="m21.14 9.66s-.07.04-.11.07c.08.02.16.05.24.07-.01-.04-.02-.07-.04-.11-.03-.01-.06-.02-.09-.03" fill="url(#bW)"/><path d="m21.03 9.72c-.71.42-1.51.93-2.22 1.51.45.01.91.07 1.37.18.32.08.64.17.93.29.19-.96.64-1.58.72-1.69s0-.02 0-.02c-.18-.07-.36-.13-.55-.18 0 0-.02 0-.03 0-.08-.02-.16-.05-.24-.07" fill="url(#bX)"/><path d="m18.8 11.23c-.21.17-.41.34-.61.52h.31c.5 0 1.02.06 1.55.18.34.08.67.18.97.3 0-.1.02-.19.04-.29 0-.07.02-.14.03-.21v-.03c-.29-.11-.6-.21-.93-.29-.47-.11-.93-.17-1.37-.18" fill="url(#bY)"/><path d="m31.38 19.34c-.52.23-1.07.42-1.65.56-.18.05-.36.09-.54.12.84-.08 1.57-.34 2.2-.68" fill="url(#b0)"/><path d="m32.36 18.67c-1.27.69-2.73 1.15-3.15 1.15-.05 0-.08 0-.1-.02-.1-.06-.17-.43-.26-.96-.38.04-.76.07-1.13.07-.15 0-.3 0-.45-.01-.3-.01-.59-.04-.87-.09-.14-.02-.28-.05-.42-.07-.04.1-.08.2-.12.29.18.38.74 1.02 2.51 1.02.24 0 .51-.01.8-.04h.01c.18-.04.36-.08.54-.12.58-.14 1.13-.33 1.65-.56.36-.2.69-.43.98-.66" fill="url(#b1)"/><path d="m34.14 16.59s-.07.02-.1.03c-1.02.89-2.36 1.6-3.91 1.99-.43.11-.86.19-1.28.23.09.53.16.9.26.96.02.01.05.02.1.02.42 0 1.88-.47 3.15-1.15 1.11-.9 1.7-1.95 1.78-2.08" fill="url(#b2)"/><path d="m25.5 18.63c-.07.07-.15.14-.22.2.32-.04.5-.08.5-.08v.06c.02-.03.03-.07.05-.11-.11-.02-.23-.05-.34-.08" fill="url(#b3)"/><path d="m23.24 17.54c-.23.19-.48.35-.73.47.22.39.56.69.82.93h.22c.72 0 1.33-.06 1.73-.11.08-.07.15-.13.22-.2-.26-.07-.51-.15-.76-.25h-.02c-.22-.1-.44-.19-.64-.3h-.02c-.31-.17-.6-.34-.8-.53h-.02" fill="url(#b4)"/><path d="m22.51 18.01c-.79.37-1.63.44-2.12.44-.11 0-.2 0-.26 0 1.1.37 2.24.49 3.2.5-.26-.24-.6-.54-.82-.93" fill="url(#b5)"/><path d="m18.51 11.74c-.11 0-.21 0-.31 0-1.44 1.32-2.34 2.91-1.22 4.46.81 1.12 1.92 1.8 3.08 2.2.33-.07 1.81-.43 2.75-1.26-.5-.5-.87-1.09-1.06-1.76v-.02s-.37-1.09-.37-1.09c-.11-.23-.19-.47-.25-.72l-.03-.12v-.02s0 0 0 0c-.06-.26-.08-.53-.08-.8 0-.14 0-.28.02-.42-.31-.12-.63-.22-.97-.3-.53-.12-1.05-.18-1.55-.18" fill="#e26225"/><path d="m23.18 17.49c-.21.17-.45.31-.71.44.01.03.03.05.04.08.25-.12.5-.27.73-.47s0 0 0 0c-.02-.02-.04-.03-.06-.05" fill="url(#b6)"/><path d="m22.47 17.93c-.67.32-1.48.5-2.35.5 0 0-.01 0-.02 0h.03.26c.48 0 1.33-.06 2.12-.44-.01-.03-.03-.05-.04-.08" fill="url(#b7)"/><path d="m22.81 17.16c-.94.82-2.42 1.18-2.75 1.26.02 0 .03.01.05.02h.02c1.21 0 2.3-.34 3.06-.94-.13-.11-.25-.22-.37-.33" fill="#d64728"/><path d="m25.98 18.75c-.04.1-.08.2-.12.29.04-.1.08-.19.12-.29z" fill="url(#b9)"/><path d="m25.84 18.72s-.03.07-.05.11c0 .05.03.13.07.22.04-.1.08-.19.12-.29-.05 0-.1-.02-.14-.03" fill="url(#cb)"/><path d="m22.17 15.51h-.02s-.19.06-.19.06c.91 1.66 2.19 2.49 2.63 2.74s.13.07.13.07c-.22-.09-.44-.18-.64-.29h-.02s.02 0 .02 0c.2.11.42.2.64.29h.02c.24.1.49.19.76.26.11.03.22.06.34.08.05.01.1.02.14.03.14.03.28.05.42.07.28.05.58.07.87.09.15 0 .3.01.45.01.37 0 .75-.02 1.13-.07.42-.05.85-.13 1.28-.23 1.55-.39 2.89-1.1 3.91-1.99-.04.01-.08.03-.12.04l-.07.02h-.03c-.72.23-1.52.35-2.36.35-.47 0-.96-.04-1.45-.11-.09.03-.19.05-.28.07-.84.21-1.67.31-2.46.31-.16 0-.32 0-.48-.01s0 0 0 0-.13 0-.28-.02l-.22-.02c-.7-.07-1.36-.23-1.96-.46-.75-.26-1.52-.67-2.13-1.29" fill="url(#cc)"/><path d="m21.53 14.62c.03.1.07.19.11.28l.02.05c.1.22.2.43.31.62l.19-.05h.02c-.2-.22-.39-.45-.55-.72zm-.44-1.18s0 0 0 0z" fill="url(#cd)"/><path d="m23.24 8.58c-.06.03-.17.08-.33.15-.03.03-.06.05-.08.08-.05.06-1.1 1.37-1.47 3.07-.04.45-.03.96.1 1.48.04.17.1.34.17.51l.06.13c.26.54.62.99 1.03 1.38 1.57 1.47 3.86 1.9 4.05 1.93-.03 0-.13 0-.28-.02-.43-.04-1.28-.16-2.18-.48.6.23 1.26.38 1.96.46l.22.02c.15.01.25.02.28.02s0 0 0 0c.16 0 .32.01.48.01.8 0 1.62-.1 2.46-.31.09-.02.19-.05.28-.07-.12-.02-.25-.04-.37-.06-.19.05-.34.07-.43.07-.05 0-.08 0-.1-.02-.04-.02-.07-.09-.1-.2-.16-.04-.33-.09-.49-.14-.96-.3-1.83-.73-2.59-1.25-.25-.17-.48-.34-.7-.53s-.01-.01-.02-.02c-.29-.15-.56-.33-.78-.54-.39-.35-.79-.84-.91-1.49-.13-.23-.24-.46-.3-.67v-.03s-.01 0-.01 0c-.11-.3-.19-.61-.24-.92-.06-.22-.07-.48-.05-.75 0-.31.05-.62.14-.92.02-.11.05-.21.07-.31z" fill="url(#ce)"/><path d="m29 16.72c.03.11.07.18.1.2.02.01.05.02.1.02.1 0 .24-.02.43-.07-.21-.04-.42-.09-.64-.15" fill="url(#cf)"/><path d="m24.42 14.24c.23.21.49.39.78.54-.17-.09-.47-.27-.78-.54m-.44-.76c.21.47.58.92 1.2 1.28-.44-.37-.82-.77-1.14-1.2v-.02s-.04-.04-.06-.07" fill="#e26225"/><path d="m21.1 11.73c-.01.07-.02.14-.03.21l.03-.2" fill="url(#cg)"/><path d="m22.22 15.5h-.05c.6.63 1.38 1.04 2.13 1.3l-.25-.1c-.71-.3-1.33-.71-1.83-1.2" fill="url(#ci)"/><path d="m21.49 14.51.04.1s.1.19.1.19c.16.26.34.5.55.71h.05c-.23-.24-.43-.5-.6-.77l-.13-.23" fill="url(#cj)"/><path d="m21.35 11.88c-.11.48-.16 1-.11 1.53.03.37.11.74.24 1.11s.13.23.13.23c.17.27.37.52.6.76.49.5 1.11.9 1.83 1.2l.25.1c.9.32 1.75.44 2.18.48.15.01.25.02.28.02-.19-.03-2.49-.46-4.05-1.93-.41-.38-.77-.84-1.03-1.38l-.06-.13c-.07-.17-.13-.34-.17-.51-.13-.51-.15-1.03-.1-1.48" fill="url(#ck)"/><path d="m23.5 12.75c.12.65.52 1.14.91 1.49.31.27.61.45.78.54 0 0-.01-.01-.02-.02-.62-.36-.99-.8-1.2-1.28-.13-.17-.24-.34-.35-.52v-.02h-.01c-.04-.06-.08-.13-.11-.19" fill="#e38828"/><path d="m23.26 17.56c.21.19.49.36.8.52-.29-.15-.56-.33-.8-.52" fill="url(#cl)"/><path d="m21.75 15.4c.24.85.77 1.57 1.49 2.14s.02.02.02.02c.25.19.52.36.8.52h.02c.2.12.42.22.64.3l-.13-.07c-.44-.25-1.72-1.08-2.63-2.74l-.09.02-.06.02-.07-.21" fill="url(#cm)"/><path d="m21.37 14.29.37 1.09v.02l.07.21.06-.02.09-.02c-.11-.19-.21-.4-.31-.62l-.02-.05c-.04-.09-.08-.18-.11-.28-.05-.1-.1-.2-.14-.3v-.02m-.29-.86s0 .02 0 .02z" fill="url(#cn)"/><path d="m21.07 11.94c-.02.1-.03.19-.04.29-.01.14-.02.28-.02.42 0 .27.03.53.08.8v.02s.03.12.03.12c.06.25.15.49.25.72v.02h.01l-.02-.05-.02-.04c-.06-.15-.11-.3-.15-.44-.03-.13-.06-.24-.08-.35-.11-.55-.11-1.06-.05-1.5m1.76-3.14c-.38.37-.72.77-.99 1.19s.01-.02.01-.02c.02 0-.4.82-.51 1.9.37-1.7 1.42-3 1.47-3.07" fill="url(#co)"/><path d="m21.83 10c-.08.12-.54.73-.72 1.69s0 0 0 0c.13-.58.38-1.14.72-1.68" fill="url(#cp)"/><path d="m21.39 14.32c.04.1.09.2.14.3s0 0 0 0l-.04-.1s-.1-.2-.1-.2" fill="url(#cr)"/><path d="m21.86 9.98s0 0-.01.02 0 .02 0 .02c-.35.54-.59 1.1-.72 1.68s0 .04 0 .04l-.03.2s0 0 0 0c-.06.44-.06.94.05 1.5.02.11.05.23.08.35.04.15.09.3.15.45l.02.04.02.05.1.2s0 0 0 0c-.14-.37-.21-.74-.24-1.11-.05-.53 0-1.04.11-1.53.11-1.08.52-1.9.51-1.9" fill="url(#cs)"/><path d="m33.85 16.69.07-.02zm-10.59-5.25c.19.98.53 1.68.69 1.97s.07.13.07.13c-.14-.19-.28-.39-.39-.58v-.02h-.01v.02c.12.18.23.35.36.52.02.02.03.04.05.07v.02c.33.42.71.83 1.15 1.2 0 0 .01.01.02.02s.01 0 .02.01c.22.19.45.37.7.53.76.52 1.63.94 2.59 1.25.16.05.33.1.49.14.21.06.43.1.64.15.12.02.25.05.37.06.49.08.98.11 1.45.11.84 0 1.64-.12 2.36-.34h.03s.07-.03.07-.03c.04-.01.08-.03.12-.04.03-.01.07-.02.1-.03-.07.03-.15.05-.22.08.06-.02.13-.05.23-.09s-1.96-.16-5.49-1.65c-2.75-1.16-4.68-2.81-5.39-3.48" fill="url(#ct)"/><path d="m33.92 16.67-.07.02z" fill="url(#cu)"/><path d="m34.14 16.58c-.1.04-.17.07-.23.09.07-.02.15-.05.22-.08v-.01" fill="url(#cv)"/><path d="m23.27 8.56s-.02 0-.03.01l-.13.58c.07-.26.13-.46.16-.55 0-.01 0-.03 0-.04" fill="url(#cw)"/><path d="m23.28 8.56s0 0-.01 0v.04c0-.03.01-.04.02-.05s0 0 0 0" fill="url(#cx)"/><path d="m23.04 9.46c-.08.3-.13.61-.14.92.01-.24.05-.49.09-.72s.03-.14.03-.14c0-.02 0-.04.01-.06" fill="url(#cy)"/><path d="m23.03 9.53-.03.14s.02-.09.03-.14" fill="url(#cz)"/><path d="m23.2 12.08c.06.21.17.44.3.67 0 0 0-.01 0-.02-.11-.21-.21-.43-.3-.65" fill="url(#cA)"/><path d="m23.5 12.73s0 .01 0 .02c.04.06.07.13.11.19-.04-.07-.08-.14-.12-.21" fill="#cd422a"/><path d="m22.95 11.13c.05.31.13.62.24.92s0 .03 0 .03c.08.22.18.44.3.65l.12.21v.02c.13.2.26.39.41.58l-.07-.12c-.16-.3-.5-1-.69-1.98-.2-.19-.31-.3-.31-.3s0 0 0-.01" fill="url(#cB)"/><path d="m14.73 30.42c-1.07 0-1.76 2.5-.6 3.29.17.12.34.17.49.17 1.08 0 1.77-2.43.61-3.28-.17-.13-.34-.18-.5-.18" fill="url(#cC)"/><path d="m25.68 23.58s0 0 0 0 .04 0 .07 0h.03c-.03 0-.06 0-.1 0" fill="url(#cD)"/><path d="m35.49 19.4c-.27 0-.7.11-1.29.37-4.22 1.85-10.12 1.2-8.52 3.81h.1c.73 0 1.44-.04 2.12-.12 2.64-.3 4.73-1.14 6.1-1.97 1.72-1.05 2.33-2.09 1.49-2.09" fill="url(#cE)"/><path d="m25.68 23.58s.06 0 .09 0-.02 0-.03 0c-.02 0-.04 0-.07 0" fill="url(#cF)"/><path d="m27.9 23.46c-.69.08-1.39.12-2.12.12.74 0 1.44-.04 2.11-.12" fill="url(#cG)"/><path d="m38.63 13.84c-.02.26-.04.53-.08.81.06-.28.09-.55.08-.81" fill="url(#cD)"/><path d="m38.99 11.85c-.37.08-.29.91-.36 1.98.01.26-.02.53-.08.81-.05.38-.14.77-.27 1.15-.22.64.08.9.57.9.94 0 2.58-.97 2.57-2.15-.01-1.79-2.43-2.7-2.43-2.7" fill="url(#cE)"/></svg>