<?xml version="1.0" encoding="UTF-8"?>
<svg id="Layer_1" data-name="Layer 1" xmlns="http://www.w3.org/2000/svg" viewBox="0 0 51.84 49.84">
  <defs>
    <style>
      .cls-1 {
        fill: #b6b6b6;
      }

      .cls-2 {
        fill: #6d6e71;
      }

      .cls-3 {
        fill: #fff;
      }

      .cls-4 {
        fill: #34180f;
      }
    </style>
  </defs>
  <path class="cls-4" d="M29.51,4.42c.36-.1.64.18.9.39.34.28,1.25,1.29,1.31,1.69l.02,13.84c.83.5,1.58.92,2.13,1.75,1.07,1.61,1.01,3.52-.07,5.09-.56.82-1.23,1.24-2.06,1.75l-.09,14.5c-.05.38-1.73,2.03-1.93,2.01-5.55-3.4-10.55-7.59-15.54-11.74-2.54-.28-5.19.24-7.72.09-2.13-.12-2.81-.74-3.39-2.77-.87-3.07-.92-10.32.24-13.28.54-1.39,1.14-1.82,2.64-1.91,2.77-.18,5.57.48,8.32.11,4.92-4.05,9.95-7.97,15.23-11.53ZM14.65,24.49c0,.83.01,1.67,0,2.49-.02,1.79-.22,3.53-.07,5.35.02.28-.07.6.07.85,3.97,3.42,8.03,6.75,12.34,9.72.44.31.93.56,1.37.86.31.21.61.69,1.03.66V5.47s-.07-.1-.15-.08c-.15.04-.73.45-.9.57-4.76,3.22-9.18,6.94-13.65,10.54-.08,1.55-.02,3.11-.03,4.66,0,1.1,0,2.23,0,3.33ZM29.97,44.43l1.03-1.06.07-.29V6.57c-.03-.22-.68-.86-.88-1.02-.07-.06-.09-.14-.22-.11v39ZM4.24,17.46c-1.11,1.79-1.04,3.98-1.1,6.01s-.15,7.91,1.54,9.27c.06.05.37.25.41.25h7.44c0-1.92,0-3.84,0-5.76,0-1.08,0-2.17,0-3.26,0-2.36.07-4.75,0-7.11,0-.07,0-.15,0-.22h-7.37c-.54.06-.67.41-.91.81ZM14.06,16.8s0-.1,0-.15c-.23.12-1.04,0-1.14.14l-.03,16.16s.56.11.66.11c.22.01.44,0,.66,0-.02-1.6.02-3.2,0-4.8-.04-3.8,0-7.68-.15-11.47ZM31.73,21.71c0,1.01-.08,2.05-.07,3.08,0,.32,0,.64,0,.95,0,.39.07.74.07,1.1,0,.45-.13.59,0,1.1.02.06-.04.2.04.22,1.56-.76,2.63-2.75,2.2-4.47-.11-.45-.4-1.04-.77-1.32-.04-.31-1.36-1.43-1.54-1.25-.08.18.07.47.07.59Z"/>
  <path class="cls-1" d="M14.65,24.49c.01-1.1,0-2.23,0-3.33.01-1.55-.05-3.11.03-4.66,4.47-3.6,8.89-7.32,13.65-10.54.17-.12.75-.53.9-.57.08-.02.15.05.15.08v38.96c-.42.03-.72-.45-1.03-.66.1-.39.07-.78.07-1.17.01-1.1,0-2.2,0-3.3,0-5.13,0-10.26,0-15.39l-13.78.59Z"/>
  <path class="cls-2" d="M29.97,44.43V5.43c.13-.03.15.05.22.11.21.16.85.8.88,1.02v36.51s-.07.29-.07.29l-1.03,1.06Z"/>
  <path class="cls-2" d="M14.65,24.49c0,.83.01,1.67,0,2.49-.02,1.79-.22,3.53-.07,5.35.02.28-.07.6.07.85,3.97,3.42,8.03,6.75,12.34,9.72.44.31.93.56,1.37.86.1-.39.07-.78.07-1.17.01-1.1,0-2.2,0-3.3,0-5.13,0-10.26,0-15.39l-13.78.59Z"/>
  <path class="cls-2" d="M14.06,16.8s0-.1,0-.15c-.23.12-1.04,0-1.14.14l-.03,16.16s.56.11.66.11c.22.01.44,0,.66,0-.02-1.6.02-3.2,0-4.8-.04-3.8,0-7.68-.15-11.47Z"/>
  <path class="cls-1" d="M33.2,22.37c.37.28.66.87.77,1.32.43,1.72-.64,3.71-2.2,4.47-.08-.02-.02-.16-.04-.22.86-.29,1.94-1.89,1.98-2.75.02-.38-.3.2-.34.25-.43.55-.97,1.18-1.64,1.4,0-.35-.09-.83-.07-2.05,0-1.03.07-2.07.07-3.08.2-.01.38.06.56.13.21.09.73.39.9.53Z"/>
  <path class="cls-1" d="M12.52,16.87c0-.07,0-.15,0-.22h-7.37c-.54.06-.67.41-.91.81-1.11,1.79-1.04,3.98-1.1,6.01.96.18,1.89.52,2.86.7,2.2.41,4.36.34,6.53-.19,0-2.36.07-4.75,0-7.11Z"/>
  <path class="cls-2" d="M31.73,26.84c.68-.22,1.21-.85,1.64-1.4.04-.05.36-.63.34-.25-.04.86-1.12,2.46-1.98,2.75-.13-.51,0-.65,0-1.1Z"/>
  <path class="cls-3" d="M33.2,22.37c-.18-.13-.7-.44-.9-.53-.18-.08-.36-.15-.56-.13,0-.12-.15-.4-.07-.59.18-.18,1.5.94,1.54,1.25Z"/>
  <path class="cls-3" d="M27.55,8.51c.07.57.18,1.15.22,1.72.09,1.34.04,2.69,0,4.03-.04,1.19-.04,2.38-.22,3.56l-.22.73c-.27-.28-.37-.96-.43-1.37-.25-1.68-.01-3.55-.85-5.07l-9.72,5.64c-.08-.08.59-.91.7-1.03,2-2.29,5.64-5.02,8.15-6.8.28-.2,2.19-1.59,2.37-1.41Z"/>
  <path class="cls-2" d="M12.52,23.98c-2.17.53-4.33.59-6.53.19-.97-.18-1.89-.52-2.86-.7-.06,2.03-.15,7.91,1.54,9.27.06.05.37.25.41.25h7.44c0-1.92,0-3.84,0-5.76,0-1.08,0-2.17,0-3.26Z"/>
  <path class="cls-3" d="M11.57,17.82l.14,1.68c-.15.22-4.68-.05-5.39,0-.53.04-.92.08-1.28.48-.32.35-.45.84-.73,1.21.12-.78.02-1.58.17-2.36.04-.23.26-1.01.53-1.01h6.56Z"/>
</svg>