<svg viewBox="0 0 51.84 49.84" xmlns="http://www.w3.org/2000/svg"><path d="m32.21 19.16c-1.51-1.51-1.51-3.96 0-5.47l5.02-5.02-4.57-4.57c-.73-.73-.33-2.15.91-2.15h14.52c.7.02 1.33.63 1.33 1.33l.02 14.49c0 1.24-1.46 1.63-2.19.91l-4.55-4.55-5.02 5.02c-1.51 1.51-3.96 1.51-5.47 0zm-26.59-.46 4.57-4.57 5.02 5.02c1.51 1.51 3.96 1.51 5.46 0 1.51-1.51 1.51-3.96 0-5.47l-5.02-5.02 4.55-4.55c.73-.73.33-2.19-.91-2.19l-14.49.02c-.71 0-1.31.63-1.33 1.33v14.52c0 1.24 1.42 1.63 2.15.91zm9.59 11.99-5.02 5.02-4.55-4.55c-.73-.73-2.19-.33-2.19.91l.02 14.49c0 .71.63 1.31 1.33 1.33h14.52c1.24 0 1.63-1.42.91-2.15l-4.57-4.57 5.02-5.02c1.51-1.51 1.51-3.96 0-5.46-1.51-1.51-3.96-1.51-5.47 0zm32.05.46-4.57 4.57-5.02-5.02c-1.51-1.51-3.96-1.51-5.46 0-1.51 1.51-1.51 3.96 0 5.47l5.02 5.02-4.55 4.55c-.73.73-.33 2.19.91 2.19l14.49-.02c.71 0 1.31-.63 1.33-1.33v-14.52c0-1.24-1.42-1.63-2.15-.91z" fill="#d29f3a" stroke="#fee899" stroke-miterlimit="10" stroke-width="2"/></svg>