<svg viewBox="0 0 290 290" xmlns="http://www.w3.org/2000/svg" xmlns:xlink="http://www.w3.org/1999/xlink"><linearGradient id="a" gradientTransform="matrix(.89258582 .45087754 -.45087754 .89258582 80.76 -62.58)" gradientUnits="userSpaceOnUse" x1="155.43" x2="186.38" y1="-10.04" y2="210.25"><stop offset="0" stop-color="#beb0c1"/><stop offset="1" stop-color="#997b81"/></linearGradient><linearGradient id="b" gradientTransform="matrix(.89258582 .45087754 -.45087754 .89258582 80.76 -62.58)" gradientUnits="userSpaceOnUse" x1="127.53" x2="157.83" y1="-6.12" y2="209.47"><stop offset="0" stop-color="#e0d9e1"/><stop offset="1" stop-color="#baa5a8"/></linearGradient><linearGradient id="c" gradientTransform="matrix(.89258582 .45087754 -.45087754 .89258582 80.76 -62.58)" gradientUnits="userSpaceOnUse" x1="135.58" x2="175.46" y1="253.58" y2="253.58"><stop offset="0" stop-color="#cd5627"/><stop offset="1" stop-color="#b33024"/></linearGradient><linearGradient id="d" gradientTransform="matrix(.89258582 .45087754 -.45087754 .89258582 80.76 -62.58)" gradientUnits="userSpaceOnUse" x1="154.86" x2="154.86" y1="314.71" y2="269.24"><stop offset="0" stop-color="#fba919"/><stop offset="1" stop-color="#f8961d"/></linearGradient><linearGradient id="e" gradientTransform="matrix(.89258582 .45087754 -.45087754 .89258582 80.76 -62.58)" gradientUnits="userSpaceOnUse" x1="151.57" x2="151.57" y1="252.28" y2="206.76"><stop offset="0" stop-color="#f8961d"/><stop offset="1" stop-color="#fba919"/></linearGradient><linearGradient id="f" gradientTransform="matrix(.89258582 .45087754 -.45087754 .89258582 80.76 -62.58)" gradientUnits="userSpaceOnUse" x1="154.59" x2="154.59" y1="252.86" y2="237.18"><stop offset=".05" stop-color="#ef4623"/><stop offset="1" stop-color="#d75526"/></linearGradient><linearGradient id="g" gradientTransform="matrix(.89258582 .45087754 -.45087754 .89258582 80.76 -62.58)" gradientUnits="userSpaceOnUse" x1="157.84" x2="157.84" y1="223" y2="204.82"><stop offset="0" stop-color="#fede00"/><stop offset="1" stop-color="#fee732"/></linearGradient><path d="m214.56 139.75s-41.87 27.16-69.38 66.94c-9.55 13.82-9.77 8.4-6.01-4.54 7.1-24.34 28.32-75.31 28.32-75.31l62.87-124.46v.03c.08.78.62 8.53-.09 22.22-.45 9.34-1.47 21.42-3.62 35.94-1.28 8.65-.64 19.44-2.03 27.87 0 0-2.82-1.87-3.96-1.62-2.52.56-6.7 1.84-7.57 4.27s2.87 6.07 5.25 8.06c.96.81 1.7 1.35 1.84 1.45-3.58 20.93-5.62 39.15-5.62 39.15z" fill="#786583"/><path d="m211.27 134.04s-41.2 30.21-66.09 72.66l-6.01-4.54-12.29-9.32h-.02s-1.88-1.43-1.88-1.43l41.61-83.17 20.58-35.6s.01-.02.02-.04l34.61-59.86c.4-.67.76-1.34 1.13-1.97.3-.53.6-1.03.88-1.52l1.56-2.71c.24-.42.46-.81.68-1.19l1.72-2.98c.35-.59.63-1.08.82-1.41l.41-.7c.59.3 1.04 1.02 1.35 2.13v.03c1.14 3.77.94 11.84-.09 22.22-1.71 17.34-5.71 41.17-9.61 62.19-2.52.56-6.7 1.84-7.57 4.27s2.87 6.07 5.25 8.06c-3.86 19.92-7.07 34.88-7.07 34.88z" fill="url(#a)"/><path d="m229.01.24s-.14.23-.41.7c-.2.34-.47.83-.82 1.41-.45.78-1.04 1.8-1.72 2.98-.87 1.5-1.92 3.32-3.12 5.42-16.73 29.21-64.23 113.61-94.3 182.5l-1.75-.42-24.36-5.66s.86-1.21 2.23-3.55c0 0 .01-.02.05-.05 5.7-9.66 19.96-38.1 17.55-77.58 0 0 .37-.47 1.05-1.33 5.52-6.86 31.74-39.29 57.07-66.23.18.12.4.23.63.32 1.45.65 3.46.46 5.5-2.82 1.3-2.08 1.95-3.64 2.23-4.8.17-.65.21-1.18.2-1.59 14.32-14.6 27.55-26.23 35.54-28.86h.03v-.03c1.75-.57 3.21-.71 4.39-.39z" fill="url(#b)"/><path d="m94.57 210.79-10.41 33.61s19.51 5.48 24.68 12.47l20.85-27.15s-9.56-14.42-35.12-18.93z" fill="url(#c)"/><path d="m116.13 277.72c-.27.54-1.52 1.55-3.48 2.79-7.55 4.8-25.38 12.81-34.83 8.03-11.89-6.01-19.67-34.62-15.33-37.91 4.36-3.28 21.67-6.23 21.67-6.23 15.85-.09 24.68 12.47 24.68 12.47s8.63 18.21 7.29 20.86z" fill="url(#d)"/><path d="m116.13 277.72-3.48 2.79c-7.55 4.8-25.38 12.81-34.83 8.03-11.89-6.01-19.67-34.62-15.33-37.91 1.48-.89 31.74 8.5 42.7 17.79l10.95 9.31z" fill="#df376e" opacity=".5"/><path d="m88.5 230.38c13.08-16.57 22.33 23.89 22.33 23.89l18.85-24.55s-8.68-8.76-20.35-13.49c-11.68-4.73-16.77 1.03-16.77 1.03z" fill="#be3056" opacity=".5"/><path d="m63.02 265.24c1.5 4.57 2.27-11.41 11.85-9.67s15.43 21.93 20.96 24.47 15.45-6.45 15.45-6.45-12.91-11.57-31.03-17.9c-18.12-6.34-18.05-5.55-18.44-4.16s-.42 8.8 1.21 13.71z" fill="#df376e" opacity=".7"/><path d="m66.28 270.14c-.61-4.3 7.34 2.98 9.28 7.28 1.95 4.3-4.2 2.8-5.47 1.21s-3.64-7.3-3.81-8.5z" fill="#fff"/><path d="m62.79 210.97c-3.92-2.27-4.79-25.79-3.12-30.09 1.67-4.31 39.13-2.7 63.63 9.68s45.02 39.44 45.48 42.63-17.28 21.87-21.7 20.36c-4.41-1.51-19.92-24.85-39.93-34.96s-40.09-5.15-44.37-7.63z" fill="url(#e)"/><path d="m62.79 210.97c2.1 3.34 28.15 11.57 28.15 11.57s8.37-3.8 19.42 1.78c11.04 5.58 11.94 15.43 11.94 15.43s22.11 14.5 24.79 13.8-10.05-21.45-35.35-34.75c-25.31-13.3-48.95-7.84-48.95-7.84z" fill="url(#f)"/><path d="m129.11 193.81c-13.28-6.74-23.26 17.82-22.25 20.46s18.43 12.01 25.03 18.53c6.6 6.51 22.97-11.18 24.25-13.05s-15.51-20.09-27.03-25.94z" fill="#fff"/><path d="m98.67 248.15c-5.15-2.26-7.95 8.07-7.34 9.93s13.7 9.14 17 12.47c3.3 3.34.67-12.01-2-15.51s-7.66-6.89-7.66-6.89z" fill="#fff"/><path d="m76.87 178.93c-3.4-.15-7.89 23.6-7.31 27.35s22.53 4.17 25.01 4.51 6-21.91 4.37-25.44-17.79-6.24-22.07-6.42z" fill="#e02874" opacity=".2"/><path d="m129.11 193.81s-1.74 12.96 4.87 16.65 15.86.54 15.86.54-7.97-10.84-20.73-17.19z" fill="#fff"/><path d="m95.15 262.07c.58-4.11 12.49 2.1 12.23 8.48 0 0-13.03-2.8-12.23-8.48z" fill="#fff"/><path d="m58.87 190.53s2.42 17.45 4.25 19.77 7.84-1.36 16.85-.3 7.43 11.39 7.43 11.39-20.86-6.4-24.62-10.42c-3.76-4.03-3.92-20.44-3.92-20.44z" fill="#be3056" opacity=".5"/><path d="m140.45 242.77c-5.23-3.99-13.39-2.18-13.14-.91.24 1.27 15.59 10.76 19.78 11.69 4.19.94 15.04-10.86 15.04-10.86s-8.99 6.35-12.56 6.27-9.12-6.19-9.12-6.19z" fill="#be3056" opacity=".5"/><path d="m187.16 72.63c-10.12 18.89-18.77 34.39-20.58 35.6-4.8 3.23-41.32 2.96-38.86-3.26 17.34-26.96 36.61-49.26 53.38-66.23 1.45.65 3.46.46 5.5-2.82 1.3-2.08 1.95-3.64 2.23-4.8 19.97-19.22 34.84-29.83 35.76-30.46h.03c-.56 1.21-20.95 41.09-37.46 71.97z" fill="#fff" opacity=".5"/><path d="m204.53 136.89c3.36-7.62-25.55-31.25-28.98-32.57-3.43-1.31-39.25 73.21-41.9 80.5s11.87 16.38 12.6 17.64 15.28-26.05 31.95-43.84c16.68-17.79 26.33-21.74 26.33-21.74z" fill="#b88974" opacity=".38"/><path d="m141.92 164.36s14.96-44.69 22.98-61.23 52.72-83.05 52.72-83.05-48.65 81.38-75.7 144.28z" fill="#fff" opacity=".8"/><path d="m174.14 90.46c1.15 4.39 11.79-9.7 11.13-16.61-.65-6.91-11.95 13.51-11.13 16.61z" fill="#fff"/><path d="m104.8 183.56c5.7-9.66 19.96-38.1 17.55-77.58 0 0 .37-.47 1.05-1.33 1.74 1.37 11.52 9.92 12.96 26.99 1.52 18.31-30.09 50.42-31.56 51.92z" fill="#b88974" opacity=".2"/><path d="m159.06 63.79c12.35-12.66 13.73.2 3.91 15.18s-26.76 10.02-25.89 8.97c.88-1.05 21.98-24.15 21.98-24.15z" fill="#fff"/><path d="m206.73 41.63c-1.83 7.6 13.47 30.08 16.06 28.72s8.1-62.57 6.13-64.57c-1.97-2-22.19 35.85-22.19 35.85z" fill="#a28993" opacity=".5"/><path d="m211.28 134.04 3.28 5.71s-26.61 17.53-39.27 31.13 4.73-13.52 35.99-36.84z" fill="#be3056" opacity=".5"/><path d="m224.62 88.45s-7.96.56-10.04 2.62.41 4.82.41 4.82-3.24-3.83-2.78-5.76c.29-1.23 4.94-3.21 8.45-3.3 2.01-.05 3.52 1.62 3.96 1.62z" fill="#67406e"/><path d="m189.04 29.52s.12 1.83-1.93 6.58-5.7 2.75-5.7 2.75 2.35-.38 4.46-2.86c2.11-2.47 3.17-6.47 3.17-6.47z" fill="#786583"/><path d="m175.93 102.61c-2.92-5.27 15.6-33.55 19.15-35.21s21.14 39.62 19.35 49.88c-1.79 10.25-8.88 15.4-11.29 12.66-2.41-2.75-27.22-27.32-27.22-27.32z" fill="#fff" opacity=".3"/><path d="m116.13 157.54s9.52-25.46 9.38-38.28c-.15-12.82.79-14.93 3.46-19.83s28.77-35.79 28.77-35.79-31.61 35.5-35.38 42.34c0 0 2.63 30-6.22 51.56z" fill="#873069" opacity=".5"/><path d="m194.55 24.01s26.59-19.19 31.5-18.67 3.6 25.03 3.6 25.03 3.61-27.87-.64-30.13c-4.26-2.26-22.61 11.65-34.46 23.76z" fill="#873069" opacity=".5"/><path d="m76.87 178.93s25.95-.35 51.59 12.08 39.43 40.27 39.43 40.27-18.92-27.43-41.01-38.45-50.01-13.9-50.01-13.9z" fill="url(#g)"/></svg>