<svg viewBox="0 0 51.84 49.84" xmlns="http://www.w3.org/2000/svg"><g fill="#f4d35e"><path d="m46.84 12.43c-.59-.92-2.28-3.35-3.35-3.54-1.27-.22-2.24 1.14-1.82 2.26.25.66 1.65 2.01 2.15 2.69 4.34 5.9 4.6 15.15.26 21.13-.8 1.1-3.61 3.6-1.93 4.95.93.75 1.85.25 2.59-.44.44-.41.77-.84 1.13-1.33 5.68-7.64 6.14-17.67.97-25.72zm-3.59-1.61c-.03-.17 0-.37 0-.55.18-.18.93.65 1.06.81.9 1.03 1.72 2.57 1.72 3.96-.09 0-.16.04-.23-.05-.2-.25-.29-.91-.45-1.23-.39-.77-1.99-2.21-2.11-2.95z"/><path d="m42.17 15.34c-.6-.9-1.69-2.41-2.91-2.19-.68.13-1.12 1.11-.99 1.76.09.42 1.32 1.69 1.66 2.15 2.91 4.1 2.94 10.71.04 14.82-.68.97-2.95 3.05-.93 3.95 1.13.5 1.83-.28 2.47-1.09 4.35-5.52 4.56-13.59.66-19.41zm-.61 3.22c-.55-1.58-.79-2.07-1.91-3.37-.21-.25-.13-.34-.07-.51 0-.02.07-.14.07-.15.02-.02.04-.05.07-.07.46-.25.9.56 1.11.9.95 1.59 1.96 4.2 2.18 6.03.15 1.26.18 2.78-.21 3.99.15-2.68-.39-4.37-1.25-6.82z"/><path d="m38.49 19.53c-.49-.95-2.13-3.55-3.35-2.19-1.04 1.17.07 1.69.69 2.51 1.94 2.55 2.05 6.29.34 8.96-.52.81-2.16 2.07-1.06 2.98 1.2.99 1.98-.06 2.67-1 2.38-3.25 2.57-7.72.72-11.26z"/></g><path d="m46.03 15.04c-.09 0-.16.04-.23-.05-.2-.25-.29-.91-.45-1.23-.39-.77-1.99-2.21-2.11-2.95-.03-.17 0-.37 0-.55.18-.18.93.65 1.06.81.9 1.03 1.72 2.57 1.72 3.96z" fill="#fff"/><path d="m29.51 4.42c.36-.1.64.18.9.39.34.28 1.25 1.29 1.31 1.69l.02 13.84c.83.5 1.58.92 2.13 1.75 1.07 1.61 1.01 3.52-.07 5.09-.56.82-1.23 1.24-2.06 1.75l-.09 14.5c-.05.38-1.73 2.03-1.93 2.01-5.55-3.4-10.55-7.59-15.54-11.74-2.54-.28-5.19.24-7.72.09-2.13-.12-2.81-.74-3.39-2.77-.87-3.07-.92-10.32.24-13.28.54-1.39 1.14-1.82 2.64-1.91 2.77-.18 5.57.48 8.32.11 4.92-4.05 9.95-7.97 15.23-11.53zm-14.86 20.07c0 .83.01 1.67 0 2.49-.02 1.79-.22 3.53-.07 5.35.02.28-.07.6.07.85 3.97 3.42 8.03 6.75 12.34 9.72.44.31.93.56 1.37.86.31.21.61.69 1.03.66v-38.95s-.07-.1-.15-.08c-.15.04-.73.45-.9.57-4.76 3.22-9.18 6.94-13.65 10.54-.08 1.55-.02 3.11-.03 4.66v3.33zm15.32 19.94 1.03-1.06.07-.29v-36.51c-.03-.22-.68-.86-.88-1.02-.07-.06-.09-.14-.22-.11v39zm-25.73-26.97c-1.11 1.79-1.04 3.98-1.1 6.01s-.15 7.91 1.54 9.27c.06.05.37.25.41.25h7.44c0-1.92 0-3.84 0-5.76 0-1.08 0-2.17 0-3.26 0-2.36.07-4.75 0-7.11 0-.07 0-.15 0-.22h-7.37c-.54.06-.67.41-.91.81zm9.82-.66s0-.1 0-.15c-.23.12-1.04 0-1.14.14l-.03 16.16s.56.11.66.11c.22.01.44 0 .66 0-.02-1.6.02-3.2 0-4.8-.04-3.8 0-7.68-.15-11.47zm17.67 4.91c0 1.01-.08 2.05-.07 3.08v.95c0 .39.07.74.07 1.1 0 .45-.13.59 0 1.1.02.06-.04.2.04.22 1.56-.76 2.63-2.75 2.2-4.47-.11-.45-.4-1.04-.77-1.32-.04-.31-1.36-1.43-1.54-1.25-.08.18.07.47.07.59z" fill="#34180f"/><path d="m14.65 24.49c.01-1.1 0-2.23 0-3.33.01-1.55-.05-3.11.03-4.66 4.47-3.6 8.89-7.32 13.65-10.54.17-.12.75-.53.9-.57.08-.02.15.05.15.08v38.96c-.42.03-.72-.45-1.03-.66.1-.39.07-.78.07-1.17.01-1.1 0-2.2 0-3.3 0-5.13 0-10.26 0-15.39l-13.78.59z" fill="#f4d35e"/><path d="m29.97 44.43v-39c.13-.03.15.05.22.11.21.16.85.8.88 1.02v36.51s-.07.29-.07.29l-1.03 1.06z" fill="#d29f3a"/><path d="m14.65 24.49c0 .83.01 1.67 0 2.49-.02 1.79-.22 3.53-.07 5.35.02.28-.07.6.07.85 3.97 3.42 8.03 6.75 12.34 9.72.44.31.93.56 1.37.86.1-.39.07-.78.07-1.17.01-1.1 0-2.2 0-3.3 0-5.13 0-10.26 0-15.39z" fill="#d29f3a"/><path d="m14.06 16.8s0-.1 0-.15c-.23.12-1.04 0-1.14.14l-.03 16.16s.56.11.66.11c.22.01.44 0 .66 0-.02-1.6.02-3.2 0-4.8-.04-3.8 0-7.68-.15-11.47z" fill="#d29f3a"/><path d="m33.2 22.37c.37.28.66.87.77 1.32.43 1.72-.64 3.71-2.2 4.47-.08-.02-.02-.16-.04-.22.86-.29 1.94-1.89 1.98-2.75.02-.38-.3.2-.34.25-.43.55-.97 1.18-1.64 1.4 0-.35-.09-.83-.07-2.05 0-1.03.07-2.07.07-3.08.2-.01.38.06.56.13.21.09.73.39.9.53z" fill="#f4d35e"/><path d="m12.52 16.87c0-.07 0-.15 0-.22h-7.37c-.54.06-.67.41-.91.81-1.11 1.79-1.04 3.98-1.1 6.01.96.18 1.89.52 2.86.7 2.2.41 4.36.34 6.53-.19 0-2.36.07-4.75 0-7.11z" fill="#f4d35e"/><path d="m31.73 26.84c.68-.22 1.21-.85 1.64-1.4.04-.05.36-.63.34-.25-.04.86-1.12 2.46-1.98 2.75-.13-.51 0-.65 0-1.1z" fill="#d29f3a"/><path d="m33.2 22.37c-.18-.13-.7-.44-.9-.53-.18-.08-.36-.15-.56-.13 0-.12-.15-.4-.07-.59.18-.18 1.5.94 1.54 1.25z" fill="#fff"/><path d="m27.55 8.51c.07.57.18 1.15.22 1.72.09 1.34.04 2.69 0 4.03-.04 1.19-.04 2.38-.22 3.56l-.22.73c-.27-.28-.37-.96-.43-1.37-.25-1.68-.01-3.55-.85-5.07l-9.72 5.64c-.08-.08.59-.91.7-1.03 2-2.29 5.64-5.02 8.15-6.8.28-.2 2.19-1.59 2.37-1.41z" fill="#fff"/><path d="m12.52 23.98c-2.17.53-4.33.59-6.53.19-.97-.18-1.89-.52-2.86-.7-.06 2.03-.15 7.91 1.54 9.27.06.05.37.25.41.25h7.44c0-1.92 0-3.84 0-5.76 0-1.08 0-2.17 0-3.26z" fill="#d29f3a"/><path d="m11.57 17.82.14 1.68c-.15.22-4.68-.05-5.39 0-.53.04-.92.08-1.28.48-.32.35-.45.84-.73 1.21.12-.78.02-1.58.17-2.36.04-.23.26-1.01.53-1.01z" fill="#fff"/></svg>