<svg viewBox="0 0 51.84 49.44" xmlns="http://www.w3.org/2000/svg" xmlns:xlink="http://www.w3.org/1999/xlink"><radialGradient id="a" cx="1.44" cy="-.48" gradientTransform="matrix(19.08 0 0 -19.08 -15.69 11.11)" gradientUnits="userSpaceOnUse" r="1"><stop offset="0" stop-color="#cd5627"/><stop offset="1" stop-color="#b33024"/></radialGradient><linearGradient id="b" gradientTransform="matrix(0 -28.49 -28.49 -0 8.52 80.32)" gradientUnits="userSpaceOnUse" x1="1.44" x2="2.44" y1="-.46" y2="-.46"><stop offset="0" stop-color="#b33024"/><stop offset="1" stop-color="#cd5627"/></linearGradient><linearGradient id="c" gradientTransform="matrix(0 -27.41 -27.41 -0 25.53 78.76)" gradientUnits="userSpaceOnUse" x1="1.44" x2="2.44" y1="-.46" y2="-.46"><stop offset="0" stop-color="#a51e22"/><stop offset="1" stop-color="#b43725"/></linearGradient><linearGradient id="d"><stop offset="0" stop-color="#a11f22"/><stop offset="1" stop-color="#af3125"/></linearGradient><linearGradient id="e" gradientTransform="matrix(0 -27.41 -27.41 -0 25.53 78.76)" gradientUnits="userSpaceOnUse" x1="1.44" x2="2.44" xlink:href="#d" y1="-.47" y2="-.47"/><linearGradient id="f" gradientTransform="matrix(0 -27.41 -27.41 -0 25.53 78.76)" gradientUnits="userSpaceOnUse" x1="1.44" x2="2.44" xlink:href="#d" y1="-.69" y2="-.69"/><linearGradient id="g" gradientTransform="matrix(0 -29.68 -29.68 -0 25.69 83.06)" gradientUnits="userSpaceOnUse" x1="1.44" x2="2.44" y1="-.53" y2="-.53"><stop offset="0" stop-color="#ef4623"/><stop offset=".05" stop-color="#ef4623"/><stop offset="1" stop-color="#d83427"/></linearGradient><linearGradient id="h"><stop offset="0" stop-color="#f8961d"/><stop offset="1" stop-color="#fba919"/></linearGradient><linearGradient id="i" gradientTransform="matrix(0 -31.73 -31.73 -0 16.6 86.07)" gradientUnits="userSpaceOnUse" x1="1.44" x2="2.44" xlink:href="#h" y1="-.48" y2="-.48"/><linearGradient id="j" gradientTransform="matrix(0 -31.56 -31.56 -0 23.3 85.84)" gradientUnits="userSpaceOnUse" x1="1.44" x2="2.44" y1="-.48" y2="-.48"><stop offset="0" stop-color="#f47c20"/><stop offset="1" stop-color="#f26921"/></linearGradient><linearGradient id="k"><stop offset="0" stop-color="#f47a20"/><stop offset="1" stop-color="#f26921"/></linearGradient><linearGradient id="l" gradientTransform="matrix(19.78 0 0 -19.78 -.01 16.58)" gradientUnits="userSpaceOnUse" x1="1.44" x2="2.44" xlink:href="#k" y1="-.47" y2="-.47"/><linearGradient id="m" gradientTransform="matrix(0 -.59 -.59 -0 38.07 25.41)" gradientUnits="userSpaceOnUse" x1="1.44" x2="2.44" xlink:href="#h" y1="-.48" y2="-.48"/><linearGradient id="n" gradientTransform="matrix(0 -29.68 -29.68 -0 -6.17 83.07)" gradientUnits="userSpaceOnUse" x1="1.44" x2="2.44" xlink:href="#h" y1="-.47" y2="-.47"/><linearGradient id="o" gradientTransform="matrix(0 -29.81 -29.81 -0 -1.46 83.25)" gradientUnits="userSpaceOnUse" x1="1.44" x2="2.44" y1="-.48" y2="-.48"><stop offset="0" stop-color="#f26622"/><stop offset="1" stop-color="#f26921"/></linearGradient><linearGradient id="p" gradientTransform="matrix(0 -4.59 -4.59 -0 12.56 34.32)" gradientUnits="userSpaceOnUse" x1="1.44" x2="2.44" xlink:href="#h" y1="-.48" y2="-.48"/><linearGradient id="q"><stop offset="0" stop-color="#a22925"/><stop offset="1" stop-color="#b94029"/></linearGradient><linearGradient id="r" gradientTransform="matrix(0 -28.49 -28.49 -0 8.52 80.32)" gradientUnits="userSpaceOnUse" x1="1.44" x2="2.44" xlink:href="#q" y1="-.13" y2="-.13"/><linearGradient id="s"><stop offset="0" stop-color="#d44726"/><stop offset="1" stop-color="#d54926"/></linearGradient><linearGradient id="t" gradientTransform="matrix(0 -29.81 -29.81 -0 -1.46 83.25)" gradientUnits="userSpaceOnUse" x1="1.44" x2="2.44" xlink:href="#s" y1="-.45" y2="-.45"/><linearGradient id="u" gradientTransform="matrix(0 -28.49 -28.49 -0 8.52 80.32)" gradientUnits="userSpaceOnUse" x1="1.44" x2="2.44" xlink:href="#q" y1="-.9" y2="-.9"/><linearGradient id="v"><stop offset="0" stop-color="#971f22"/><stop offset="1" stop-color="#a42c26"/></linearGradient><linearGradient id="w" gradientTransform="matrix(0 -27.41 -27.41 -0 25.53 78.76)" gradientUnits="userSpaceOnUse" x1="1.44" x2="2.44" xlink:href="#v" y1="-.46" y2="-.46"/><linearGradient id="x"><stop offset="0" stop-color="#931f22"/><stop offset="1" stop-color="#a02a26"/></linearGradient><linearGradient id="y" gradientTransform="matrix(0 -27.41 -27.41 -0 25.53 78.76)" gradientUnits="userSpaceOnUse" x1="1.44" x2="2.44" xlink:href="#x" y1="-.48" y2="-.48"/><linearGradient id="z" gradientTransform="matrix(0 -27.41 -27.41 -0 25.53 78.76)" gradientUnits="userSpaceOnUse" x1="1.44" x2="2.44" xlink:href="#x" y1="-.74" y2="-.74"/><linearGradient id="A"><stop offset="0" stop-color="#d43526"/><stop offset=".05" stop-color="#d43526"/><stop offset="1" stop-color="#c42c28"/></linearGradient><linearGradient id="B" gradientTransform="matrix(0 -29.68 -29.68 -0 25.69 83.06)" gradientUnits="userSpaceOnUse" x1="1.44" x2="2.44" xlink:href="#A" y1="-.57" y2="-.57"/><linearGradient id="C"><stop offset="0" stop-color="#d55426"/><stop offset="1" stop-color="#d54926"/></linearGradient><linearGradient id="D" gradientTransform="matrix(0 -31.56 -31.56 -0 23.3 85.84)" gradientUnits="userSpaceOnUse" x1="1.44" x2="2.44" xlink:href="#C" y1="-.49" y2="-.49"/><linearGradient id="E" gradientTransform="matrix(0 -28.49 -28.49 -0 8.52 80.32)" gradientUnits="userSpaceOnUse" x1="1.44" x2="2.44" xlink:href="#q" y1="-.71" y2="-.71"/><linearGradient id="F" gradientTransform="matrix(0 -27.41 -27.41 -0 25.53 78.76)" gradientUnits="userSpaceOnUse" x1="1.44" x2="2.44" xlink:href="#v" y1="-.45" y2="-.45"/><linearGradient id="G" gradientTransform="matrix(0 -27.41 -27.41 -0 25.53 78.76)" gradientUnits="userSpaceOnUse" x1="1.44" x2="2.44" xlink:href="#x" y1="-.46" y2="-.46"/><linearGradient id="H" gradientTransform="matrix(0 -27.41 -27.41 -0 25.53 78.76)" gradientUnits="userSpaceOnUse" x1="1.44" x2="2.44" xlink:href="#x" y1="-.69" y2="-.69"/><linearGradient id="I" gradientTransform="matrix(0 -29.68 -29.68 -0 25.69 83.06)" gradientUnits="userSpaceOnUse" x1="1.44" x2="2.44" xlink:href="#A" y1="-.72" y2="-.72"/><linearGradient id="J" gradientTransform="matrix(0 -31.56 -31.56 -0 23.3 85.84)" gradientUnits="userSpaceOnUse" x1="1.44" x2="2.44" xlink:href="#C" y1="-.17" y2="-.17"/><linearGradient id="K"><stop offset="0" stop-color="#d55326"/><stop offset="1" stop-color="#d54926"/></linearGradient><linearGradient id="L" gradientTransform="matrix(19.78 0 0 -19.78 -.01 16.58)" gradientUnits="userSpaceOnUse" x1="1.44" x2="2.44" xlink:href="#K" y1="-.57" y2="-.57"/><linearGradient id="M" gradientTransform="matrix(0 -31.73 -31.73 -0 16.6 86.07)" gradientUnits="userSpaceOnUse" x1="1.44" x2="2.44" y1="-.31" y2="-.31"><stop offset="0" stop-color="#f47421"/><stop offset="1" stop-color="#f58120"/></linearGradient><linearGradient id="N" gradientTransform="matrix(0 -31.56 -31.56 -0 23.3 85.84)" gradientUnits="userSpaceOnUse" x1="1.44" x2="2.44" y1="-.19" y2="-.19"><stop offset="0" stop-color="#f26222"/><stop offset="1" stop-color="#f05423"/></linearGradient><linearGradient id="O" gradientTransform="matrix(15.26 0 0 -15.26 8.12 31.26)" gradientUnits="userSpaceOnUse" x1="1.44" x2="2.44" xlink:href="#k" y1="-.48" y2="-.48"/><linearGradient id="P" gradientTransform="matrix(0 -3.11 -3.11 -0 15.69 44.86)" gradientUnits="userSpaceOnUse" x1="1.44" x2="2.44" xlink:href="#h" y1="-.48" y2="-.48"/><linearGradient id="Q"><stop offset="0" stop-color="#fede00"/><stop offset="1" stop-color="#fee732"/></linearGradient><linearGradient id="R" gradientTransform="matrix(0 -1.4 -1.4 -0 16.27 39.37)" gradientUnits="userSpaceOnUse" x1="1.44" x2="2.44" xlink:href="#Q" y1="-.48" y2="-.48"/><linearGradient id="S" gradientTransform="matrix(0 -1.11 -1.11 -0 14.16 25.75)" gradientUnits="userSpaceOnUse" x1="1.44" x2="2.44" xlink:href="#Q" y1="-.48" y2="-.48"/><linearGradient id="T" gradientTransform="matrix(0 -28.49 -28.49 -0 8.52 80.32)" gradientUnits="userSpaceOnUse" x1="1.44" x2="2.44" xlink:href="#q" y1="-.26" y2="-.26"/><linearGradient id="U"><stop offset="0" stop-color="#d66326"/><stop offset="1" stop-color="#d76d26"/></linearGradient><linearGradient id="V" gradientTransform="matrix(0 -31.73 -31.73 -0 16.6 86.07)" gradientUnits="userSpaceOnUse" x1="1.44" x2="2.44" xlink:href="#U" y1="-.22" y2="-.22"/><linearGradient id="W" gradientTransform="matrix(0 -29.81 -29.81 -0 -1.46 83.25)" gradientUnits="userSpaceOnUse" x1="1.44" x2="2.44" xlink:href="#s" y1="-.31" y2="-.31"/><linearGradient id="X" gradientTransform="matrix(0 -4.59 -4.59 -0 12.56 34.32)" gradientUnits="userSpaceOnUse" x1="1.44" x2="2.44" xlink:href="#U" y1="-.55" y2="-.55"/><linearGradient id="Y"><stop offset="0" stop-color="#febb12"/><stop offset="1" stop-color="#ffc808"/></linearGradient><linearGradient id="Z" gradientTransform="matrix(0 -31.73 -31.73 -0 16.6 86.07)" gradientUnits="userSpaceOnUse" x1="1.44" x2="2.44" xlink:href="#Y" y1="-.31" y2="-.31"/><linearGradient id="aa" gradientTransform="matrix(0 -31.56 -31.56 -0 23.3 85.84)" gradientUnits="userSpaceOnUse" x1="1.44" x2="2.44" y1="-.15" y2="-.15"><stop offset="0" stop-color="#faa719"/><stop offset="1" stop-color="#f8981d"/></linearGradient><linearGradient id="ab" gradientTransform="matrix(0 -29.68 -29.68 -0 -6.17 83.07)" gradientUnits="userSpaceOnUse" x1="1.44" x2="2.44" xlink:href="#Y" y1="-.37" y2="-.37"/><linearGradient id="ac"><stop offset="0" stop-color="#f28321"/><stop offset="1" stop-color="#f4931f"/></linearGradient><linearGradient id="ad" gradientTransform="matrix(0 -29.68 -29.68 -0 -6.17 83.07)" gradientUnits="userSpaceOnUse" x1="1.44" x2="2.44" xlink:href="#ac" y1="-.34" y2="-.34"/><linearGradient id="ae" gradientTransform="matrix(0 -31.73 -31.73 -0 16.6 86.07)" gradientUnits="userSpaceOnUse" x1="1.44" x2="2.44" xlink:href="#ac" y1="-.27" y2="-.27"/><linearGradient id="af" gradientTransform="matrix(0 -31.73 -31.73 -0 16.6 86.07)" gradientUnits="userSpaceOnUse" x1="1.44" x2="2.44" y1="-.27" y2="-.27"><stop offset="0" stop-color="#f6a11d"/><stop offset="1" stop-color="#f7ab1b"/></linearGradient><linearGradient id="ag" gradientTransform="matrix(0 -4.59 -4.59 -0 12.56 34.32)" gradientUnits="userSpaceOnUse" x1="1.44" x2="2.44" xlink:href="#ac" y1="-1.44" y2="-1.44"/><linearGradient id="ah" gradientTransform="matrix(19.78 0 0 -19.78 -.01 16.58)" gradientUnits="userSpaceOnUse" x1="1.44" x2="2.44" y1="-.48" y2="-.48"><stop offset="0" stop-color="#f16022"/><stop offset="1" stop-color="#f05423"/></linearGradient><linearGradient id="ai" gradientTransform="matrix(0 -29.68 -29.68 -0 -6.17 83.07)" gradientUnits="userSpaceOnUse" x1="1.44" x2="2.44" xlink:href="#U" y1="-.5" y2="-.5"/><linearGradient id="aj" gradientTransform="matrix(0 -29.81 -29.81 -0 -1.46 83.25)" gradientUnits="userSpaceOnUse" x1="1.44" x2="2.44" xlink:href="#s" y1="-.4" y2="-.4"/><linearGradient id="ak" gradientTransform="matrix(0 -31.73 -31.73 -0 16.6 86.07)" gradientUnits="userSpaceOnUse" x1="1.44" x2="2.44" xlink:href="#U" y1="-.32" y2="-.32"/><linearGradient id="al" gradientTransform="matrix(0 -31.56 -31.56 -0 23.3 85.84)" gradientUnits="userSpaceOnUse" x1="1.44" x2="2.44" xlink:href="#C" y1="-.2" y2="-.2"/><linearGradient id="am" gradientTransform="matrix(0 -31.56 -31.56 -0 23.3 85.84)" gradientUnits="userSpaceOnUse" x1="1.44" x2="2.44" xlink:href="#C" y1="-.24" y2="-.24"/><linearGradient id="an" gradientTransform="matrix(0 -31.56 -31.56 -0 23.3 85.84)" gradientUnits="userSpaceOnUse" x1="1.44" x2="2.44" y1="-.21" y2="-.21"><stop offset="0" stop-color="#d44426"/><stop offset="1" stop-color="#d43d26"/></linearGradient><linearGradient id="ao" gradientTransform="matrix(15.26 0 0 -15.26 8.12 31.26)" gradientUnits="userSpaceOnUse" x1="1.44" x2="2.44" xlink:href="#K" y1="-.59" y2="-.59"/><linearGradient id="ap" gradientTransform="matrix(0 -3.11 -3.11 -0 15.69 44.86)" gradientUnits="userSpaceOnUse" x1="1.44" x2="2.44" xlink:href="#U" y1="-.66" y2="-.66"/><linearGradient id="aq" gradientTransform="matrix(0 -27.41 -27.41 -0 25.53 78.76)" gradientUnits="userSpaceOnUse" x1="1.44" x2="2.44" xlink:href="#v" y1="-.44" y2="-.44"/><linearGradient id="ar" gradientTransform="matrix(0 -27.41 -27.41 -0 25.53 78.76)" gradientUnits="userSpaceOnUse" x1="1.44" x2="2.44" xlink:href="#x" y1="-.47" y2="-.47"/><linearGradient id="as" gradientTransform="matrix(0 -27.41 -27.41 -0 25.53 78.76)" gradientUnits="userSpaceOnUse" x1="1.44" x2="2.44" xlink:href="#x" y1="-.61" y2="-.61"/><linearGradient id="at" gradientTransform="matrix(0 -29.68 -29.68 -0 25.69 83.06)" gradientUnits="userSpaceOnUse" x1="1.44" x2="2.44" xlink:href="#A" y1="-.66" y2="-.66"/><linearGradient id="au" gradientTransform="matrix(0 -31.56 -31.56 -0 23.3 85.84)" gradientUnits="userSpaceOnUse" x1="1.44" x2="2.44" xlink:href="#C" y1="-.21" y2="-.21"/><linearGradient id="av" gradientTransform="matrix(15.26 0 0 -15.26 8.12 31.26)" gradientUnits="userSpaceOnUse" x1="1.44" x2="2.44" xlink:href="#K" y1="-.37" y2="-.37"/><linearGradient id="aw" gradientTransform="matrix(0 -27.41 -27.41 -0 25.53 78.76)" gradientUnits="userSpaceOnUse" x1="1.44" x2="2.44" xlink:href="#v" y1="-.15" y2="-.15"/><linearGradient id="ax"><stop offset="0" stop-color="#cc3225"/><stop offset="1" stop-color="#dc5925"/></linearGradient><linearGradient id="ay" gradientTransform="matrix(0 -28.49 -28.49 -0 8.52 80.32)" gradientUnits="userSpaceOnUse" x1="1.44" x2="2.44" xlink:href="#ax" y1="-.29" y2="-.29"/><linearGradient id="az" gradientTransform="matrix(0 -28.49 -28.49 -0 8.52 80.32)" gradientUnits="userSpaceOnUse" x1="1.44" x2="2.44" xlink:href="#ax" y1="-.52" y2="-.52"/><linearGradient id="aA" gradientTransform="matrix(0 -28.49 -28.49 -0 8.52 80.32)" gradientUnits="userSpaceOnUse" x1="1.44" x2="2.44" xlink:href="#ax" y1="-.07" y2="-.07"/><linearGradient id="aB" gradientTransform="matrix(0 -28.49 -28.49 -0 8.52 80.32)" gradientUnits="userSpaceOnUse" x1="1.44" x2="2.44" y1="-.06" y2="-.06"><stop offset="0" stop-color="#c22a26"/><stop offset="1" stop-color="#d04227"/></linearGradient><linearGradient id="aC" gradientTransform="matrix(0 -31.56 -31.56 -0 23.3 85.84)" gradientUnits="userSpaceOnUse" x1="1.44" x2="2.44" xlink:href="#C" y1="-.76" y2="-.76"/><linearGradient id="aD" gradientTransform="matrix(0 -29.68 -29.68 -0 25.69 83.06)" gradientUnits="userSpaceOnUse" x1="1.44" x2="2.44" xlink:href="#A" y1="-.62" y2="-.62"/><linearGradient id="aE" gradientTransform="matrix(15.26 0 0 -15.26 8.12 31.26)" gradientUnits="userSpaceOnUse" x1="1.44" x2="2.44" xlink:href="#K" y1="-.58" y2="-.58"/><linearGradient id="aF" gradientTransform="matrix(0 -28.49 -28.49 -0 8.52 80.32)" gradientUnits="userSpaceOnUse" x1="1.44" x2="2.44" xlink:href="#q" y1="-.16" y2="-.16"/><linearGradient id="aG" gradientTransform="matrix(0 -29.81 -29.81 -0 -1.46 83.25)" gradientUnits="userSpaceOnUse" x1="1.44" x2="2.44" xlink:href="#s" y1="-.36" y2="-.36"/><linearGradient id="aH" gradientTransform="matrix(0 -1.4 -1.4 -0 16.27 39.37)" gradientUnits="userSpaceOnUse" x1="1.44" x2="2.44" y1="3.42" y2="3.42"><stop offset="0" stop-color="#d78626"/><stop offset="1" stop-color="#d68b32"/></linearGradient><linearGradient id="aI"><stop offset="0" stop-color="#ae2c25"/><stop offset="1" stop-color="#c74a28"/></linearGradient><linearGradient id="aJ" gradientTransform="matrix(0 -28.49 -28.49 -0 8.52 80.32)" gradientUnits="userSpaceOnUse" x1="1.44" x2="2.44" xlink:href="#aI" y1="-.28" y2="-.28"/><linearGradient id="aK" gradientTransform="matrix(0 -28.49 -28.49 -0 8.52 80.32)" gradientUnits="userSpaceOnUse" x1="1.44" x2="2.44" xlink:href="#aI" y1="-.48" y2="-.48"/><linearGradient id="aL" gradientTransform="matrix(0 -4.59 -4.59 -0 12.56 34.32)" gradientUnits="userSpaceOnUse" x1="1.44" x2="2.44" xlink:href="#ac" y1=".56" y2=".56"/><path d="m8.15 38.86s-6.11-15-3.37-21.94c2.75-6.94 18.87-6.52 22.27 0s-1.45 22.36-1.45 22.36l-17.46-.42" fill="url(#a)"/><path d="m12.2 36.71c.42.04.93.08 1.5.12 0-.01-.01-.03-.02-.04-.51-.02-1.03-.04-1.49-.07m-1.4-.18s0 0 0 0m18.16-6.53c.09.7.2 1.37.31 2.03-.06-.42-.11-.85-.16-1.28-.01.05-.02.09-.02.14zm-17.55-.77c-2.14.8-2.2 1.9-2.5 1.9-.04 0-.07-.02-.12-.05.4 1.33.84 2.55 1.26 3.62.54.7 1.07 1.29 1.44 1.46.46.22 1.3.37 2.16.47-.65-1.78-1.55-4.47-2.25-7.41m10.71 6.82c-.26 0-.47-.03-.56-.09-.35-.22-1.56-6.56-.96-6.56h.01s2.55.48 2.88 1.14c.33.65.86 4.28.67 4.85-.14.43-1.3.65-2.04.65m-2.72-7.46c.51 3.13 1.19 6.03 1.69 7.94.39-.04.76-.07 1.08-.07.77-.13 1.55-.28 2.32-.48-.25-1.59-.51-3.49-.72-5.51-.15-.22-1.16-1.46-4.36-1.88m-5.13 7.87c-.65 0-1.92-6.37-1.42-7.04.17-.23.79-.32 1.57-.32 1.53 0 3.68.34 4.28.66.91.48 1.82 6.36 1.62 6.69-.06.1-.54.13-1.22.13s-1.61-.04-2.45-.07c-.84-.04-1.62-.07-2.06-.07-.14 0-.25 0-.32.01 0 0 0 0-.01 0m2.8-8c-.47 0-.98.02-1.52.05-1.79.11-3.07.38-3.98.7.65 2.95 1.52 5.67 2.14 7.47 1.33.15 2.68.19 2.68.19s-1.29-.02-2.64-.07c0 .01 0 .03.01.04.74.04 1.59.07 2.52.07.98 0 2.04-.03 3.14-.12.48-.1 1.06-.19 1.62-.25-.52-1.91-1.22-4.8-1.69-7.95-.66-.09-1.42-.14-2.28-.14m-9.74-4.75s0 0 0 0zm21.35-2c-.07.14-.12.22-.14.22-.01 0-.02-.01-.03-.04 0 0 0 0 0-.01-.06 1.38-.03 2.79.06 4.2l-.08-1.9h.16c-.01-.84 0-1.66.04-2.46m-9.47-5.15c-.42.77-.75 1.38-.85 1.58-.27.51-4.55 1.5-6.53 1.5-.62 0-1.02-.1-1-.34-.21 1.28-.24 2.69-.14 4.16 2.25-.15 5.3-.32 8.08-.37-.12-2.19-.06-4.29.33-6.04.04-.17.08-.33.12-.49m11.41-2.1c-.69.79-1.2 1.74-1.49 2.84-.2.76-.35 1.56-.45 2.38.23-1.64.76-3.82 1.94-5.22m-19.15-.41c-.79.49-1.49 1.04-1.97 1.64-.41.51-.75 1.11-1.02 1.74.61-1.08 1.73-2.51 2.99-3.38m4.27-1.58c-1.5.83-3.15 2.16-4.14 4.24 1.07-2.08 2.94-3.43 4.14-4.24zm-.73-.11c-.92.35-1.9.78-2.81 1.27h.01c.43-.2.65-.3.73-.3.33 0-2.07 1.89-2.43 5.85-.35.17-.74.25-1.1.25-.69 0-1.29-.27-1.4-.69-.73 2.47-.71 4.97-.71 4.97s1.27-.11 3.14-.23c-.12-1.5-.11-2.95.07-4.29.52-3.77 2.54-5.76 4.5-6.82m21.2-.71c-.72.07-1.42.21-2.09.43l-.11.04c-1.16.45-2.2 1.1-3.04 1.94l-.04.04s-.04.04-.06.06c1.21-1.22 3.04-2.15 5.34-2.52m-10.84-.83c-1.59.03-3.29.11-5.06.26s0 0-.02 0c-.4.03-.8.07-1.2.11-.29.06-1.39.31-2.72.94 1.43-.6 3.98-1.02 5.29-1.02.68 0 1.03.11.73.37-.18.15-.4.44-.67.81 1.26-1.03 2.66-1.37 3.63-1.47m1.63-.01c-.12 0-.24 0-.36 0-.26 0-.53 0-.8 0-.9.08-2.41.42-3.8 1.71 1.01-.86 3.64-1.48 4.8-1.48.54 0 .77.13.35.44-1.34.99-4.02 6.25-4.53 6.49-.29.13-1.26.36-2.04.36-.58 0-1.06-.13-1.04-.52 0 0 1.06-3.78 2.3-5.14-1.06 1.04-2.03 2.66-2.58 5.16-.36 1.61-.48 3.4-.45 5.25.53 0 1.06-.02 1.56-.02 1.07 0 2.06.02 2.9.08 0-1.55.08-3.02.28-4.31.57-3.82 2.4-6.41 4.86-8.01-.48 0-.97-.01-1.47-.01" fill="url(#b)"/><path d="m38.97 36.95c2.15.03 4.15.06 5.31.09s0-.02.01-.04l-2.99-.03s0 0 0 0-2.33-.03-2.33-.03m7.07-6.43c-.21.89-.44 1.69-.69 2.33-.84 2.1-1.87 3.08-2.59 3.51.3-.03.5-.07.59-.12.62-.35 1.81-2.6 2.37-3.71.16-.56.32-1.14.47-1.72-.05-.08-.1-.18-.15-.29m-12.33-1.37c-2.45.31-4.4.8-4.61 1.61.05.44.1.86.16 1.28.11.64.22 1.25.33 1.83 0-.03 0-.05 0-.05l.02.1c.04.19.08.39.11.57.17.71.53 1.73 1.16 1.73.29 0 1.46.04 2.98.09l-.13-7.17m.67-.07c-.14.01-.27.03-.4.05-.03 3.29-.1 6.08-.13 7.21.66.02 1.38.04 2.12.06-.66-.06-1.15-.16-1.27-.33-.16-.23-.29-3.28-.33-6.99m7.45-.46c-.07 0-.13 0-.2 0-.24 4.26-.48 7.81-.6 7.81 0 0-.02 0-.04 0h.33zm.77-.02c-.14 0-.29.01-.45.02-.32 3.6-.66 6.62-.8 7.83.17 0 .34 0 .49-.02.02-.91.33-4.14.75-7.83m4.6-9.01c.07.86-.01 2.72-.22 4.83.18.01.34.03.48.04.16-1.38.22-2.69.14-3.86-.11-.29-.24-.64-.39-1.01m-13.74-3.53c-3.17 1.79-4.4 4.8-4.81 5.64-.04.8-.05 1.62-.04 2.46 1.7-.09 3.38-.14 4.99-.16l-.15-7.94m1.41-.65c-.37.14-.73.3-1.06.47.14 2.17.2 5.12.21 8.12h.38c.04-3.94.18-7.57.48-8.59m8.03-.12c.01 2.56-.15 5.74-.38 8.86.21 0 .42.02.63.03.44-3.38.92-6.54 1.32-8.11-.45-.3-.97-.56-1.57-.78m-.57-.18c-.07 1.56-.25 5.19-.45 9.02.08 0 .17 0 .25.01l.58-8.91c-.12-.04-.25-.08-.37-.11" fill="url(#c)"/><path d="m41.64 28.61c-2 .07-4.79.18-7.24.45.04 3.71.16 6.76.33 6.99.11.16.6.26 1.27.33 1.34.03 2.75.06 3.97.06h1.04.04c.12 0 .36-3.56.6-7.81m-2.6-13.95s-.08 0-.12 0c-1.58.01-2.92.28-4.06.71-.29 1.01-.44 4.65-.48 8.59h1.06c2.36 0 4.55.06 6.43.13.2-3.83.38-7.46.45-9.02-.91-.26-2-.41-3.29-.41" fill="url(#e)"/><path d="m44.28 28.48s-.09 0-.14 0c-.26.03-.8.06-1.53.09-.43 3.68-.74 6.91-.75 7.83.35-.01.66-.03.9-.06.73-.43 1.75-1.41 2.59-3.51.25-.63.48-1.43.69-2.33-.11-.21-.22-.46-.34-.72-.33-.65-.75-1.31-1.43-1.31m.2-12.42c-.39 1.57-.87 4.73-1.32 8.11 1.63.08 2.94.17 3.83.23.21-2.11.29-3.97.22-4.83-.47-1.13-1.21-2.51-2.73-3.52" fill="url(#f)"/><path d="m48.89 20.15c-.06.85-.29 1.41-.59 1.41-.02 0-.04 0-.06 0-.25-.06-.43-.43-.64-.98.09 1.17.03 2.48-.14 3.86.5.04.78.07.78.07s-.3 2.57-.42 3.22-.22 2.09-1 3.18c-.1.14-.19.2-.28.2-.12 0-.23-.12-.35-.31-.15.58-.31 1.16-.47 1.72.19-.38.31-.63.31-.63l-1.34 5.12h-.4s0 .02-.01.03c.6.02.97.04 1.01.05.18.09-.02 1.87-.14 2.75s.1.01.1.01c.05-.15.11-.34.19-.56 1-3 3.74-11.99 3.46-19.15m-10.31-8.85c-1.55 0-3.09.26-4.47.79l-.11.04.11-.04c.67-.22 1.37-.37 2.09-.43.7-.11 1.44-.17 2.22-.17 1.64 0 3.45.27 5.39.87-1.6-.7-3.42-1.06-5.24-1.06" fill="url(#g)"/><path d="m33.41 12.83.44 24.03s.58-20.92-.44-24.03" fill="#8d191d"/><path d="m42.84 13.13-1.54 23.84s1.98-16.64 1.54-23.84" fill="#8d191d"/><path d="m25.22 40.37s3.39 0 3.39 0-3.39 0-3.39 0m11.3-31.72c-2.91 0-5.77.65-8.07 2.15-2.47 1.61-4.29 4.19-4.86 8.01-.19 1.29-.28 2.76-.28 4.31l.16 4.15.3 3.22s0-.01-.02-.03c.21 2.01.48 3.92.72 5.51.02 0 .03 0 .05-.01l.23 1.4.4 2.48c1.73-.02 2.91-.03 3.32-.03-.51-1.92-2.06-8.29-1.99-15.01 0-.96.03-1.86.11-2.65 0-.02 0-.03 0-.05.15-1.83.44-3.64.92-5.36.03-.09.05-.18.08-.27-.43 1.04-.81 1.91-.96 1.98-.15.08-.72.22-1.29.26.52.03 1.05.13 1.12.4.15.55-.43 3.59-.62 3.71-.09.05-.51.1-.95.1-.57 0-1.18-.07-1.12-.3.1-.4-.15-3.89.44-3.89h.02s.19-.02.46-.02c-.44-.06-.76-.23-.71-.62.29-2.45 1.8-4.77 2.49-5.15.42-.24 1.48-.51 2.13-.51.41 0 .67.11.51.4-.13.24-.39.85-.69 1.6 2.02-3.9 5.8-5.59 9.67-5.59.72 0 1.45.06 2.17.17-1.23-.22-2.48-.34-3.73-.34" fill="url(#i)"/><path d="m28.9 40.37h-.29s0 .01 0 .01l.29-.02m.7-6.44.04.24c.02.1.04.21.07.33-.04-.19-.08-.38-.11-.57m20.02-4.71c-.97 5.95-2.49 11.11-2.49 11.11h-2.05 2.05s1.51-5.15 2.49-11.11zm-23.16-4.42c-.06 6.73 1.48 13.1 1.99 15.01h.16c-.56-.48-2.12-9.04-2.16-15.01m11.63-15.97c-3.86 0-7.65 1.69-9.67 5.59-.26.64-.55 1.38-.83 2.05-.03.09-.05.18-.08.27-.49 1.72-.78 3.53-.92 5.36.62-5.62 3.48-10.33 5.25-11.16.23-.11.37-.16.45-.16.52 0-2.16 2.39-3.39 6.33-1.41 4.5-.84 15.88 2.09 23.13s-.04-.13-.04-.13c0-.03-.02-.07-.03-.11l-.82-3.14h.11-.1s-.46-2.7-.46-2.7c-.03-.13-.04-.23-.05-.29-.11-.58-.22-1.2-.33-1.83-.11-.66-.21-1.33-.31-2.03l-.33-2.29-.07-1.66c-.09-1.41-.12-2.83-.06-4.2 0-.11.02-1.01.18-2.19.11-.83.25-1.63.45-2.38.29-1.1.8-2.05 1.49-2.84.08-.1.16-.19.25-.28.02-.02.04-.04.06-.06l.04-.04c.84-.84 1.88-1.49 3.04-1.94l.11-.04c1.38-.53 2.92-.79 4.47-.79 1.81 0 3.64.36 5.24 1.06 4.17 1.31 5.22 5.56 5.07 7.8.29 7.17-2.46 16.15-3.46 19.15-.07.22-.14.41-.19.56.28.03 1.09.12 1.51.12.09 0 .17 0 .21-.02.28-.07 2.59-10.49 2.64-10.75.59-3.56.98-7.41.75-10.61-.37-5.19-5.05-8.8-10.13-9.61-.72-.12-1.45-.17-2.17-.17" fill="url(#j)"/><path d="m36.15 27.66c-3.46 0-7.27-.07-7.36-.15-.16-.16-.15-2.68-.15-2.68.06-.22 1.24-.3 2.87-.3 3.59 0 9.39.42 10.23.79 1.22.54.39 1.95 0 2.19-.18.11-2.77.15-5.58.15m-7.69-3.51.08 1.9.07 1.66c3.79.03 7.18.04 10.03.04 5.69 0 9.18-.04 9.18-.04.12-.65.42-3.22.42-3.22-1.2.05-2.61.07-4.1.07-6.87 0-15.68-.41-15.68-.41z" fill="url(#l)"/><path d="m35.46 23.97c-.35 0-.71 0-1.06 0-.13 0-.25 0-.38 0s-.27 0-.4 0c-1.62.02-3.3.07-4.99.16-.05 0-.1 0-.16 0s8.8.41 15.68.41c1.49 0 2.9-.02 4.1-.07s-.27-.03-.78-.07c-.14-.01-.3-.02-.48-.04-.89-.07-2.2-.15-3.83-.23-.2 0-.41-.02-.63-.03-.13 0-.26-.01-.4-.02-.08 0-.16 0-.25-.01-1.87-.08-4.06-.13-6.43-.13" fill="url(#m)"/><path d="m4.78 24.86c-.67 0-1.87-.19-2.02-.47-.2-.35-.3-3.71-.26-3.91 0 0 1.15-.14 1.94-.14.39 0 .7.04.73.14.08.32.35 4.2 0 4.34-.07.03-.21.04-.38.04m8.14-14.18c-1.81.13-6.31.79-8.75 4.12.95-1.05 2-1.55 2.63-1.55.12 0 .22.02.31.05.53.22-1.16 2.8-1.95 6.31-.08.36-.75.44-1.4.44s-1.27-.09-1.27-.09.4-2.85 1.22-4.47c-.47.82-.83 1.77-1.02 2.89-1.63 9.51 5.15 21.93 5.15 21.93l-.77-1.53s.43.7 3.16 1.06c-.89-1.91-4.21-9.41-4.75-15.56-.63-7.1 1.66-12.78 6.61-13.52.29-.04.57-.08.84-.11" fill="url(#n)"/><path d="m14.5 38.86s-5.06-11.87-3.99-19.7c1.08-7.84 8.65-8 8.65-8s-6.55 1.14-8.13 7.05c-1.93 7.24 3.46 20.64 3.46 20.64" fill="#9f1d20"/><path d="m21.71 38.86s-4.29-14.23-2.63-21.83c1.53-7 7.55-6.24 7.55-6.24s-5.63-.65-7.34 7.03c-1.81 8.14 2.42 21.04 2.42 21.04" fill="#9f1d20"/><path d="m13.12 10.66c-.06 0-.13.01-.19.02-.27.03-.56.07-.84.11-4.95.74-7.24 6.42-6.61 13.52.55 6.14 3.87 13.64 4.75 15.56h.01l-1.11-2.51 1.65-.82c-.07-.02-.14-.03-.22-.03-.66 0-1.43.85-1.43.85s-1.81-5.24-1.65-5.79c0-.03.03-.05.05-.05.27 0 1.42 1.82 2.49 3.2-.42-1.07-.86-2.29-1.26-3.62-.6-.44-2.12-3.82-2.12-3.82s-.7-2.18-.58-3.12c.02-.13.34-.24.88-.34l.35-.13s-1.62-2.14-1.88-3.03c0 0 1.16-7.31 5.11-9.2.87-.42 1.74-.66 2.59-.79m2.55-.15c-.22 0-.45 0-.69.01 2.14.03 3.72.63 3.72.63s-.18.05-.5.13c.35-.05.66-.09.93-.13.65-.08 1.08-.1 1.17-.1h.02c-.06-.02-1.81-.55-4.65-.55" fill="url(#o)"/><path d="m6.96 23.82c-.54.1-.87.21-.88.34zm6.02 3.5-5.92-.17c-.16-.65 1.54-1.3 3-1.3.2 0 .39.01.57.04 1.55.21 2.34 1.43 2.34 1.43m1.79-.39-1.11-.02.14-.87s-.64-.75-.44-1.23c.12-.29.42-.42.69-.42.17 0 .33.05.41.15.21.25-.15 1.43-.15 1.43l.46.95m1.26.4c-.43 0-.73-.01-.81-.04-.45-.17.01-2.81.64-3.01.51-.16 4.85-.79 6.52-.79.39 0 .64.03.66.12 0 0 .41 3.2.27 3.33-.12.1-5.25.39-7.29.39m7.3-4.19s-5.46.56-11.44.85c0 0-1.52 1.5-2.41 1.5-.89 0-3.23-1.1-2.34-1.34-.35 0-.7 0-1.04.01-.12.95.58 3.12.58 3.12 1.97.14 4.49.18 6.98.18 4.98 0 9.82-.18 9.82-.18l-.16-4.15" fill="url(#p)"/><path d="m13.65 26.91.14-.87s-.64-.75-.44-1.23.89-.51 1.1-.27c.21.25-.15 1.43-.15 1.43l.46.95-1.11-.02" fill="#9f1d20"/><path d="m14.81 10.53c-.54 0-1.1.04-1.69.13.65-.07 1.27-.11 1.85-.13-.05 0-.11 0-.17 0" fill="#d89297"/><path d="m17.43 11.42c-3.54.66-9.18 2.49-9.97 7.52-.24 1.54-.27 3.14-.15 4.74s-.02-2.5.71-4.97c-.05-.21.13-.7.47-1.3.27-.63.61-1.23 1.02-1.74.48-.6 1.17-1.15 1.97-1.64.24-.16.48-.31.73-.42.91-.49 1.89-.92 2.81-1.27.86-.46 1.71-.74 2.41-.91" fill="url(#r)"/><path d="m18.2 11.29c-.24.04-.5.08-.77.13-.7.17-1.55.45-2.41.91 1.33-.51 2.54-.87 3.18-1.04" fill="#911e21"/><path d="m14.97 10.53c-.58.02-1.2.06-1.85.13-.84.13-1.72.38-2.59.79-3.94 1.89-5.11 9.2-5.11 9.2.27.89 1.86 3 1.88 3.03-.12-1.6-.09-3.2.15-4.74.79-5.03 6.43-6.86 9.97-7.52.27-.05.53-.09.77-.13.32-.09.5-.13.5-.13s-1.59-.6-3.72-.63" fill="url(#t)"/><path d="m38.86 11.73c.19.03.37.07.53.09-.18-.04-.35-.07-.53-.09" fill="#d89297"/><path d="m37.17 11.6c-.32 0-.64.01-.96.04-2.3.37-4.13 1.3-5.34 2.52-.09.09-.17.18-.26.28-1.19 1.4-1.71 3.59-1.94 5.22-.09.71-.15 1.44-.18 2.19v.01c0 .03.01.04.03.04.03 0 .07-.08.14-.22.09-1.79.32-3.43.76-4.76 1.13-3.42 4.95-5.05 8.89-5.05.57 0 1.15.03 1.72.1-.21-.06-.42-.1-.64-.15-.16-.03-.33-.06-.53-.09-.56-.09-1.13-.13-1.69-.13" fill="url(#u)"/><path d="m38.3 11.87c-3.93 0-7.76 1.63-8.89 5.05-.44 1.33-.67 2.97-.76 4.76.41-.84 1.64-3.85 4.81-5.64l-.06-3.21c.18.54.31 1.62.4 3.03.33-.17.69-.33 1.06-.47.04-.13.08-.22.12-.26.6-.56 3.81-1.18 5.81-1.18.8 0 1.41.1 1.58.34 0 0-.01.29-.04.8.13.04.25.07.37.11l.13-2.07c.04.64.06 1.36.06 2.14.6.22 1.12.48 1.57.78.16-.66.31-1.04.44-1.04s2.06 2.6 2.27 4.4c0 .05.01.1.02.16.15.37.28.71.39 1.01-.03-.43-.08-.84-.16-1.23-.73-3.83-3.9-6.44-7.42-7.36-.57-.07-1.15-.1-1.72-.1" fill="url(#w)"/><path d="m40.79 13.95c-2 0-5.21.62-5.81 1.18-.04.04-.08.13-.12.26 1.15-.43 2.49-.7 4.06-.71h.12c1.29 0 2.37.15 3.29.41.02-.51.04-.8.04-.8-.17-.24-.78-.34-1.58-.34" fill="url(#y)"/><path d="m44.91 15.01c-.12 0-.27.38-.44 1.04 1.52 1.01 2.26 2.39 2.73 3.52 0-.06 0-.11-.02-.16-.21-1.8-2.27-4.4-2.27-4.4z" fill="url(#z)"/><path d="m38.43 11.47c-.78 0-1.52.06-2.22.17.32-.03.64-.04.96-.04.56 0 1.13.04 1.69.13.18.03.35.06.53.09.21.04.42.09.64.15 3.52.93 6.68 3.53 7.42 7.36.07.39.13.8.16 1.23.21.54.39.92.64.98h.06c.3 0 .53-.56.59-1.41-.02-.58-.07-1.15-.13-1.7-.35-2.91-2.34-4.96-4.93-6.09-1.94-.61-3.75-.87-5.39-.87" fill="url(#B)"/><path d="m33.41 12.83.06 3.21c.11-.06.22-.12.34-.18-.09-1.41-.22-2.49-.4-3.03" fill="#81191d"/><path d="m42.84 13.13-.13 2.07c.07.02.13.04.2.07 0-.78-.02-1.49-.06-2.14" fill="#81191d"/><path d="m28.67 19.67c-.17 1.18-.18 2.07-.18 2.19.03-.74.09-1.47.18-2.19m2.2-5.51s0 0 0 0c-.09.09-.17.18-.25.28.08-.1.17-.19.26-.28m12.95-1.81c2.6 1.14 4.58 3.19 4.93 6.09.07.55.11 1.12.13 1.7.16-2.24-.89-6.48-5.07-7.8" fill="url(#D)"/><path d="m28.68 27.72c.08.78.17 1.54.27 2.29l.13.89s0-.1.02-.14c-.12-.98-.22-2-.3-3.03-.05 0-.09 0-.12 0" fill="url(#E)"/><path d="m42.22 28c-.02.2-.04.4-.05.59.16 0 .31-.01.45-.02.02-.19.04-.38.07-.57-.15 0-.31 0-.46 0m-.56 0c-.01.21-.02.41-.03.61h.2l.04-.6c-.07 0-.14 0-.21 0m5.21-.1c-.11 0-.22.02-.35.02-.14.9-.31 1.78-.49 2.58.05.11.1.2.15.29.25-.95.48-1.92.69-2.89m-12.87-.04c0 .42 0 .83-.01 1.24.13-.02.27-.03.4-.05 0-.39 0-.78-.01-1.18-.13 0-.26 0-.38 0m-5.21-.16c.08 1.03.18 2.05.3 3.03.21-.81 2.17-1.31 4.61-1.61l-.02-1.28c-2.4-.06-4.31-.12-4.89-.14" fill="url(#F)"/><path d="m34.39 27.88c0 .4 0 .79.01 1.18 2.45-.27 5.24-.38 7.24-.45.01-.2.02-.41.03-.61-2.34-.01-4.99-.06-7.29-.12" fill="url(#G)"/><path d="m46.53 27.93c-.91.05-2.22.07-3.74.07-.04 0-.08 0-.11 0-.02.19-.04.38-.07.57.73-.03 1.27-.05 1.53-.09h.14c.68 0 1.1.65 1.43 1.31.13.25.24.5.34.72.18-.8.35-1.68.49-2.58" fill="url(#H)"/><path d="m47.83 27.72c-.02.08-.36.15-.95.19-.2.97-.44 1.94-.69 2.89.11.19.22.31.35.31.09 0 .18-.06.28-.2.79-1.09 1-3.18 1-3.18" fill="url(#I)"/><path d="m33.69 27.86.02 1.28c.09-.01.19-.02.28-.03 0-.41 0-.82.01-1.24-.11 0-.21 0-.32 0" fill="#81191d"/><path d="m41.88 28-.04.6c.11 0 .22 0 .32-.01.02-.2.04-.39.05-.59-.11 0-.22 0-.33 0" fill="#81191d"/><path d="m28.62 27.72.33 2.29c-.1-.75-.19-1.51-.27-2.29-.04 0-.06 0-.06 0" fill="url(#J)"/><path d="m47.83 27.72s-3.49.04-9.18.04c-2.85 0-6.24 0-10.03-.04s.02 0 .06 0h.12c.58.02 2.49.08 4.89.14h.32.38c2.3.06 4.95.11 7.29.12h.21.33.46.11c1.52 0 2.83-.02 3.74-.07.12 0 .24-.01.35-.02.59-.04.93-.11.95-.19" fill="url(#L)"/><path d="m26.58 22.1s0 .03 0 .05c-.08.78-.12 1.68-.11 2.65 0-.9.05-1.8.12-2.69" fill="url(#M)"/><path d="m32.28 10.78c-.08 0-.22.05-.45.16-1.77.82-4.63 5.54-5.25 11.16-.07.9-.11 1.8-.12 2.69.04 5.97 1.6 14.54 2.16 15.01l2.36.43c-2.94-7.24-3.5-18.63-2.09-23.13 1.23-3.93 3.9-6.33 3.39-6.33" fill="url(#N)"/><path d="m30.2 36.86h-.11l.82 3.14.03.11.04.13.18.03h.07s11.86-.01 11.86-.01l-11.86.02 13.92-.42s0 0 0 0c.11-.88.32-2.66.14-2.75-.04-.02-.41-.04-1.01-.05-1.15-.03-3.16-.06-5.31-.09l-8.77-.09" fill="url(#O)"/><path d="m16.88 40.35 8.35.03s-8.34-.03-8.34-.03m7.85-2.99h-.53c.11.12.17.21.17.21l-5.96-.21h-9.28l1.11 2.51c.94.12 2.16.21 3.73.21.47 0 .98 0 1.52-.02 3.9-.12 7.29-.18 9.64-.21l-.4-2.48" fill="url(#P)"/><path d="m10.79 36.54s-1.65.82-1.65.82h9.28c-.37-.19.16-.41.98-.58-1.11.09-2.17.12-3.14.12s-1.78-.03-2.52-.07c-.01 0-.03 0-.04 0-.57-.03-1.08-.07-1.5-.12-.67-.04-1.21-.1-1.41-.17zm13.72-.58s-.03 0-.05.01c-.77.19-1.55.35-2.32.48h.2c.27 0 .48.02.61.05.56.16 1.02.6 1.25.86h.53l-.23-1.4" fill="url(#R)"/><path d="m20.41 23.04c-.51 0-1.03 0-1.56.02-.03 0-.06 0-.09 0-2.78.05-5.83.22-8.08.37-.08 0-.15.01-.23.02-1.87.13-3.14.23-3.14.23s-.35.13-.35.13l-.88.34c.34 0 .69 0 1.04-.01l4.76-.16s0 0 0 0c5.97-.29 11.44-.85 11.44-.85-.84-.06-1.83-.08-2.9-.08" fill="url(#S)"/><path d="m19.19 27.55c-1.77.09-3.89.17-5.97.17-.67 0-1.34 0-1.99-.03.1.5.2 1.01.31 1.5.92-.32 2.19-.59 3.98-.7.54-.03 1.05-.05 1.52-.05.86 0 1.62.05 2.28.14-.05-.34-.1-.68-.14-1.03m-11.33-.09c.26 1.27.58 2.49.93 3.64.05.03.08.05.12.05.3 0 .36-1.1 2.5-1.9-.12-.51-.24-1.03-.34-1.56-1.16-.04-2.26-.11-3.21-.22m15.61-.19c-.13.01-1.86.15-4.24.27.05.35.1.69.16 1.04 3.21.42 4.21 1.66 4.36 1.88-.11-1.04-.21-2.12-.28-3.19" fill="url(#T)"/><path d="m23.47 27.27s0 0 0 0c.07 1.07.17 2.15.28 3.19.02.02.02.03.02.03z" fill="url(#V)"/><path d="m11.06 27.68c.11.53.22 1.05.34 1.56.05-.02.1-.04.15-.05-.11-.49-.21-1-.31-1.5-.06 0-.12 0-.18 0" fill="#911e21"/><path d="m19.22 27.55s-.02 0-.03 0c.04.35.09.69.14 1.03h.05c-.06-.34-.11-.69-.16-1.04" fill="#911e21"/><path d="m6.66 27.27s1.52 3.38 2.12 3.82c-.35-1.15-.67-2.37-.93-3.64-.43-.05-.83-.11-1.19-.19" fill="url(#W)"/><path d="m23.47 27.27s-4.84.18-9.82.18c-2.49 0-5.01-.05-6.98-.18.36.07.76.13 1.19.19.95.12 2.05.19 3.21.22h.18c.65.02 1.31.03 1.99.03 2.07 0 4.2-.08 5.97-.17h.03c2.38-.12 4.11-.26 4.24-.27" fill="url(#X)"/><path d="m28.59 12.41c-.65 0-1.71.27-2.13.51-.69.39-2.2 2.71-2.49 5.15-.05.39.28.56.71.62h.2c.14 0 .3 0 .45.01.57-.04 1.14-.18 1.29-.26.14-.08.53-.95.96-1.98.23-.74.5-1.42.83-2.05.3-.74.56-1.36.69-1.6.16-.3-.09-.4-.51-.4" fill="url(#Z)"/><path d="m28.41 14.42c-.32.63-.6 1.31-.83 2.05.28-.67.57-1.4.83-2.05" fill="url(#aa)"/><path d="m4.18 14.8c-.17.18-.32.43-.46.71.14-.25.3-.48.46-.71" fill="#fff"/><path d="m6.81 13.25c-.63 0-1.68.5-2.63 1.55-.16.22-.32.46-.46.71-.82 1.61-1.22 4.47-1.22 4.47s.62.09 1.27.09 1.32-.09 1.4-.44c.79-3.51 2.49-6.09 1.95-6.31-.08-.03-.19-.05-.31-.05" fill="url(#ab)"/><path d="m4.44 20.34c-.79 0-1.94.14-1.94.14-.04.2.06 3.56.26 3.91.16.28 1.36.47 2.02.47.17 0 .31-.01.38-.04.35-.14.08-4.02 0-4.34-.03-.11-.33-.14-.73-.14" fill="url(#ad)"/><path d="m24.68 18.69c-.27 0-.46.02-.46.02s-.01 0-.02 0c-.59 0-.34 3.49-.44 3.89-.05.23.55.3 1.12.3.44 0 .86-.04.95-.1.2-.12.77-3.16.62-3.71-.07-.27-.6-.37-1.12-.4-.1 0-.2.01-.29.01-.13 0-.25 0-.36-.02" fill="url(#ae)"/><path d="m24.88 18.69c-.07 0-.14 0-.2 0 .11.01.24.02.36.02.1 0 .19 0 .29-.01-.15 0-.31-.01-.45-.01" fill="url(#af)"/><path d="m22.38 23.48c-1.68 0-6.01.62-6.52.79-.63.2-1.09 2.83-.64 3.01.08.03.37.04.81.04 2.04 0 7.17-.29 7.29-.39.14-.13-.27-3.33-.27-3.33-.02-.08-.26-.12-.66-.12" fill="url(#ag)"/><path d="m31.51 24.52c-1.63 0-2.8.09-2.87.3 0 0 0 2.52.15 2.68.09.09 3.89.15 7.36.15 2.82 0 5.41-.04 5.58-.15.39-.24 1.22-1.66 0-2.19-.84-.37-6.63-.79-10.23-.79" fill="url(#ah)"/><g fill="#fff"><path d="m28.47 13.98c-.05-1.05-2.63 1.05-2.58 2.71s1.61.05 1.61.05l.96-2.76z"/><path d="m6.66 15.24c.39-1.93-2.39 1.95-2.39 3.21s1.67.37 2.39-3.21z"/><path d="m7.11 24.14c-.9.25 1.45 1.34 2.34 1.34s2.42-1.5 2.42-1.5z"/><path d="m18.42 37.36c-.91-.48 3.71-1.1 4.54-.86s1.42 1.07 1.42 1.07z"/></g><path d="m10.45 40.33h-2.61l9.04.02z" fill="#d89297"/><path d="m7.08 38.8.77 1.53h2.61s-.08-.16-.22-.46c-2.73-.36-3.16-1.06-3.16-1.06" fill="url(#ai)"/><path d="m10.24 39.86c.14.3.22.46.22.46l-.2-.46s0 0-.01 0" fill="url(#aj)"/><path d="m30.99 40.26s0 0 0 0-.03 0-.07 0l-2.01.11 2.26-.1s-.17 0-.17 0" fill="#d89297"/><path d="m28.46 39.8c-.41 0-1.58 0-3.32.03l.09.54h3.39s-.07-.21-.16-.57" fill="url(#ak)"/><path d="m28.62 39.8s-.05 0-.16 0c.09.36.15.56.16.58s.29-.01.29-.01l2.01-.11s-.12 0-.22 0c-.52 0-1.6-.05-2.09-.46" fill="url(#al)"/><path d="m30.98 40.23s0 .01 0 .02v-.02s0 0 0 0" fill="url(#am)"/><path d="m30.99 40.25s-.07.01-.07.01h.07s0 0 0 0" fill="#d7706b"/><path d="m28.62 39.8c.49.41 1.57.46 2.09.46h.22.07s0-.01 0-.01 0-.01 0-.02l-2.36-.43" fill="url(#an)"/><path d="m30.98 40.23.01.02v.01l.17.01z" fill="url(#ao)"/><path d="m25.14 39.84c-2.35.03-5.73.09-9.64.21-.54.02-1.04.02-1.52.02-1.57 0-2.79-.08-3.73-.21l.2.46 6.43.03 8.34.02-.09-.54" fill="url(#ap)"/><path d="m29.71 34.49c.17.87.35 1.67.51 2.36.78 0 4.98.04 8.75.09l2.33.02.04-.55c-.11 0-.22 0-.33 0-.23 0-1.23.04-2.38.04-.9 0-1.87-.02-2.63-.09-.74-.02-1.47-.04-2.12-.06 0 .35-.01.54-.01.54v-.54c-1.53-.05-2.7-.09-2.99-.09-.63 0-.99-1.02-1.16-1.73m16-1.97c-.56 1.12-1.75 3.36-2.37 3.71-.09.05-.29.09-.59.12-.41.25-.72.32-.85.32-.01 0-.02 0-.03 0-.02 0-.02-.09-.02-.26-.16 0-.32.01-.49.02-.04.32-.06.51-.06.55l2.99.03c.44-1.26.95-2.81 1.43-4.49" fill="url(#aq)"/><path d="m35.99 36.37c.76.07 1.74.09 2.63.09 1.14 0 2.15-.03 2.38-.04-.33 0-.68 0-1.04 0-1.22 0-2.63-.03-3.97-.06" fill="url(#ar)"/><path d="m42.76 36.35c-.24.03-.55.04-.9.06 0 .17 0 .25.02.26h.03c.13 0 .44-.07.85-.32" fill="url(#as)"/><path d="m46.03 31.88s-.12.25-.31.63c-.49 1.68-.99 3.23-1.43 4.49h.4s1.34-5.12 1.34-5.12" fill="url(#at)"/><path d="m33.84 36.31v.54s.02-.19.02-.54z" fill="#81191d"/><path d="m41.36 36.42s-.02 0-.03 0l-.04.55s.03-.23.06-.55" fill="#81191d"/><path d="m29.64 34.16.46 2.69h.1s.02 0 .02 0c-.16-.7-.34-1.49-.51-2.36-.03-.12-.05-.24-.07-.33" fill="url(#au)"/><path d="m30.22 36.86h-.02l8.77.09c-3.77-.05-7.96-.08-8.75-.09" fill="url(#av)"/><path d="m29.58 33.82s0 .02 0 .05v.05l-.02-.1" fill="url(#aw)"/><path d="m29.59 33.87c0 .06.02.16.05.29l-.04-.24s0-.03 0-.05" fill="url(#al)"/><path d="m21.67 11.1c-1.32 0-3.86.42-5.29 1.02-.21.1-.42.21-.64.33-1.2.81-3.06 2.15-4.14 4.24-.22.47-.41.98-.56 1.53-.09.34-.16.69-.22 1.06-.03.24.37.34 1 .34 1.98 0 6.26-.99 6.53-1.5.11-.2.43-.81.85-1.58.54-2.07 1.5-3.4 2.54-4.26.26-.37.49-.66.67-.81.3-.26-.05-.37-.73-.37" fill="url(#ay)"/><path d="m11.6 16.68c-.39.76-.68 1.62-.79 2.59.06-.36.13-.72.22-1.06.15-.55.34-1.06.56-1.53m4.79-4.56c-.25.11-.47.22-.64.33.22-.12.43-.23.64-.33" fill="#bf1e23"/><path d="m21.74 12.28c-1.05.86-2 2.19-2.54 4.26.73-1.34 1.78-3.17 2.54-4.26" fill="#bf1e23"/><path d="m26.82 11.03c-1.16 0-3.79.61-4.8 1.48-.05.05-.1.1-.15.14-1.24 1.36-2.3 5.14-2.3 5.14-.02.39.45.52 1.04.52.78 0 1.75-.22 2.04-.36.51-.24 3.19-5.49 4.53-6.49.41-.3.19-.44-.35-.44" fill="url(#az)"/><path d="m22.02 12.51c-.06.05-.11.1-.15.14.05-.05.1-.1.15-.14" fill="#bf1e23"/><path d="m12.95 13.3c-.08 0-.3.1-.73.3 0 0 0 0-.01 0-.25.14-.5.28-.73.42-1.26.86-2.38 2.3-2.99 3.38-.18.42-.34.86-.47 1.3.11.42.71.69 1.4.69.36 0 .75-.08 1.1-.25.37-3.97 2.77-5.85 2.43-5.85" fill="url(#aA)"/><path d="m8.48 17.41c-.34.61-.52 1.1-.47 1.3.13-.44.29-.88.47-1.3m3.72-3.8c-.25.12-.49.26-.73.42.24-.15.48-.29.73-.42" fill="url(#aB)"/><path d="m45.15 39.84c-.03.25-.05.42-.06.47s0 0 0 0c.01-.03.07-.19.16-.46h-.1" fill="url(#at)"/><path d="m49.62 29.21c-.06.26-2.37 10.67-2.64 10.75-.04.01-.12.02-.21.02-.42 0-1.23-.09-1.51-.12-.1.27-.15.42-.16.46s2.05 0 2.05 0 1.51-5.15 2.49-11.11" fill="url(#aC)"/><path d="m43.09 40.25v.02l1.99.05z" fill="url(#aD)"/><path d="m45.15 39.84-13.92.42 11.86-.02 1.99.07c0-.05.03-.23.06-.48" fill="url(#aE)"/><path d="m13.69 36.66s.03.08.04.12c1.35.05 2.64.07 2.64.07s-1.35-.04-2.68-.19m-3.65-1.94c.27.68.52 1.29.75 1.82s.52.08 1.41.17c.46.03.97.05 1.49.07-.02-.04-.03-.08-.05-.13-.86-.1-1.7-.25-2.16-.47-.37-.18-.9-.77-1.44-1.46" fill="url(#aF)"/><path d="m13.64 36.66s.03.08.05.13h.04c-.01-.04-.03-.08-.04-.12-.02 0-.03 0-.05 0" fill="#911e21"/><path d="m7.54 31.52s-.04.01-.05.05c-.16.55 1.65 5.79 1.65 5.79s.77-.85 1.43-.85c.07 0 .15.01.22.03-.23-.53-.49-1.14-.75-1.82-1.07-1.38-2.23-3.2-2.49-3.2" fill="url(#aG)"/><path d="m10.79 36.54c.2.07.74.12 1.41.17-.89-.09-1.41-.17-1.41-.17" fill="url(#aH)"/><path d="m14.42 29.09c-.78 0-1.4.09-1.57.32-.5.67.77 7.04 1.42 7.04h.01c.06 0 .17-.01.32-.01.44 0 1.22.04 2.06.07.84.04 1.75.07 2.45.07s1.16-.03 1.22-.13c.2-.33-.71-6.21-1.62-6.69-.6-.32-2.75-.66-4.28-.66" fill="url(#aJ)"/><path d="m20.58 29.41c-.6 0 .61 6.34.96 6.56.09.06.3.09.56.09.74 0 1.9-.23 2.04-.65.19-.58-.35-4.2-.67-4.85-.33-.65-2.88-1.14-2.88-1.14s0 0-.01 0" fill="url(#aK)"/><path d="m10.06 25.85c-1.47 0-3.17.65-3 1.3l5.92.17s-.79-1.22-2.34-1.43c-.18-.02-.38-.04-.57-.04" fill="url(#aL)"/><path d="m5.25 32.46c.24-1.16.85.56.87 1.12s-1.16.28-.87-1.12z" fill="#fff"/></svg>