<svg viewBox="0 0 780 235.55" xmlns="http://www.w3.org/2000/svg"><path d="m135.22 165.42 1.74 15.56-14-2.62-3.91 36.7h-16.95l-3.91-36.7-14.08 2.62 1.74-15.56h49.38z"/><path d="m158.87 181.56c3.07-4.31 6.87-6.47 11.39-6.47 2.14 0 4.11.49 5.91 1.48l-2.09 13.44c-2.32-1.53-4.93-2.29-7.82-2.29s-4.67 1.09-5.65 3.28c-.58 1.37-.96 2.68-1.13 3.93l-1.65 20.15h-15.65l-2.61-38.83h17.13l2.17 5.32z"/><path d="m201.47 215.89c-6.55 0-12.04-1.79-16.47-5.37s-6.65-8.83-6.65-15.77c0-4.37 1.13-8.08 3.39-11.14 4.11-5.68 10.49-8.52 19.13-8.52 6.61 0 11.65 1.24 15.13 3.73s5.22 5.91 5.22 10.28c0 3.39-1.44 6.13-4.3 8.23-2.87 2.1-7.06 3.15-12.56 3.15-2.26 0-4.29-.16-6.09-.49l-.96-.16c.29 1.97 1.2 3.43 2.74 4.38 1.53.96 3.38 1.43 5.52 1.43 3.53 0 6.55-1.01 9.04-3.03l5.39 6.14c-.93 1.04-2.03 2.01-3.3 2.91-1.28.9-3.3 1.83-6.09 2.79-2.78.96-5.82 1.43-9.13 1.43zm7.04-27.53c0-1.09-.45-1.99-1.35-2.7s-2.13-1.06-3.69-1.06-3.03.65-4.39 1.96-2.04 2.87-2.04 4.67c1.27.55 2.94.82 5 .82s3.65-.34 4.78-1.02 1.7-1.57 1.7-2.66z"/><path d="m240.85 215.89c-4.46 0-8.13-1.23-11-3.69s-4.3-5.94-4.3-10.44 1.62-7.78 4.87-9.83 7.16-3.07 11.74-3.07 8.55.68 11.91 2.05c-.75-4.53-3.8-6.8-9.13-6.8-2.43 0-5.45.47-9.04 1.39l-2.17-7.37c5.22-2.02 10.52-3.03 15.91-3.03 15.53 0 23.3 6.23 23.3 18.68 0 4.26-.52 10.16-1.56 17.69l-.43 3.6h-14.34l-.52-4.51c-3.94 3.55-9.01 5.32-15.21 5.32zm7.82-10.16c2.61 0 4.84-.68 6.69-2.05l-.52-5.41c-1.45-.93-3.06-1.39-4.82-1.39s-3.22.41-4.35 1.23-1.7 1.83-1.7 3.03.43 2.27 1.3 3.2 2 1.39 3.39 1.39z"/><path d="m315.87 202.78c0 3.11-1.1 5.71-3.3 7.78-2.2 2.08-4.74 3.48-7.61 4.22s-5.64 1.11-8.3 1.11-5-.16-7-.49-3.7-.71-5.09-1.15c-2.55-.93-4.58-1.8-6.09-2.62l-.78-.49 3.82-7.45c3.48 1.86 6.4 2.79 8.78 2.79s3.56-.93 3.56-2.79c0-.93-.75-1.88-2.26-2.87-1.51-.98-3.14-1.91-4.91-2.79-1.77-.87-3.41-2.21-4.91-4.01-1.51-1.8-2.26-3.88-2.26-6.23 0-4.2 1.68-7.37 5.04-9.5s7.79-3.2 13.3-3.2c2.78 0 5.51.22 8.17.66s4.66.87 6 1.31l1.91.74-2.17 8.27c-3.3-1.15-6.12-1.72-8.43-1.72s-3.48.85-3.48 2.54c0 .82.55 1.6 1.65 2.33 1.1.74 2.43 1.46 4 2.17 1.56.71 3.13 1.52 4.69 2.42s2.9 2.13 4 3.69 1.65 3.32 1.65 5.28z"/><path d="m337.08 215.89c-10.95 0-16.43-7.02-16.43-21.05 0-3.77.67-9.97 2-18.6h16.87v17.69c0 6.34 1.88 9.5 5.65 9.5 3.3 0 4.96-2.84 4.96-8.52v-1.39l-.78-17.28h19.56l-1.83 38.83h-14.69l-.96-7.54c-.12.22-.26.52-.43.9s-.65 1.05-1.44 2.01c-.78.96-1.67 1.8-2.65 2.54-.99.74-2.35 1.41-4.09 2.01s-3.65.9-5.74.9z"/><path d="m393.42 181.56c3.07-4.31 6.87-6.47 11.39-6.47 2.14 0 4.12.49 5.91 1.48l-2.09 13.44c-2.32-1.53-4.93-2.29-7.82-2.29s-4.67 1.09-5.65 3.28c-.58 1.37-.96 2.68-1.13 3.93l-1.65 20.15h-15.65l-2.61-38.83h17.13l2.17 5.32z"/><path d="m436.01 215.89c-6.55 0-12.04-1.79-16.47-5.37s-6.65-8.83-6.65-15.77c0-4.37 1.13-8.08 3.39-11.14 4.12-5.68 10.49-8.52 19.13-8.52 6.61 0 11.65 1.24 15.13 3.73s5.22 5.91 5.22 10.28c0 3.39-1.43 6.13-4.3 8.23s-7.06 3.15-12.56 3.15c-2.26 0-4.29-.16-6.08-.49l-.96-.16c.29 1.97 1.2 3.43 2.74 4.38 1.53.96 3.38 1.43 5.52 1.43 3.53 0 6.55-1.01 9.04-3.03l5.39 6.14c-.93 1.04-2.03 2.01-3.3 2.91-1.28.9-3.3 1.83-6.09 2.79-2.78.96-5.82 1.43-9.13 1.43zm7.05-27.53c0-1.09-.45-1.99-1.35-2.7s-2.13-1.06-3.69-1.06-3.03.65-4.39 1.96-2.04 2.87-2.04 4.67c1.28.55 2.94.82 5 .82s3.65-.34 4.78-1.02 1.69-1.57 1.69-2.66z"/><path d="m519.39 215.07-2-18.84-15.48 1.31-1.83 17.53h-16.95l-5.22-49.64h27.38l-2 18.92h12.87l-2-18.92h27.38l-5.22 49.64h-16.95z"/><path d="m563.2 215.89c-10.95 0-16.43-7.02-16.43-21.05 0-3.77.67-9.97 2-18.6h16.87v17.69c0 6.34 1.88 9.5 5.65 9.5 3.3 0 4.96-2.84 4.96-8.52v-1.39l-.78-17.28h19.56l-1.83 38.83h-14.69l-.96-7.54c-.12.22-.26.52-.43.9s-.65 1.05-1.44 2.01c-.78.96-1.67 1.8-2.65 2.54-.99.74-2.35 1.41-4.09 2.01s-3.65.9-5.74.9z"/><path d="m633.1 175.09c4.06 0 7.55 1.61 10.48 4.83 2.92 3.22 4.39 7.41 4.39 12.57s-.67 12.68-2 22.57h-15.21l-1.74-18.35c-.58-5.84-2.26-8.76-5.04-8.76-3.3 0-5.07 2.95-5.3 8.85l-.61 18.27h-16l-1.83-38.83h19.65l-.35 6.96c.29-.55.96-1.39 2-2.54s2.06-2.08 3.04-2.79c2.55-1.86 5.39-2.79 8.52-2.79z"/><path d="m676.22 200.48c-.06 3.17 1.13 4.75 3.56 4.75.7 0 1.54-.3 2.52-.9l1.83 7.95c-.35.27-.83.61-1.43 1.02-.61.41-1.91.94-3.91 1.6-2 .65-4.07.98-6.22.98-3.94 0-7.16-1.27-9.65-3.81s-3.82-5.77-4-9.71l-.78-15.48h-6.69l1.04-10.65h5.22l-.35-8.03 20.6-3.93-.61 11.96h5.04l1.04 10.65h-6.61l-.61 13.6z"/><path d="m703.45 215.9-1.83-7.95c-.44-1.91-1.29-3.66-2.47-5.16.18-.18.36-.36.53-.55 2.48-2.74 3.7-6.4 3.34-10.08l-1.04-10.65c-.34-3.46-2-6.5-4.46-8.63l.07-1.39c.2-4.02-1.45-7.91-4.48-10.55-.08-.07-.16-.13-.24-.19-.43-.51-.89-1-1.4-1.45-.08-.07-.16-.13-.24-.19-.43-.51-.89-1-1.4-1.45-.08-.07-.16-.13-.24-.19-.43-.51-.89-1-1.4-1.45-.08-.07-.16-.13-.24-.19-.43-.51-.89-1-1.4-1.45-2.41-2.1-5.47-3.22-8.61-3.22-.82 0-1.64.08-2.46.23l-20.6 3.93c-4.98.95-8.83 4.64-10.15 9.3-3.58-1.75-7.5-2.65-11.65-2.65-3.28 0-6.49.58-9.5 1.68-1.19-.35-2.44-.54-3.71-.54h-19.65c-.88 0-1.76.09-2.61.26-.85-.17-1.72-.26-2.61-.26h-19.56c-1.7 0-3.36.33-4.91.95-1.52-.61-3.18-.95-4.92-.95h-7.86c-.39-.43-.82-.82-1.26-1.19-.1-.12-.19-.25-.3-.37-.42-.46-.87-.88-1.34-1.27-.1-.12-.19-.25-.3-.37-.42-.46-.87-.88-1.34-1.27-.1-.12-.19-.25-.3-.37-.42-.46-.87-.88-1.34-1.27-.1-.12-.19-.25-.3-.37-2.49-2.76-6.03-4.34-9.74-4.34h-27.38c-1.53 0-3.03.27-4.43.77-1.41-.51-2.91-.77-4.44-.77h-27.38c-3.72 0-7.25 1.58-9.74 4.34-2.48 2.76-3.68 6.45-3.29 10.14l.89 8.49c-.09-.08-.17-.17-.26-.25-.52-.56-1.06-1.12-1.64-1.64-.52-.56-1.06-1.11-1.64-1.64-1.21-1.31-2.57-2.52-4.08-3.61-5.81-4.15-13.25-6.17-22.75-6.17-7.16 0-12.89 1.48-17.45 3.66-.31-.21-.63-.4-.96-.58-3.74-2.04-7.84-3.08-12.2-3.08-3.32 0-6.5.61-9.48 1.8-1.29-.42-2.67-.65-4.08-.65h-17.13c-.88 0-1.75.09-2.6.26-.85-.17-1.73-.26-2.61-.26h-19.56c-1.7 0-3.36.33-4.91.95-1.52-.62-3.18-.95-4.92-.95h-16.87c-2.24 0-4.36.58-6.22 1.58-.1-.04-.21-.08-.31-.11-2.01-.66-4.53-1.23-7.96-1.79-3.36-.55-6.82-.83-10.29-.83-8 0-14.84 1.76-20.31 5.23-.95.6-1.85 1.26-2.69 1.96-5.41-4.2-13.41-7.19-25.25-7.19-6.99 0-13.94 1.32-20.64 3.92-1.74.67-3.24 1.69-4.49 2.93-.29-.23-.58-.46-.89-.67-5.81-4.15-13.25-6.17-22.75-6.17-7.16 0-12.89 1.48-17.45 3.66-.31-.2-.63-.4-.96-.58-3.74-2.04-7.84-3.08-12.2-3.08-3.32 0-6.5.61-9.48 1.8-1.29-.42-2.67-.65-4.08-.65h-5.26c-.39-.43-.81-.82-1.26-1.19-.5-.59-1.05-1.14-1.64-1.64-.5-.59-1.05-1.14-1.64-1.64-.5-.59-1.05-1.14-1.64-1.64-2.42-2.88-6.03-4.7-10.04-4.7h-49.38c-6.68 0-12.28 5.02-13.03 11.65l-1.74 15.56c-.46 4.13 1.06 8.23 4.1 11.06.16.15.33.28.49.41.36.43.74.84 1.15 1.23.16.15.33.28.49.41.36.43.74.84 1.15 1.23.16.15.33.28.49.41.36.43.74.84 1.15 1.23.16.15.33.28.49.41.36.43.74.84 1.15 1.23 1.61 1.49 3.54 2.53 5.6 3.07l1.73 16.25c.37 3.5 2.11 6.54 4.63 8.65.5.59 1.05 1.14 1.64 1.64.5.59 1.05 1.14 1.64 1.64.5.59 1.05 1.14 1.64 1.64 2.42 2.88 6.03 4.7 10.04 4.7h16.95c4.78 0 9-2.58 11.29-6.47.05.04.1.08.15.12.5.59 1.05 1.14 1.64 1.64 2.41 2.88 6.02 4.71 10.05 4.71h15.65c6.82 0 12.51-5.24 13.06-12.04l.08-.98c.31.32.63.62.94.91.54.59 1.09 1.13 1.64 1.64 1.07 1.16 2.16 2.16 3.21 3.01 6.8 5.49 15.12 8.27 24.71 8.27 4.74 0 9.24-.72 13.38-2.14 3.27-1.12 5.84-2.27 7.95-3.54 4.99 3.72 11.18 5.69 18.05 5.69 4.04 0 7.83-.53 11.33-1.58 1.38.49 2.86.76 4.4.76h14.34c2.72 0 5.26-.85 7.37-2.29.58.22 1.17.45 1.79.68.18.06.36.13.54.18 2 .63 4.25 1.15 6.9 1.58 2.72.45 5.71.66 9.12.66 3.76 0 7.65-.51 11.56-1.52 3.68-.95 7.06-2.53 10.11-4.72 6.83 5.53 15.04 6.24 18.75 6.24s6.9-.54 10.01-1.62c.14-.05.27-.09.4-.14 1.51.61 3.16.94 4.88.94h14.69c1.7 0 3.33-.33 4.82-.92 1.5.59 3.13.92 4.83.92h15.65c6.82 0 12.51-5.23 13.06-12.03l.08-.98c.31.32.63.62.94.91.54.59 1.09 1.13 1.64 1.64 1.07 1.16 2.16 2.16 3.22 3.01 6.8 5.49 15.11 8.27 24.7 8.27 4.74 0 9.24-.72 13.38-2.14 4.05-1.39 7.04-2.81 9.4-4.48 2.07-1.46 3.92-3.1 5.5-4.87.5-.56.95-1.16 1.34-1.78.7 1.07 1.56 2.02 2.54 2.83.5.59 1.05 1.14 1.64 1.64.5.59 1.05 1.14 1.64 1.64.5.59 1.05 1.14 1.64 1.64 2.42 2.88 6.03 4.7 10.04 4.7h16.95c3.8 0 7.24-1.62 9.65-4.24 2.41 2.62 5.85 4.24 9.65 4.24h16.95c3.81 0 7.26-1.63 9.67-4.26 6.48 4.47 13.76 5.08 17.2 5.08s6.91-.54 10.01-1.62c.14-.05.27-.09.41-.14 1.51.61 3.16.94 4.88.94h14.69c1.56 0 3.04-.29 4.43-.78 1.39.5 2.88.78 4.43.78h16c2.3 0 4.46-.59 6.35-1.64 1.89 1.04 4.05 1.64 6.35 1.64h15.21c4.01 0 7.64-1.82 10.06-4.72 4.6 3.63 10.25 5.53 16.54 5.53 3.52 0 6.98-.55 10.3-1.64 3.35-1.1 5.42-2.02 7.15-3.18.95-.64 1.68-1.17 2.22-1.6 3.98-3.14 5.8-8.29 4.66-13.23z" fill="#0f2c44"/><path d="m460.21 174.31c-.08-.08-.16-.16-.25-.25-.08-.08-.16-.16-.25-.25-.08-.08-.16-.16-.25-.25-.97-.99-2.04-1.91-3.22-2.76-5.24-3.74-12.05-5.56-20.84-5.56-7.58 0-13.39 1.79-17.81 4.29-.64-.62-1.36-1.17-2.16-1.61-3.25-1.78-6.83-2.68-10.63-2.68-2.72 0-6.04.47-9.45 2.05-1.26-.58-2.66-.9-4.11-.9h-17.13c-.89 0-1.76.13-2.61.36-.84-.23-1.72-.36-2.61-.36h-19.56c-1.74 0-3.43.46-4.91 1.31-1.45-.84-3.12-1.31-4.91-1.31h-16.87c-2.18 0-4.21.72-5.86 1.94l-1.21-.47c-.16-.06-.32-.12-.48-.17-1.84-.6-4.22-1.13-7.47-1.67-3.18-.52-6.47-.79-9.76-.79-7.37 0-13.62 1.59-18.56 4.72-1.64 1.04-3.08 2.25-4.32 3.6-4.88-4.76-12.74-8.32-25.37-8.32-6.58 0-13.13 1.24-19.46 3.7-2.33.9-4.12 2.6-5.19 4.68-.02-.02-.04-.04-.06-.06-.97-.99-2.04-1.91-3.22-2.76-5.24-3.74-12.05-5.56-20.84-5.56-7.58 0-13.39 1.79-17.81 4.29-.63-.62-1.35-1.17-2.16-1.61-3.25-1.78-6.83-2.68-10.63-2.68-2.72 0-6.04.47-9.45 2.05-1.26-.58-2.66-.9-4.11-.9h-10.6l-.12-1.09c-.26-2.28-1.29-4.31-2.81-5.83-.08-.08-.16-.16-.25-.25-.08-.09-.16-.16-.25-.25-.08-.09-.16-.16-.25-.25-1.8-1.95-4.38-3.15-7.21-3.15h-49.38c-5.01 0-9.21 3.76-9.77 8.74l-1.74 15.56c-.35 3.1.8 6.17 3.08 8.29.02.02.04.03.06.05.07.06.12.14.19.2.02.02.04.03.06.05.07.06.12.14.19.2.02.02.04.03.06.05.07.06.12.14.19.2.02.02.04.03.06.05.07.06.12.14.19.2 1.84 1.71 4.23 2.63 6.69 2.63.6 0 1.2-.05 1.8-.17l2.77-.52 2.66 24.99c.24 2.3 1.28 4.33 2.8 5.87.08.09.16.16.25.25.08.09.16.16.25.25.08.09.16.16.25.25 1.8 1.95 4.38 3.16 7.22 3.16h16.95c5.03 0 9.24-3.79 9.78-8.79l1.62-15.24.93 13.88c.17 2.6 1.35 4.9 3.13 6.55.08.08.16.17.25.25.08.08.16.17.25.25.08.08.16.17.25.25 1.78 1.77 4.23 2.87 6.92 2.87h15.65c5.12 0 9.38-3.93 9.8-9.03l1.06-12.95c1.56 5.82 4.49 9.93 7.39 12.72.08.08.16.17.25.25.08.08.16.17.25.25.08.08.16.17.25.25.67.66 1.35 1.27 2 1.79 6.21 5.01 13.83 7.55 22.65 7.55 4.37 0 8.52-.66 12.32-1.97 3.75-1.29 6.47-2.58 8.57-4.06.21-.15.41-.31.61-.46.16.15.32.3.48.43 4.69 4.02 10.54 6.05 17.39 6.05 4.14 0 7.97-.6 11.47-1.79 1.3.62 2.74.97 4.27.97h14.34c2.63 0 5.04-1.05 6.82-2.76 1.06.44 2.21.89 3.47 1.35.13.05.27.09.4.14 1.84.58 3.95 1.06 6.45 1.47 2.55.42 5.36.62 8.59.62 3.48 0 7.1-.48 10.75-1.42 4.14-1.07 7.87-3.05 11.11-5.88l.17.17c.08.08.16.16.25.25 3.53 3.51 9.24 6.89 18.15 6.89 3.17 0 6.18-.48 8.95-1.44.56-.19 1.09-.39 1.61-.6 1.41.78 3.03 1.22 4.75 1.22h14.69c1.75 0 3.4-.47 4.83-1.28 1.43.81 3.07 1.28 4.82 1.28h15.65c5.12 0 9.38-3.93 9.8-9.03l1.06-12.95c1.56 5.82 4.49 9.93 7.39 12.72.08.08.16.17.25.25.08.08.16.17.25.25.08.08.16.17.25.25.67.66 1.35 1.27 2 1.8 6.2 5.01 13.82 7.55 22.65 7.55 4.38 0 8.52-.66 12.32-1.97 3.75-1.29 6.47-2.58 8.57-4.06 1.87-1.32 3.54-2.8 4.95-4.38 3.32-3.7 3.34-9.3.06-13.04l-.68-.78c2.83-3.49 4.34-7.75 4.34-12.4 0-6.24-2.19-11.63-6.35-15.77z" fill="#ffe99a"/><path d="m694.69 211.06-1.83-7.95c-.45-1.97-1.5-3.73-2.96-5.06-.08-.08-.16-.17-.25-.25-.08-.08-.16-.17-.25-.25-.08-.08-.16-.17-.25-.25-.2-.19-.4-.37-.61-.55 1.18-.55 2.25-1.32 3.14-2.3 1.86-2.06 2.77-4.8 2.5-7.56l-1.04-10.65c-.24-2.41-1.33-4.54-2.96-6.11-.08-.08-.16-.17-.25-.25-.08-.08-.16-.16-.25-.25-.08-.08-.16-.17-.25-.25-.27-.28-.55-.54-.84-.78l.15-2.87c.14-2.74-.88-5.4-2.78-7.35-.08-.09-.16-.16-.25-.25-.08-.09-.17-.16-.25-.25s-.16-.16-.25-.25c-.26-.28-.53-.56-.83-.81-1.8-1.57-4.1-2.42-6.46-2.42-.61 0-1.23.06-1.84.17l-20.6 3.93c-4.5.86-7.77 4.69-7.98 9.19-.61.36-1.18.79-1.7 1.27-3.79-2.47-8.1-3.75-12.73-3.75-3.34 0-6.5.64-9.45 1.9-1.18-.49-2.46-.75-3.76-.75h-19.65c-.89 0-1.76.13-2.61.36-.84-.23-1.72-.36-2.61-.36h-19.56c-1.74 0-3.43.46-4.91 1.31-1.45-.84-3.12-1.31-4.91-1.31h-13.27c0-2.42-.89-4.76-2.52-6.58-.08-.09-.16-.16-.25-.24-.08-.09-.16-.16-.24-.24-.08-.09-.16-.16-.24-.24-.08-.09-.16-.16-.25-.24-1.86-2.07-4.52-3.25-7.31-3.25h-27.38c-1.56 0-3.07.37-4.44 1.06-1.36-.69-2.88-1.06-4.43-1.06h-27.38c-2.79 0-5.44 1.18-7.31 3.25s-2.76 4.83-2.47 7.6l5.22 49.64c.24 2.3 1.27 4.34 2.8 5.88.08.08.16.16.25.24.08.09.16.16.25.25.08.09.16.16.25.25 1.8 1.96 4.39 3.17 7.23 3.17h16.95c4.34 0 8.06-2.83 9.35-6.81.52 1.18 1.27 2.23 2.18 3.1.08.08.16.17.25.25.08.08.16.17.25.25.08.08.16.17.25.25 1.79 1.84 4.29 2.97 7.03 2.97h16.95c3.97 0 7.42-2.37 8.96-5.82 3.55 3.41 9.2 6.64 17.9 6.64 3.17 0 6.18-.48 8.94-1.44.56-.19 1.09-.39 1.61-.6 1.41.78 3.03 1.22 4.75 1.22h14.69c1.59 0 3.1-.38 4.43-1.06 1.33.68 2.84 1.06 4.43 1.06h16c2.41 0 4.63-.87 6.35-2.32 1.72 1.45 3.94 2.32 6.35 2.32h15.21c4.25 0 7.93-2.72 9.28-6.6.02.02.05.04.07.06.03.04.06.07.1.11.05.05.1.09.15.14.03.04.06.07.1.11.05.05.1.09.15.14.03.04.06.07.1.11 4.34 4.42 10.1 6.75 16.67 6.75 3.17 0 6.29-.49 9.28-1.47 3.05-1 4.88-1.8 6.34-2.79.86-.58 1.53-1.07 2.03-1.46 2.99-2.35 4.35-6.22 3.5-9.92z" fill="#ffe99a"/><path d="m462.3 189.1c0-6.49-2.75-11.89-7.96-15.61-4.66-3.33-10.86-4.95-18.94-4.95-7.51 0-13.77 1.83-18.69 5.42-.57-1.31-1.54-2.43-2.85-3.15-2.77-1.51-5.81-2.28-9.06-2.28-2.71 0-6.11.55-9.55 2.52-1.12-.87-2.53-1.37-4.01-1.37h-17.13c-.91 0-1.79.19-2.61.54-.81-.35-1.7-.54-2.61-.54h-19.56c-1.79 0-3.5.73-4.74 2.03-.06.06-.12.13-.17.19-1.2-1.36-2.96-2.22-4.91-2.22h-16.87c-2.1 0-3.98 1-5.19 2.57-.36-.23-.74-.42-1.15-.58l-1.91-.74c-.1-.04-.21-.08-.32-.11-1.66-.54-3.94-1.05-6.98-1.55-3.01-.49-6.11-.74-9.23-.74-6.74 0-12.4 1.42-16.81 4.21-2.55 1.61-4.51 3.66-5.87 6.07-4.02-5.7-11.59-10.28-25.57-10.28-6.18 0-12.33 1.17-18.28 3.47-3.18 1.23-4.88 4.69-3.92 7.96l1.54 5.24c-.5.25-.97.54-1.45.82-.74-5.13-3.37-9.43-7.74-12.55-4.66-3.33-10.85-4.95-18.94-4.95-7.51 0-13.77 1.83-18.69 5.42-.57-1.31-1.54-2.43-2.85-3.15-2.77-1.51-5.81-2.28-9.06-2.28-2.71 0-6.11.55-9.55 2.52-1.12-.87-2.53-1.37-4.01-1.37h-14.4l-.56-4.99c-.37-3.32-3.18-5.83-6.51-5.83h-49.38c-3.34 0-6.14 2.51-6.51 5.83l-1.74 15.56c-.23 2.06.53 4.11 2.05 5.53 1.22 1.14 2.82 1.75 4.46 1.75.4 0 .8-.04 1.2-.11l7.12-1.33 3.16 29.66c.36 3.33 3.17 5.86 6.52 5.86h16.95c3.35 0 6.16-2.53 6.52-5.86l3.16-29.65 5 .94 1.91 28.46c.23 3.44 3.09 6.11 6.54 6.11h15.65c3.41 0 6.25-2.62 6.53-6.02l1.63-19.94c.07-.45.2-.94.37-1.41 1.58.02 2.89.4 4.12 1.21.42.28.88.49 1.34.66.3 8.32 3.34 14.88 9.06 19.49 5.61 4.53 12.54 6.82 20.59 6.82 4.01 0 7.8-.6 11.26-1.79 3.4-1.17 5.93-2.36 7.74-3.63 1-.71 1.92-1.47 2.78-2.26.77.96 1.58 1.76 2.34 2.42 4.08 3.49 9.21 5.26 15.26 5.26 4.32 0 8.26-.72 11.8-2.14 1.1.83 2.47 1.32 3.94 1.32h14.34c2.51 0 4.71-1.42 5.81-3.53 1.56.75 3.4 1.52 5.6 2.32l.27.09c1.69.53 3.65.98 6 1.36 2.34.38 5.05.58 8.06.58 3.21 0 6.55-.44 9.93-1.31 3.94-1.01 7.46-2.96 10.47-5.8.64-.61 1.21-1.26 1.74-1.93 3.32 5.09 8.91 9.04 18.28 9.04 2.8 0 5.45-.42 7.88-1.26 1.11-.38 2.12-.8 3.04-1.25 1.17 1.05 2.71 1.69 4.39 1.69h14.69c1.9 0 3.62-.82 4.82-2.12 1.2 1.31 2.92 2.12 4.83 2.12h15.65c3.41 0 6.25-2.62 6.53-6.02l1.64-19.94c.07-.45.2-.93.36-1.4 1.58.02 2.89.4 4.12 1.21.42.28.87.49 1.34.66.3 8.32 3.34 14.88 9.06 19.49 5.61 4.53 12.53 6.82 20.59 6.82 4.01 0 7.8-.6 11.26-1.79 3.4-1.17 5.93-2.36 7.74-3.63 1.67-1.18 3.15-2.49 4.4-3.89 2.21-2.47 2.23-6.2.04-8.69l-2.65-3.02c3.6-3.23 5.5-7.45 5.5-12.32z" fill="#d29f3a"/><path d="m690.51 210.81-1.83-7.95c-.47-2.05-1.9-3.76-3.84-4.57-.63-.26-1.28-.43-1.95-.49l.2-4.37h.34c1.85 0 3.61-.78 4.85-2.15s1.85-3.2 1.67-5.04l-1.04-10.65c-.27-2.72-2.17-4.92-4.68-5.65l.27-5.34c.1-2.01-.72-3.95-2.24-5.28-1.2-1.05-2.74-1.61-4.3-1.61-.41 0-.82.04-1.23.12l-20.6 3.93c-3.2.61-5.46 3.47-5.32 6.72l.06 1.39c-1.97.5-3.59 1.89-4.39 3.74-3.81-3.33-8.38-5.09-13.38-5.09-3.4 0-6.6.77-9.53 2.28-1.08-.73-2.36-1.13-3.68-1.13h-19.65c-.91 0-1.79.19-2.61.54-.81-.35-1.7-.54-2.61-.54h-19.56c-1.79 0-3.5.73-4.74 2.03-.06.06-.12.12-.17.19-1.2-1.36-2.96-2.21-4.91-2.21h-16.87c-.37 0-.73.04-1.08.1l.39-3.67c.19-1.85-.4-3.69-1.65-5.07-1.24-1.38-3.01-2.17-4.87-2.17h-27.38c-1.65 0-3.23.62-4.44 1.73-1.2-1.11-2.78-1.73-4.43-1.73h-27.38c-1.86 0-3.63.79-4.87 2.17s-1.84 3.22-1.65 5.07l5.22 49.64c.35 3.34 3.16 5.87 6.52 5.87h16.95c3.36 0 6.17-2.54 6.52-5.88l1.26-12.14 3.68-.31 1.32 12.46c.35 3.33 3.16 5.86 6.52 5.86h16.95c3.35 0 6.17-2.53 6.52-5.87l.53-5.07c3.02 6.33 8.82 11.76 19.81 11.76 2.81 0 5.46-.42 7.88-1.26 1.11-.38 2.12-.8 3.04-1.24 1.17 1.05 2.71 1.68 4.39 1.68h14.69c1.71 0 3.26-.66 4.43-1.73 1.17 1.08 2.73 1.73 4.43 1.73h16c3.04 0 5.62-2.08 6.35-4.91.73 2.85 3.32 4.91 6.35 4.91h15.21c3.28 0 6.06-2.43 6.49-5.68.35-2.62.66-5.07.92-7.36.96 3.06 2.58 5.77 4.86 8.09 3.71 3.78 8.66 5.77 14.33 5.77 2.83 0 5.6-.44 8.26-1.31 2.7-.89 4.36-1.6 5.53-2.39.78-.52 1.38-.96 1.83-1.31 1.99-1.57 2.9-4.14 2.33-6.61z" fill="#d29f3a"/><path d="m217.42 205.6-1.14-1.3s-.06.04-.09.07l-1.14-1.3s-.06.04-.09.07l-.46-.52c2.1-.53 3.87-1.31 5.31-2.37 2.87-2.1 4.3-4.85 4.3-8.23 0-3.87-1.37-7-4.1-9.39-.37-.43-.78-.84-1.23-1.23-.37-.43-.78-.84-1.23-1.23-.37-.43-.78-.84-1.23-1.23-.67-.77-1.44-1.48-2.34-2.12-3.48-2.48-8.52-3.73-15.13-3.73-8.64 0-15.01 2.84-19.13 8.52-.49.67-.92 1.37-1.3 2.09l.66-4.22c-.43-.24-4.92-4.92-4.92-4.92-1.8-.98-3.77-1.48-5.91-1.48-3.9 0-7.26 1.62-10.09 4.83l-3.48-3.69h-15.9l-.66-5.9-4.92-4.92h-49.38l-1.74 15.56 4.92 4.92 9.78-1.82 3.3 30.98 4.92 4.92h16.95l3.91-36.7 12.32 2.31 1.98 29.48 4.92 4.92h15.65l1.65-20.15c.17-1.26.55-2.57 1.13-3.93.98-2.18 2.87-3.28 5.65-3.28 2.63 0 5.02.64 7.18 1.9v.23c0 6.52 1.98 11.53 5.89 15.08.38.43.8.84 1.23 1.23.38.43.8.84 1.23 1.23.38.43.8.84 1.23 1.23.61.68 1.26 1.33 1.99 1.92 4.43 3.58 9.92 5.37 16.47 5.37 3.3 0 6.35-.48 9.13-1.43 2.78-.96 4.81-1.88 6.09-2.79 1.27-.9 2.38-1.87 3.3-2.91l-5.39-6.14s-.06.04-.09.07zm-12.61-16.58c-.84.51-1.95.83-3.3.96.15-.17.31-.34.48-.51 1.32-1.27 2.73-1.92 4.24-1.96-.27.58-.72 1.09-1.42 1.51zm-4.51 14.18c-.03-.15-.06-.3-.09-.45l.96.16c1.58.29 3.36.44 5.3.48-.93.17-1.9.26-2.92.26-1.18 0-2.26-.16-3.26-.45z" fill="#1f4e79"/><path d="m270.58 183.19c-.38-.43-.79-.84-1.23-1.23-.38-.43-.79-.84-1.23-1.23-.38-.43-.79-.84-1.23-1.23-3.77-4.26-10.18-6.41-19.27-6.41-5.39 0-10.69 1.01-15.91 3.03l2.17 7.37c.28-.07 3.63 3.49 3.63 3.49-3.46.32-6.5 1.3-9.11 2.94-3.25 2.05-4.87 5.32-4.87 9.83s1.43 7.99 4.3 10.44c0 0 .01.01.02.02.37.43.77.84 1.21 1.21 0 0 .01.01.02.02.37.43.77.84 1.21 1.21 0 0 .01.01.02.02.37.43.77.84 1.21 1.21 0 0 .01.01.02.02.37.43.77.84 1.21 1.21 2.87 2.46 6.53 3.69 11 3.69 5.21 0 9.61-1.27 13.22-3.77l2.51 2.95h14.34l.43-3.6c1.04-7.54 1.56-13.44 1.56-17.69 0-5.9-1.77-10.39-5.26-13.5zm-21.99 17.84c1.13-.82 2.58-1.23 4.35-1.23.09 0 .17.01.25.02l.18 1.87c-1.79 1.32-3.94 1.99-6.43 2.04.1-1.05.63-1.95 1.65-2.69zm3.14-13.47c.13.43.25.87.33 1.35-2.03-.82-4.29-1.4-6.76-1.72.9-.1 1.77-.16 2.55-.16 1.48 0 2.76.19 3.88.54z" fill="#1f4e79"/><path d="m315.08 198.14c-.38-.45-.8-.85-1.23-1.23-.38-.45-.8-.85-1.23-1.23-.38-.44-.8-.85-1.23-1.23-.92-1.07-1.98-1.95-3.18-2.64-1.56-.9-3.13-1.71-4.69-2.42-.22-.1-.43-.2-.64-.3.3-1.21 1.42-1.83 3.39-1.83 2.32 0 5.13.57 8.43 1.72l2.17-8.27-4.92-4.92-1.91-.74c-1.33-.44-3.33-.87-6-1.31s-5.39-.66-8.17-.66c-5.51 0-9.94 1.07-13.3 3.2s-5.04 5.3-5.04 9.5c0 2.35.75 4.42 2.26 6.23.57.68 1.17 1.28 1.77 1.83.4.44.81.85 1.23 1.23.4.44.81.85 1.23 1.23.4.44.81.85 1.23 1.23 1.36 1.49 2.81 2.65 4.37 3.42.77.38 1.5.78 2.22 1.18-.18 1.56-1.35 2.35-3.53 2.35-2.38 0-5.3-.93-8.78-2.79l-3.82 7.45 4.92 4.92.78.49c1.51.82 3.53 1.69 6.09 2.62 1.39.44 3.09.82 5.09 1.15s4.33.49 7 .49 5.43-.37 8.3-1.11 5.4-2.14 7.61-4.22c2.2-2.08 3.3-4.67 3.3-7.78 0-1.97-.55-3.73-1.65-5.28-.61-.86-1.3-1.61-2.05-2.27z" fill="#1f4e79"/><path d="m454.36 200.25c2.87-2.1 4.3-4.85 4.3-8.23 0-3.87-1.37-7-4.1-9.39-.37-.43-.78-.84-1.23-1.23-.37-.43-.78-.84-1.23-1.23-.37-.43-.78-.84-1.23-1.23-.67-.77-1.44-1.48-2.34-2.12-3.48-2.48-8.52-3.73-15.13-3.73-8.64 0-15.01 2.84-19.13 8.52-.49.66-.92 1.37-1.3 2.09l.66-4.22c-.43-.24-4.92-4.92-4.92-4.92-1.8-.98-3.77-1.48-5.91-1.48-3.9 0-7.26 1.62-10.09 4.83l-3.47-3.69h-17.13l2.61 38.83 4.92 4.92h15.65l1.65-20.15c.17-1.26.55-2.57 1.13-3.93.98-2.18 2.87-3.28 5.65-3.28 2.63 0 5.02.64 7.17 1.9v.23c0 6.52 1.98 11.53 5.89 15.08.38.43.8.84 1.23 1.23.38.43.8.84 1.23 1.23.38.43.8.84 1.23 1.23.61.68 1.26 1.33 1.99 1.92 4.43 3.58 9.92 5.37 16.47 5.37 3.3 0 6.35-.48 9.13-1.43 2.78-.96 4.81-1.88 6.09-2.79 1.27-.9 2.38-1.87 3.3-2.91l-5.39-6.14s-.06.04-.09.07l-1.14-1.3s-.06.04-.09.07l-1.14-1.3s-.06.04-.09.07l-.46-.52c2.1-.53 3.87-1.31 5.31-2.37zm-15-11.23c-.84.51-1.95.83-3.3.96.15-.17.31-.34.48-.51 1.32-1.27 2.73-1.92 4.24-1.96-.27.58-.72 1.09-1.42 1.51zm-4.52 14.18c-.03-.15-.06-.3-.09-.45l.96.16c1.58.29 3.36.44 5.3.48-.93.17-1.9.26-2.92.26-1.18 0-2.26-.16-3.26-.45z" fill="#1f4e79"/><path d="m645.28 181.64s-.02-.02-.02-.03c-.39-.43-.79-.83-1.2-1.2 0 0-.02-.02-.02-.03-.39-.43-.79-.83-1.2-1.2 0 0-.02-.02-.02-.03-.39-.43-.79-.83-1.2-1.2 0 0-.02-.02-.02-.03-2.93-3.22-6.42-4.83-10.48-4.83-3.13 0-5.97.93-8.52 2.79-.75.54-1.51 1.21-2.3 2l-2.4-3.64h-19.65l1.83 38.83 4.92 4.92h16l.61-18.27c.22-5.58 1.82-8.52 4.79-8.82.28 1.09.49 2.37.64 3.82l1.74 18.35 4.92 4.92h15.21c1.33-9.88 2-17.41 2-22.57s-1.47-9.35-4.39-12.57c-.39-.43-.79-.83-1.2-1.2z" fill="#1f4e79"/><path d="m685.22 207.25c-.3.18-4.92-4.92-4.92-4.92-.41.25-.79.44-1.15.58l.59-13.12h6.61l-1.04-10.65-4.83-4.09.4-7.87-4.92-4.92-20.6 3.93.35 8.03h-5.22l-1.04 10.65 6.94 4.92.53 10.57c.17 3.93 1.51 7.17 4 9.71.24.24.49.46.74.68.16.18.31.37.49.55.24.24.49.46.74.68.16.18.32.37.49.55.24.24.49.46.74.68.16.18.31.37.49.55.24.24.49.46.74.68.16.18.31.37.49.55 2.49 2.54 5.71 3.81 9.65 3.81 2.14 0 4.22-.33 6.22-.98 2-.66 3.3-1.19 3.91-1.6s1.09-.75 1.43-1.02z" fill="#1f4e79"/><path d="m366.9 174.24h-19.56l.78 17.28v1.39c0 5.68-1.65 8.52-4.96 8.52-.1 0-.19-.01-.29-.02-.3-1.28-.45-2.8-.45-4.57v-17.69l-4.92-4.92h-16.87c-1.33 8.63-2 14.83-2 18.6 0 8.35 1.95 14.2 5.83 17.58.39.44.8.85 1.23 1.23.39.44.79.85 1.23 1.23.39.44.79.85 1.23 1.23 2.73 3.12 6.66 4.7 11.83 4.7 2.09 0 4-.3 5.74-.9s3.1-1.27 4.09-2.01c.65-.48 1.23-1.03 1.79-1.61s3.69 3.7 3.69 3.7h14.69l1.83-38.83-4.92-4.92z" fill="#1f4e79"/><path d="m539.55 163.42h-27.38l2 18.93h-7.43l1.48-14.01-4.92-4.92h-27.38l5.21 49.65 4.92 4.91h16.95l1.83-17.53 11.12-.94 1.44 13.56 4.91 4.91h16.95l5.22-49.64z" fill="#1f4e79"/><path d="m593.02 174.24h-19.56l.78 17.28v1.39c0 5.68-1.65 8.52-4.96 8.52-.1 0-.19-.01-.28-.02-.3-1.28-.45-2.8-.45-4.57v-17.69l-4.92-4.92h-16.87c-1.33 8.63-2 14.83-2 18.6 0 8.35 1.95 14.2 5.83 17.58.39.44.8.85 1.23 1.23.39.44.79.85 1.23 1.23.39.44.79.85 1.23 1.23 2.73 3.12 6.66 4.7 11.83 4.7 2.09 0 4-.3 5.74-.9s3.1-1.27 4.09-2.01c.65-.48 1.23-1.03 1.79-1.61s3.69 3.7 3.69 3.7h14.69l1.83-38.83-4.92-4.92z" fill="#1f4e79"/><g fill="#fff"><path d="m133.22 163.42 1.74 15.56-14-2.62-3.91 36.7h-16.95l-3.91-36.7-14.08 2.62 1.74-15.56h49.38z"/><path d="m156.87 179.56c3.07-4.31 6.87-6.47 11.39-6.47 2.14 0 4.11.49 5.91 1.48l-2.09 13.44c-2.32-1.53-4.93-2.29-7.82-2.29s-4.67 1.09-5.65 3.28c-.58 1.37-.96 2.68-1.13 3.93l-1.65 20.15h-15.65l-2.61-38.83h17.13l2.17 5.32z"/><path d="m199.47 213.89c-6.55 0-12.04-1.79-16.47-5.37s-6.65-8.83-6.65-15.77c0-4.37 1.13-8.08 3.39-11.14 4.11-5.68 10.49-8.52 19.13-8.52 6.61 0 11.65 1.24 15.13 3.73s5.22 5.91 5.22 10.28c0 3.39-1.44 6.13-4.3 8.23-2.87 2.1-7.06 3.15-12.56 3.15-2.26 0-4.29-.16-6.09-.49l-.96-.16c.29 1.97 1.2 3.43 2.74 4.38 1.53.96 3.38 1.43 5.52 1.43 3.53 0 6.55-1.01 9.04-3.03l5.39 6.14c-.93 1.04-2.03 2.01-3.3 2.91-1.28.9-3.3 1.83-6.09 2.79-2.78.96-5.82 1.43-9.13 1.43zm7.04-27.53c0-1.09-.45-1.99-1.35-2.7s-2.13-1.06-3.69-1.06-3.03.65-4.39 1.96-2.04 2.87-2.04 4.67c1.27.55 2.94.82 5 .82s3.65-.34 4.78-1.02 1.7-1.57 1.7-2.66z"/><path d="m238.85 213.89c-4.46 0-8.13-1.23-11-3.69s-4.3-5.94-4.3-10.44 1.62-7.78 4.87-9.83 7.16-3.07 11.74-3.07 8.55.68 11.91 2.05c-.75-4.53-3.8-6.8-9.13-6.8-2.43 0-5.45.47-9.04 1.39l-2.17-7.37c5.22-2.02 10.52-3.03 15.91-3.03 15.53 0 23.3 6.23 23.3 18.68 0 4.26-.52 10.16-1.56 17.69l-.43 3.6h-14.34l-.52-4.51c-3.94 3.55-9.01 5.32-15.21 5.32zm7.82-10.16c2.61 0 4.84-.68 6.69-2.05l-.52-5.41c-1.45-.93-3.06-1.39-4.82-1.39s-3.22.41-4.35 1.23-1.7 1.83-1.7 3.03.43 2.27 1.3 3.2 2 1.39 3.39 1.39z"/><path d="m313.87 200.78c0 3.11-1.1 5.71-3.3 7.78-2.2 2.08-4.74 3.48-7.61 4.22s-5.64 1.11-8.3 1.11-5-.16-7-.49-3.7-.71-5.09-1.15c-2.55-.93-4.58-1.8-6.09-2.62l-.78-.49 3.82-7.45c3.48 1.86 6.4 2.79 8.78 2.79s3.56-.93 3.56-2.79c0-.93-.75-1.88-2.26-2.87-1.51-.98-3.14-1.91-4.91-2.79-1.77-.87-3.41-2.21-4.91-4.01-1.51-1.8-2.26-3.88-2.26-6.23 0-4.2 1.68-7.37 5.04-9.5s7.79-3.2 13.3-3.2c2.78 0 5.51.22 8.17.66s4.66.87 6 1.31l1.91.74-2.17 8.27c-3.3-1.15-6.12-1.72-8.43-1.72s-3.48.85-3.48 2.54c0 .82.55 1.6 1.65 2.33 1.1.74 2.43 1.46 4 2.17 1.56.71 3.13 1.52 4.69 2.42s2.9 2.13 4 3.69 1.65 3.32 1.65 5.28z"/><path d="m335.08 213.89c-10.95 0-16.43-7.02-16.43-21.05 0-3.77.67-9.97 2-18.6h16.87v17.69c0 6.34 1.88 9.5 5.65 9.5 3.3 0 4.96-2.84 4.96-8.52v-1.39l-.78-17.28h19.56l-1.83 38.83h-14.69l-.96-7.54c-.12.22-.26.52-.43.9s-.65 1.05-1.44 2.01c-.78.96-1.67 1.8-2.65 2.54-.99.74-2.35 1.41-4.09 2.01s-3.65.9-5.74.9z"/><path d="m391.42 179.56c3.07-4.31 6.87-6.47 11.39-6.47 2.14 0 4.12.49 5.91 1.48l-2.09 13.44c-2.32-1.53-4.93-2.29-7.82-2.29s-4.67 1.09-5.65 3.28c-.58 1.37-.96 2.68-1.13 3.93l-1.65 20.15h-15.65l-2.61-38.83h17.13l2.17 5.32z"/><path d="m434.01 213.89c-6.55 0-12.04-1.79-16.47-5.37s-6.65-8.83-6.65-15.77c0-4.37 1.13-8.08 3.39-11.14 4.12-5.68 10.49-8.52 19.13-8.52 6.61 0 11.65 1.24 15.13 3.73s5.22 5.91 5.22 10.28c0 3.39-1.43 6.13-4.3 8.23s-7.06 3.15-12.56 3.15c-2.26 0-4.29-.16-6.08-.49l-.96-.16c.29 1.97 1.2 3.43 2.74 4.38 1.53.96 3.38 1.43 5.52 1.43 3.53 0 6.55-1.01 9.04-3.03l5.39 6.14c-.93 1.04-2.03 2.01-3.3 2.91-1.28.9-3.3 1.83-6.09 2.79-2.78.96-5.82 1.43-9.13 1.43zm7.05-27.53c0-1.09-.45-1.99-1.35-2.7s-2.13-1.06-3.69-1.06-3.03.65-4.39 1.96-2.04 2.87-2.04 4.67c1.28.55 2.94.82 5 .82s3.65-.34 4.78-1.02 1.69-1.57 1.69-2.66z"/><path d="m517.39 213.07-2-18.84-15.48 1.31-1.83 17.53h-16.95l-5.22-49.64h27.38l-2 18.92h12.87l-2-18.92h27.38l-5.22 49.64h-16.95z"/><path d="m561.2 213.89c-10.95 0-16.43-7.02-16.43-21.05 0-3.77.67-9.97 2-18.6h16.87v17.69c0 6.34 1.88 9.5 5.65 9.5 3.3 0 4.96-2.84 4.96-8.52v-1.39l-.78-17.28h19.56l-1.83 38.83h-14.69l-.96-7.54c-.12.22-.26.52-.43.9s-.65 1.05-1.44 2.01c-.78.96-1.67 1.8-2.65 2.54-.99.74-2.35 1.41-4.09 2.01s-3.65.9-5.74.9z"/><path d="m631.1 173.09c4.06 0 7.55 1.61 10.48 4.83 2.92 3.22 4.39 7.41 4.39 12.57s-.67 12.68-2 22.57h-15.21l-1.74-18.35c-.58-5.84-2.26-8.76-5.04-8.76-3.3 0-5.07 2.95-5.3 8.85l-.61 18.27h-16l-1.83-38.83h19.65l-.35 6.96c.29-.55.96-1.39 2-2.54s2.06-2.08 3.04-2.79c2.55-1.86 5.39-2.79 8.52-2.79z"/><path d="m674.22 198.48c-.06 3.17 1.13 4.75 3.56 4.75.7 0 1.54-.3 2.52-.9l1.83 7.95c-.35.27-.83.61-1.43 1.02-.61.41-1.91.94-3.91 1.6-2 .65-4.07.98-6.22.98-3.94 0-7.16-1.27-9.65-3.81s-3.82-5.77-4-9.71l-.78-15.48h-6.69l1.04-10.65h5.22l-.35-8.03 20.6-3.93-.61 11.96h5.04l1.04 10.65h-6.61l-.61 13.6z"/></g><path d="m65.76 86.84c0 6.66 1.16 11.17 3.48 13.52s5.22 3.52 8.69 3.52c5.45 0 10.95-.87 16.52-2.62l2.61-.82 7.48 14.09c-1.04.88-2.61 2-4.69 3.36-2.09 1.37-6.75 3.17-14 5.41s-14.72 3.36-22.43 3.36-14.17-1.04-19.39-3.11-9.22-4.51-12-7.29c-2.78-2.79-5.04-6.5-6.78-11.14s-2.87-8.6-3.39-11.88-.96-7.37-1.3-12.29l-4.17-55.21h78.24l4.87 19.66-29.56 2.46-1.74 15.89h23.3l3.48 15.4-29.21 6.88v.82z"/><path d="m153.74 18.68-4.7 106.33h-31.99l-4.69-106.33z"/><path d="m209.55 126.65c-13.1 0-24.08-3.58-32.95-10.73s-13.3-17.67-13.3-31.54c0-8.74 2.26-16.16 6.78-22.28 8.23-11.36 20.98-17.04 38.25-17.04 13.21 0 23.3 2.49 30.25 7.45 6.95 4.97 10.43 11.82 10.43 20.56 0 6.77-2.87 12.26-8.61 16.47s-14.11 6.31-25.12 6.31c-4.52 0-8.58-.33-12.17-.98l-1.91-.33c.58 3.93 2.4 6.85 5.48 8.76 3.07 1.91 6.75 2.87 11.04 2.87 7.07 0 13.1-2.02 18.08-6.06l10.78 12.29c-1.86 2.08-4.06 4.01-6.61 5.82-2.55 1.8-6.61 3.66-12.17 5.57s-11.65 2.87-18.26 2.87zm14.09-55.05c0-2.18-.9-3.99-2.7-5.41s-4.26-2.13-7.39-2.13-6.06 1.31-8.78 3.93c-2.73 2.62-4.09 5.73-4.09 9.34 2.55 1.09 5.88 1.64 10 1.64s7.3-.68 9.56-2.05c2.26-1.36 3.39-3.14 3.39-5.32z"/><path d="m288.32 126.65c-8.93 0-16.26-2.46-21.99-7.37s-8.61-11.88-8.61-20.89 3.24-15.56 9.74-19.66c6.49-4.1 14.31-6.14 23.47-6.14s17.1 1.37 23.82 4.1c-1.51-9.07-7.59-13.6-18.26-13.6-4.87 0-10.9.93-18.08 2.79l-4.35-14.75c10.43-4.04 21.04-6.06 31.82-6.06 31.06 0 46.6 12.45 46.6 37.36 0 8.52-1.04 20.32-3.13 35.39l-.87 7.21h-28.69l-1.04-9.01c-7.88 7.1-18.03 10.65-30.43 10.65zm15.64-20.32c5.22 0 9.68-1.36 13.39-4.1l-1.04-10.81c-2.9-1.86-6.12-2.79-9.65-2.79s-6.43.82-8.69 2.46-3.39 3.66-3.39 6.06.87 4.53 2.61 6.39 4 2.78 6.78 2.78z"/><path d="m428.63 45.06c8.11 0 15.1 3.22 20.95 9.67s8.78 14.83 8.78 25.15-1.33 25.37-4 45.14h-30.43l-3.48-36.7c-1.16-11.69-4.52-17.53-10.08-17.53-6.61 0-10.14 5.9-10.61 17.69l-1.22 36.54h-31.99l-3.65-77.66h39.29l-.69 13.93c.58-1.09 1.91-2.78 4-5.08 2.09-2.29 4.11-4.15 6.08-5.57 5.1-3.71 10.78-5.57 17.04-5.57z"/><path d="m480.53 116.9c-8.4-6.5-12.6-16.85-12.6-31.05s4.2-24.55 12.6-31.05 19.62-9.75 33.64-9.75 25.24 3.25 33.64 9.75 12.61 16.85 12.61 31.05-4.2 24.55-12.61 31.05c-8.4 6.5-19.62 9.75-33.64 9.75s-25.24-3.25-33.64-9.75zm26.34-49.64c-1.39 3.77-2.09 9.97-2.09 18.6s.69 14.83 2.09 18.6c1.39 3.77 3.82 5.65 7.3 5.65s5.91-1.88 7.3-5.65 2.09-9.97 2.09-18.6-.7-14.83-2.09-18.6-3.83-5.65-7.3-5.65-5.91 1.88-7.3 5.65z"/><path d="m608.58 58c6.14-8.63 13.73-12.94 22.78-12.94 4.29 0 8.23.98 11.82 2.95l-4.17 26.87c-4.64-3.06-9.85-4.59-15.65-4.59s-9.33 2.19-11.3 6.55c-1.16 2.73-1.91 5.35-2.26 7.87l-3.3 40.3h-31.3l-5.22-77.66h34.25z"/><path d="m646.66 50.13v-22.45c0-2.84 1.13-5.43 3.39-7.78s5.5-3.52 9.74-3.52 7.48 1.15 9.74 3.44 3.39 4.89 3.39 7.78-1.8 6.8-5.39 11.72l-7.82 10.81h-13.04z"/><path d="m757.06 100.43c0 6.23-2.2 11.41-6.61 15.56s-9.48 6.96-15.21 8.44c-5.74 1.47-11.27 2.21-16.6 2.21s-10-.33-14-.98c-4-.66-7.39-1.42-10.17-2.29-5.1-1.86-9.16-3.6-12.17-5.24l-1.56-.98 7.65-14.91c6.96 3.72 12.81 5.57 17.56 5.57s7.13-1.86 7.13-5.57c0-1.86-1.51-3.77-4.52-5.73-3.02-1.96-6.29-3.82-9.82-5.57-3.54-1.75-6.81-4.42-9.82-8.03-3.02-3.6-4.52-7.75-4.52-12.45 0-8.41 3.36-14.75 10.08-19.01s15.59-6.39 26.6-6.39c5.56 0 11.01.44 16.34 1.31 5.33.88 9.33 1.75 12 2.62l3.83 1.47-4.35 16.55c-6.61-2.29-12.23-3.44-16.87-3.44s-6.96 1.69-6.96 5.08c0 1.64 1.1 3.2 3.3 4.67s4.87 2.92 8 4.34 6.26 3.03 9.39 4.83 5.8 4.26 8 7.37 3.3 6.64 3.3 10.57z"/><path d="m773.69 86.95c-1.28-1.8-2.66-3.48-4.15-5.03.77-1.3 1.36-2.71 1.76-4.2l4.35-16.55c1.63-6.19-.53-12.55-5.13-16.54-.5-.58-1.05-1.13-1.64-1.64-.5-.58-1.05-1.13-1.64-1.64-.5-.58-1.05-1.13-1.64-1.64-1.71-1.97-3.89-3.56-6.47-4.55l-3.83-1.47c-.26-.1-.53-.2-.8-.28-3.5-1.14-8.22-2.2-14.45-3.22-6.19-1.01-12.57-1.53-18.99-1.53-9.45 0-17.9 1.35-25.27 4.02-.35-6.67-3.12-12.8-8.06-17.81-.3-.31-.63-.62-.97-.93-.22-.24-.44-.48-.67-.71-.3-.31-.63-.62-.97-.93-.22-.24-.44-.48-.67-.71-.3-.31-.63-.62-.97-.93-.22-.24-.44-.48-.67-.71-.3-.31-.63-.62-.97-.93-.22-.24-.44-.48-.67-.71-3.74-3.8-10.49-8.33-21.41-8.33s-17.79 4.65-21.55 8.55c-5.21 5.42-7.96 12.04-7.96 19.14v1c-5.21.13-11.46 1.21-17.85 4.47-2.44-1.41-5.25-2.19-8.19-2.19h-34.25c-4.54 0-8.87 1.88-11.97 5.19-1.09 1.16-1.98 2.47-2.68 3.87-10.94-7.53-24.77-11.36-41.17-11.36-17.67 0-32.36 4.43-43.67 13.17-2.01 1.55-3.84 3.25-5.53 5.05-.3-.3-.61-.59-.91-.88-.54-.56-1.08-1.11-1.64-1.64-.54-.56-1.08-1.11-1.64-1.64-8.8-9.2-19.89-14.07-32.16-14.07-6.72 0-13.06 1.38-18.92 4.11-2.3-1.18-4.87-1.82-7.51-1.82h-39.29c-4.48 0-8.76 1.83-11.85 5.07-1.04 1.09-1.9 2.32-2.6 3.63-10.52-7.3-24.81-11-42.57-11-12.76 0-25.45 2.41-37.73 7.17-5.48 2.12-9.2 6.9-10.2 12.34-.04-.04-.09-.08-.13-.13-.53-.56-1.07-1.1-1.64-1.64-.53-.56-1.07-1.1-1.64-1.64-1.9-2.01-4.04-3.89-6.42-5.59-9.9-7.07-22.91-10.51-39.78-10.51-13.43 0-23.94 2.91-32.11 7.12l.43-9.84c.2-4.47-1.44-8.82-4.53-12.05-.38-.4-.79-.78-1.21-1.14-.15-.16-.28-.34-.43-.5-.38-.4-.79-.78-1.21-1.14-.15-.17-.28-.34-.43-.5-.38-.4-.79-.78-1.21-1.14-.15-.16-.28-.34-.43-.5-.38-.4-.79-.78-1.21-1.14-.15-.16-.28-.34-.43-.5-3.09-3.23-7.37-5.06-11.84-5.06h-41.38c-4.47 0-8.75 1.83-11.84 5.06-.73.77-1.38 1.6-1.94 2.48-1.27-.32-2.6-.49-3.95-.49h-78.21c-4.56 0-8.91 1.9-12.01 5.24-3.1 3.4-4.67 7.88-4.32 12.43l4.17 55.13c.38 5.44.86 9.92 1.47 13.71.7 4.41 2.08 9.33 4.23 15.05 2.55 6.82 6.1 12.54 10.54 16.98.28.28.57.54.86.81.26.28.51.56.78.83.28.28.57.54.86.81.26.28.51.56.78.83.28.28.57.54.86.81.26.28.51.56.78.83.28.28.57.54.86.81.26.28.51.56.78.83 4.42 4.42 10.16 8 17.53 10.93 7.23 2.88 15.55 4.27 25.44 4.27 9.3 0 18.48-1.38 27.27-4.09 5.93-1.83 9.88-3.29 12.68-4.5.4.43.82.84 1.26 1.22 3.01 3.51 7.47 5.72 12.44 5.72h31.99c8.09 0 14.84-5.88 16.14-13.66.38.32.75.64 1.12.94 11.81 9.53 26.36 14.36 43.24 14.36 8.39 0 16.32-1.26 23.58-3.76 7.21-2.47 12.39-4.92 16.31-7.69 1.17-.83 2.29-1.7 3.37-2.59.96 1 1.92 1.91 2.86 2.71 8.76 7.51 19.75 11.31 32.65 11.31 8.42 0 16.17-1.3 23.19-3.88 2.44 1.43 5.27 2.24 8.28 2.24h28.69c3.32 0 6.43-1.01 9.03-2.73 2.6 1.72 5.71 2.73 9.05 2.73h31.99c5.09 0 9.65-2.33 12.66-5.99.11.1.22.2.33.29 3.02 3.49 7.46 5.69 12.39 5.69h30.43c7.4 0 13.75-4.94 15.73-11.87.14.11.27.23.41.34 11.3 8.74 25.99 13.17 43.67 13.17s31.9-4.3 43.12-12.77c.19.18.39.35.59.53.51.59 1.06 1.13 1.64 1.64.51.59 1.06 1.13 1.64 1.64.51.59 1.06 1.13 1.64 1.64 3.01 3.49 7.46 5.69 12.4 5.69h31.3c8.53 0 15.63-6.54 16.33-15.05l3.23-39.42c1.43.29 2.71.82 3.94 1.63 2.72 1.79 5.86 2.7 9.02 2.7 2.25 0 4.51-.46 6.63-1.4 5.1-2.26 8.7-6.96 9.56-12.47l1.69-10.87h2.81c.62 0 1.23-.04 1.84-.11.48 7.06 2.97 13.66 7.31 19.28-.6.78-1.13 1.62-1.59 2.51l-7.65 14.91c-3.48 6.78-1.78 14.93 3.8 19.8.5.58 1.05 1.12 1.64 1.64.5.58 1.05 1.13 1.64 1.64.5.58 1.05 1.13 1.64 1.64 1.05 1.21 2.28 2.3 3.7 3.19l1.56.98c.29.18.58.35.88.52 3.77 2.05 8.48 4.1 14.4 6.25.23.08.45.16.68.23 3.55 1.12 7.61 2.04 12.44 2.84 4.86.79 10.45 1.2 16.64 1.2 6.68 0 13.64-.92 20.68-2.73 8.42-2.16 15.95-6.33 22.37-12.38 7.69-7.25 11.75-16.75 11.75-27.49 0-7.36-2.12-14.1-6.31-20.04z" fill="#0f2c44"/><path d="m765.44 83.28c-1.33-1.88-2.79-3.61-4.38-5.19-.08-.08-.16-.16-.25-.25-.08-.08-.16-.16-.25-.25-.08-.08-.16-.16-.25-.25-.22-.22-.44-.43-.66-.64 1.36-1.53 2.36-3.36 2.89-5.38l4.35-16.55c1.2-4.56-.17-9.23-3.26-12.43-.08-.09-.17-.16-.25-.25s-.17-.16-.25-.25-.17-.16-.25-.25c-1.33-1.45-3-2.62-4.95-3.38l-3.83-1.47c-.21-.08-.42-.16-.64-.23-3.33-1.09-7.9-2.1-13.96-3.1-6.01-.98-12.22-1.48-18.46-1.48-13.49 0-24.8 2.84-33.62 8.42-2.64 1.67-4.97 3.58-6.99 5.7 4.44-6.53 6.53-12.13 6.53-17.48 0-6.36-2.48-12.23-7.16-16.98-.06-.06-.12-.11-.18-.17-.02-.02-.05-.05-.07-.07-.06-.06-.12-.11-.18-.17-.02-.02-.05-.05-.07-.07-.06-.06-.12-.11-.18-.17-.02-.02-.05-.05-.07-.07-.06-.06-.12-.11-.18-.17-.02-.02-.05-.05-.07-.07-3.3-3.35-9.29-7.35-19.07-7.35s-15.87 4.1-19.19 7.54c-4.61 4.8-7.05 10.63-7.05 16.87v4.33c-.73-.04-1.45-.07-2.19-.07-5.41 0-12.21 1.09-19.1 5.04-2.25-1.74-5.06-2.75-8.03-2.75h-34.25c-3.63 0-7.1 1.5-9.57 4.16-1.83 1.96-3 4.41-3.38 7.02-.4-.33-.78-.67-1.19-.98-10.72-8.28-24.73-12.48-41.66-12.48s-30.95 4.2-41.66 12.49c-3.04 2.35-5.68 5.03-7.93 8.02-1.28-1.95-2.72-3.81-4.31-5.56-.56-.62-1.13-1.21-1.71-1.78-.08-.08-.16-.16-.25-.25-.08-.08-.16-.16-.25-.25-.08-.08-.16-.16-.25-.25-8.07-8.13-18.11-12.42-29.19-12.42-6.81 0-13.2 1.54-19.06 4.56-2.16-1.46-4.72-2.26-7.36-2.26h-39.29c-3.58 0-7.01 1.47-9.48 4.06-1.75 1.84-2.9 4.13-3.37 6.58-8.95-7.59-22.83-12.93-44.17-12.93-12.35 0-24.65 2.34-36.55 6.95-6.36 2.46-9.77 9.39-7.84 15.93l3.09 10.48c-.73.37-1.44.75-2.15 1.15-1.36-7.42-4.75-13.93-10.05-19.24-.08-.08-.16-.16-.25-.25-.08-.08-.16-.16-.24-.24s-.16-.16-.25-.25c-1.63-1.66-3.44-3.21-5.43-4.63-9.32-6.66-21.71-9.9-37.87-9.9-17.3 0-31.28 4.85-41.67 14.36l1.15-26.07c.16-3.57-1.15-7.06-3.62-9.64-.06-.06-.12-.11-.18-.17-.02-.02-.04-.05-.06-.08-.06-.06-.12-.11-.18-.17-.02-.02-.04-.05-.06-.07-.06-.06-.12-.11-.18-.17-.02-.02-.04-.05-.06-.08-.06-.06-.12-.11-.18-.17-.02-.02-.04-.05-.06-.07-2.47-2.58-5.89-4.05-9.47-4.05h-41.38c-3.58 0-7 1.46-9.47 4.05-1.18 1.24-2.09 2.68-2.71 4.24-1.7-.8-3.58-1.24-5.55-1.24h-78.24c-3.65 0-7.13 1.52-9.61 4.2-2.48 2.67-3.73 6.26-3.46 9.9l4.17 55.15c.38 5.34.85 9.73 1.43 13.42.67 4.19 2 8.91 4.06 14.41 2.39 6.38 5.68 11.7 9.78 15.81.04.04.09.08.13.12s.08.08.12.12.09.08.13.12.08.08.12.13c.04.04.09.08.13.12s.08.08.12.12.09.08.13.12.08.08.12.13c4.1 4.1 9.47 7.44 16.43 10.21 6.74 2.68 14.9 4.04 24.23 4.04s17.82-1.33 26.3-3.94c8-2.47 12.23-4.2 14.84-5.54.67 1.23 1.51 2.34 2.52 3.29.08.08.16.17.25.25.08.08.16.17.25.25.08.08.16.17.25.25 2.37 2.36 5.64 3.82 9.24 3.82h31.99c7.01 0 12.78-5.52 13.09-12.53l.23-5.15c.31.34.62.68.95 1.01.08.08.17.16.25.25.08.08.16.16.24.24s.17.16.25.25c1.34 1.38 2.78 2.69 4.32 3.93 11.22 9.05 25.07 13.64 41.18 13.64 8.02 0 15.6-1.2 22.51-3.58 6.81-2.34 11.87-4.71 15.48-7.26 1.97-1.39 3.79-2.88 5.48-4.44.55.64 1.11 1.24 1.67 1.8.08.08.16.16.24.24s.16.16.25.25c.08.08.16.16.24.24.8.81 1.59 1.55 2.36 2.22 8.15 6.98 18.42 10.53 30.52 10.53 8.64 0 16.52-1.43 23.59-4.27 2.2 1.66 4.94 2.63 7.88 2.63h28.69c3.48 0 6.67-1.37 9.03-3.63 2.36 2.25 5.55 3.63 9.05 3.63h31.99c5.73 0 10.62-3.68 12.39-8.84.64 1.46 1.53 2.77 2.62 3.89.08.09.16.16.25.25.08.09.16.16.25.25.08.09.16.16.25.25 2.4 2.6 5.84 4.22 9.63 4.22h30.43c6.56 0 12.11-4.85 12.99-11.36.17-1.24.33-2.46.49-3.67.06.06.12.11.17.17.08.08.16.16.25.25 1.32 1.33 2.74 2.59 4.25 3.76 10.71 8.29 24.73 12.49 41.67 12.49s30.95-4.2 41.66-12.49c1.87-1.44 3.57-3.02 5.15-4.71l.16 2.35c.23 3.46 1.79 6.53 4.16 8.73.08.08.16.17.25.25.08.08.16.17.25.25.08.08.16.17.25.25 2.37 2.32 5.61 3.75 9.16 3.75h31.3c6.82 0 12.51-5.24 13.06-12.04l3.27-39.87c.14-.88.39-1.82.74-2.82 3.15.03 5.77.81 8.23 2.42 2.18 1.43 4.69 2.16 7.22 2.16 1.8 0 3.61-.37 5.31-1.12 4.08-1.81 6.96-5.56 7.64-9.97l2.12-13.64h5.62c4.2 0 8.15-2.02 10.62-5.42l3.98-5.5c-2.64 5.01-4 10.76-4 17.15 0 7.73 2.62 14.94 7.57 20.86.3.36.6.71.91 1.06-1.24 1.08-2.27 2.4-3.04 3.88l-7.65 14.91c-2.72 5.31-1.49 11.67 2.75 15.59.08.08.16.17.25.25.08.08.16.17.25.25.08.08.16.17.25.25.66.64 1.38 1.23 2.19 1.74l1.56.98c.23.15.47.28.71.41 3.63 1.97 8.19 3.95 13.95 6.05.18.07.36.13.55.18 3.4 1.07 7.32 1.96 11.99 2.73 4.68.77 10.1 1.15 16.11 1.15 6.4 0 13.09-.88 19.87-2.62 7.88-2.03 14.93-5.93 20.94-11.6 7.01-6.61 10.72-15.29 10.72-25.1 0-6.67-1.92-12.77-5.71-18.14z" fill="#ffe99a"/><path d="m682.74 27.61c0-5.48-2.15-10.55-6.22-14.68-2.86-2.91-8.09-6.37-16.74-6.37s-13.95 3.55-16.82 6.54c-4.01 4.17-6.13 9.22-6.13 14.6v7.96c-1.78-.27-3.61-.43-5.47-.43-5.48 0-12.52 1.23-19.52 5.89-1.84-2.24-4.61-3.6-7.6-3.6h-34.25c-2.72 0-5.32 1.13-7.18 3.12s-2.81 4.66-2.63 7.37l.38 5.67c-1.95-2.46-4.19-4.69-6.73-6.65-10.13-7.83-23.47-11.8-39.66-11.8s-29.53 3.97-39.66 11.8c-4.32 3.34-7.79 7.43-10.41 12.21-1.82-4.08-4.23-7.8-7.25-11.13-7.77-8.55-17.27-12.89-28.23-12.89-7 0-13.52 1.76-19.43 5.22-1.85-1.87-4.37-2.93-7-2.93h-39.29c-2.69 0-5.26 1.1-7.11 3.04s-2.83 4.56-2.71 7.25l.25 5.31c-11.88-15.02-33.02-17.9-47.46-17.9-11.94 0-23.84 2.26-35.37 6.72-4.77 1.85-7.33 7.04-5.88 11.95l3.89 13.18c-2.2.95-4.3 2.06-6.31 3.33-1.1.69-2.23 1.51-3.36 2.45-.06-11.79-5.08-21.59-14.54-28.35-8.75-6.25-20.51-9.29-35.97-9.29-20.52 0-36.07 7.1-46.16 21.03-.09.13-.18.26-.27.38l1.66-37.53c.12-2.68-.86-5.29-2.72-7.23s-4.42-3.03-7.1-3.03h-41.38c-2.68 0-5.25 1.1-7.1 3.03-1.86 1.94-2.84 4.55-2.72 7.23l.04.84c-1.81-2.49-4.73-4.06-7.95-4.06h-78.25c-2.74 0-5.35 1.14-7.21 3.15s-2.8 4.7-2.59 7.42l4.17 55.17c.36 5.17.84 9.59 1.4 13.14.63 3.97 1.91 8.48 3.89 13.78 2.22 5.94 5.26 10.87 9.03 14.64 3.78 3.78 8.79 6.88 15.32 9.48 6.36 2.53 14.1 3.81 23.02 3.81s17.17-1.28 25.33-3.8c10.81-3.34 14.49-5.27 16.48-6.57.72-.47 1.36-.91 1.98-1.33l.03.66c.23 5.26 4.56 9.4 9.82 9.4h31.99c5.26 0 9.59-4.14 9.82-9.4l.66-14.9c2.73 4.99 6.35 9.35 10.9 13.02 10.62 8.57 23.78 12.91 39.12 12.91 7.66 0 14.88-1.14 21.45-3.4 6.51-2.24 11.3-4.47 14.65-6.84 2.97-2.1 5.59-4.4 7.84-6.85 1.74 2.72 3.88 5.18 6.43 7.36 7.54 6.46 17.09 9.74 28.39 9.74 8.98 0 17.07-1.62 24.22-4.83 1.81 1.97 4.4 3.19 7.25 3.19h28.69c4.03 0 7.54-2.43 9.04-5.98 1.5 3.52 4.99 5.98 9.04 5.98h31.99c5.3 0 9.65-4.2 9.83-9.5l1.21-36.48c.07-1.77.21-3.2.39-4.36.26 1.25.5 2.81.69 4.74l3.48 36.7c.48 5.05 4.72 8.9 9.79 8.9h30.43c4.92 0 9.08-3.64 9.74-8.52.54-4 1.02-7.8 1.45-11.41 2.41 3.74 5.39 7 8.96 9.76 10.12 7.83 23.47 11.8 39.66 11.8s29.53-3.97 39.66-11.8c4.46-3.44 8-7.68 10.65-12.65l.92 13.64c.35 5.16 4.64 9.17 9.81 9.17h31.3c5.12 0 9.38-3.93 9.8-9.03l3.28-39.99c.24-1.55.74-3.23 1.48-5.01.11-.24.2-.35.23-.37 0 0 .5-.32 2.08-.32 3.86 0 7.21.97 10.24 2.97 1.63 1.08 3.52 1.62 5.41 1.62 1.35 0 2.71-.28 3.98-.84 3.06-1.36 5.22-4.17 5.73-7.48l2.55-16.42h8.42c3.15 0 6.12-1.51 7.96-4.07l7.8-10.78c4.97-6.8 7.28-12.37 7.28-17.51z" fill="#d29f3a"/><path d="m761.78 84.19c-2.36-3.34-5.17-6.17-8.37-8.45.04-.02.07-.04.1-.05 2.42-1.29 4.19-3.53 4.88-6.18l4.35-16.55c1.27-4.84-1.3-9.87-5.97-11.67l-3.83-1.47c-.16-.06-.32-.12-.48-.17-3.17-1.04-7.58-2.01-13.47-2.98-5.84-.96-11.87-1.44-17.93-1.44-12.86 0-23.58 2.66-31.86 7.92-9.59 6.07-14.65 15.52-14.65 27.31 0 7.05 2.29 13.36 6.81 18.76 1.15 1.37 2.34 2.65 3.56 3.83-2.28.86-4.17 2.54-5.29 4.72l-7.65 14.91c-2.33 4.54-.8 10.1 3.52 12.81l1.56.98c.17.11.35.21.53.31 3.48 1.89 7.9 3.81 13.51 5.85.13.05.27.1.41.14 3.25 1.02 7.02 1.88 11.54 2.62 4.51.74 9.75 1.11 15.58 1.11 6.13 0 12.54-.85 19.05-2.52 7.34-1.89 13.9-5.52 19.51-10.81 6.34-5.98 9.69-13.83 9.69-22.72 0-5.98-1.72-11.45-5.11-16.25z" fill="#d29f3a"/><path d="m97.06 100.43-2.61.82c-5.56 1.75-11.07 2.62-16.52 2.62-2.03 0-3.86-.41-5.49-1.21-1.17-2.56-1.77-6.18-1.77-10.91v-.82l29.21-6.88-3.48-15.4-4.92-4.92h-17.85l1.2-10.98 29.56-2.46-4.87-19.66-4.92-4.92h-78.22l4.17 55.21c.35 4.92.78 9.01 1.3 12.29s1.65 7.24 3.39 11.88 4 8.36 6.78 11.14c.2.2.41.39.62.58.2.22.4.44.61.65.2.2.41.39.62.58.2.22.4.44.61.65.2.2.41.39.62.58.2.22.4.44.61.65.2.2.41.39.62.58.2.22.4.44.61.65 2.78 2.78 6.78 5.22 12 7.29s11.68 3.11 19.39 3.11 15.18-1.12 22.43-3.36c7.24-2.24 11.91-4.04 14-5.41 2.09-1.36 3.65-2.48 4.69-3.36l-7.48-14.09-4.92-4.92z" fill="#1f4e79"/><path d="m220.2 100.76c11.01 0 19.39-2.1 25.12-6.31 5.74-4.2 8.61-9.69 8.61-16.47 0-7.44-2.53-13.51-7.57-18.22-.39-.42-.8-.83-1.23-1.23-.39-.42-.8-.83-1.23-1.23-.39-.42-.8-.83-1.23-1.23-1.2-1.28-2.55-2.48-4.09-3.57-6.96-4.97-17.04-7.45-30.25-7.45-17.27 0-30.02 5.68-38.25 17.04-4.52 6.12-6.78 13.55-6.78 22.28 0 12.67 3.71 22.53 11.11 29.6.4.42.81.83 1.23 1.23.4.42.81.83 1.23 1.23.4.42.81.83 1.23 1.23 1.06 1.12 2.19 2.18 3.42 3.17 8.87 7.16 19.85 10.73 32.95 10.73 6.61 0 12.69-.96 18.26-2.87s9.62-3.77 12.17-5.57 4.75-3.74 6.61-5.82l-10.78-12.29s-.06.04-.09.07l-1.14-1.3s-.06.04-.09.07l-1.14-1.3s-.06.04-.09.07l-1.14-1.3s-.06.04-.09.07l-1.14-1.3c-4.98 4.04-11.01 6.06-18.08 6.06-3.94 0-7.35-.81-10.26-2.42-.65-1.27-1.1-2.69-1.34-4.29l1.91.33c3.59.66 7.65.98 12.17.98zm-14.1-22.06c.61-2.14 1.8-4.07 3.59-5.79 2.72-2.62 5.65-3.93 8.78-3.93 1.88 0 3.52.26 4.92.78.16.58.25 1.19.25 1.85 0 2.19-1.13 3.96-3.39 5.32-2.26 1.37-5.45 2.05-9.56 2.05-1.66 0-3.18-.09-4.59-.27z" fill="#1f4e79"/><path d="m347.55 60.9c-.4-.42-.81-.83-1.23-1.23-.4-.42-.81-.83-1.23-1.23-.4-.42-.81-.83-1.23-1.23-7.61-8.1-20.27-12.15-37.98-12.15-10.78 0-21.39 2.02-31.82 6.06l4.35 14.75c.27-.07 4.92 4.92 4.92 4.92 7.19-1.86 13.21-2.79 18.08-2.79 4.59 0 8.33.85 11.22 2.53 1.01 1.75 1.73 3.79 2.12 6.16-6.72-2.73-14.66-4.1-23.82-4.1s-16.98 2.05-23.47 6.14c-6.49 4.1-9.74 10.65-9.74 19.66s2.6 15.29 7.8 20.16c.39.42.8.83 1.23 1.23.39.42.8.83 1.23 1.23.39.42.8.83 1.23 1.23.63.69 1.31 1.34 2.04 1.96 5.74 4.92 13.07 7.37 21.99 7.37 10.41 0 19.22-2.51 26.44-7.51l.11.96 4.92 4.92h28.69l.87-7.21c2.09-15.07 3.13-26.87 3.13-35.39 0-11.44-3.29-20.24-9.84-26.43zm-43.59 45.43c-1.37 0-2.62-.23-3.74-.68-.49-1.12-.74-2.31-.74-3.58 0-2.4 1.13-4.42 3.39-6.06s5.16-2.46 8.69-2.46c1.75 0 3.41.23 5.01.68l.77 8c-3.71 2.73-8.17 4.1-13.39 4.1z" fill="#1f4e79"/><path d="m452.66 57.77c-.4-.42-.81-.83-1.23-1.23-.4-.42-.81-.83-1.23-1.23-.4-.42-.81-.83-1.23-1.23-5.73-6.01-12.51-9.03-20.35-9.03-6.26 0-11.94 1.86-17.04 5.57-1.5 1.08-3.03 2.41-4.59 4l-4.8-7.27h-39.29l3.65 77.66 4.92 4.92h31.99l1.22-36.54c.46-11.8 4-17.69 10.61-17.69.8 0 1.54.13 2.25.37 1.42 2.89 2.4 6.97 2.92 12.24l3.48 36.7 4.92 4.92h30.43c2.67-19.77 4-34.82 4-45.14s-2.93-18.7-8.78-25.15c-.6-.66-1.21-1.27-1.83-1.86z" fill="#1f4e79"/><path d="m553.69 60.38c-.4-.42-.81-.83-1.23-1.23-.4-.42-.81-.83-1.23-1.23-1.05-1.12-2.18-2.16-3.41-3.12-8.4-6.5-19.62-9.75-33.64-9.75s-25.24 3.25-33.65 9.75c-8.4 6.5-12.6 16.85-12.6 31.05 0 12.9 3.48 22.61 10.42 29.16.4.42.81.83 1.23 1.23.4.42.81.83 1.23 1.23.4.42.81.83 1.23 1.23 1.05 1.12 2.18 2.17 3.42 3.12 8.4 6.5 19.62 9.75 33.64 9.75s25.24-3.25 33.64-9.75 12.61-16.85 12.61-31.05c0-12.9-3.48-22.61-10.42-29.16-.4-.42-.81-.83-1.23-1.23zm-32.22 44.07c-1.39 3.77-3.83 5.65-7.3 5.65-.79 0-1.52-.11-2.2-.3-.06-.15-.13-.28-.19-.43-1.39-3.77-2.09-9.97-2.09-18.6s.69-14.83 2.09-18.6c1.39-3.77 3.82-5.65 7.3-5.65.79 0 1.52.11 2.2.3.06.15.13.28.19.43 1.39 3.77 2.09 9.97 2.09 18.6s-.7 14.83-2.09 18.6z" fill="#1f4e79"/><path d="m670.13 20.49c-.19-.22-.39-.45-.61-.67-2.26-2.29-5.51-3.44-9.74-3.44s-7.48 1.17-9.74 3.52-3.39 4.94-3.39 7.78v22.45l4.92 4.92h13.04l7.82-10.81c3.59-4.92 5.39-8.82 5.39-11.72s-1.13-5.49-3.39-7.78c-.2-.2-4.1-4.07-4.31-4.25z" fill="#1f4e79"/><path d="m758.68 94.78c-1.09-1.54-2.29-2.92-3.61-4.14-.4-.42-.81-.84-1.23-1.23-.4-.42-.81-.84-1.23-1.23-.4-.42-.81-.84-1.23-1.23-1.67-1.77-3.54-3.27-5.62-4.46-3.13-1.8-6.26-3.41-9.39-4.83-2.35-1.07-4.45-2.15-6.28-3.25-.07-.28-.11-.56-.11-.85 0-3.38 2.32-5.08 6.96-5.08s10.26 1.15 16.87 3.44l4.35-16.55-4.92-4.92-3.83-1.47c-2.67-.87-6.67-1.75-12-2.62s-10.78-1.31-16.34-1.31c-11.01 0-19.88 2.13-26.6 6.39s-10.08 10.6-10.08 19.01c0 4.7 1.5 8.85 4.52 12.45.95 1.13 1.92 2.16 2.92 3.11.41.43.82.84 1.23 1.23.4.43.81.83 1.23 1.23.41.43.82.84 1.23 1.23 2.54 2.66 5.25 4.72 8.13 6.15 3.3 1.63 6.36 3.36 9.2 5.18.14.41.22.81.22 1.21 0 3.72-2.38 5.57-7.13 5.57s-10.61-1.86-17.56-5.57l-7.65 14.91 4.92 4.92 1.56.98c3.01 1.64 7.07 3.39 12.17 5.24 2.78.88 6.17 1.64 10.17 2.29s8.66.98 14 .98 10.87-.74 16.6-2.21c5.74-1.48 10.81-4.29 15.21-8.44s6.61-9.34 6.61-15.56c0-3.93-1.1-7.45-3.3-10.57z" fill="#1f4e79"/><path d="m153.74 18.68h-41.38l4.69 106.33 4.92 4.92h31.99l4.7-106.34z" fill="#1f4e79"/><path d="m643.18 48.01c-3.6-1.97-7.54-2.95-11.82-2.95-8.13 0-15.09 3.5-20.87 10.48l-6.25-8.19h-34.25l5.22 77.66 4.92 4.92h31.3l3.3-40.3c.35-2.51 1.1-5.13 2.26-7.87 1.97-4.37 5.74-6.55 11.3-6.55s11.01 1.53 15.65 4.59l4.17-26.87c-.43-.24-4.92-4.92-4.92-4.92z" fill="#1f4e79"/><path d="m65.76 86.84c0 6.66 1.16 11.17 3.48 13.52s5.22 3.52 8.69 3.52c5.45 0 10.95-.87 16.52-2.62l2.61-.82 7.48 14.09c-1.04.88-2.61 2-4.69 3.36-2.09 1.37-6.75 3.17-14 5.41s-14.72 3.36-22.43 3.36-14.17-1.04-19.39-3.11-9.22-4.51-12-7.29c-2.78-2.79-5.04-6.5-6.78-11.14s-2.87-8.6-3.39-11.88-.96-7.37-1.3-12.29l-4.17-55.21h78.24l4.87 19.66-29.56 2.46-1.74 15.89h23.3l3.48 15.4-29.21 6.88v.82z" fill="#fff"/><path d="m153.74 18.68-4.7 106.33h-31.99l-4.69-106.33z" fill="#fff"/><path d="m209.55 126.65c-13.1 0-24.08-3.58-32.95-10.73s-13.3-17.67-13.3-31.54c0-8.74 2.26-16.16 6.78-22.28 8.23-11.36 20.98-17.04 38.25-17.04 13.21 0 23.3 2.49 30.25 7.45 6.95 4.97 10.43 11.82 10.43 20.56 0 6.77-2.87 12.26-8.61 16.47s-14.11 6.31-25.12 6.31c-4.52 0-8.58-.33-12.17-.98l-1.91-.33c.58 3.93 2.4 6.85 5.48 8.76 3.07 1.91 6.75 2.87 11.04 2.87 7.07 0 13.1-2.02 18.08-6.06l10.78 12.29c-1.86 2.08-4.06 4.01-6.61 5.82-2.55 1.8-6.61 3.66-12.17 5.57s-11.65 2.87-18.26 2.87zm14.09-55.05c0-2.18-.9-3.99-2.7-5.41s-4.26-2.13-7.39-2.13-6.06 1.31-8.78 3.93c-2.73 2.62-4.09 5.73-4.09 9.34 2.55 1.09 5.88 1.64 10 1.64s7.3-.68 9.56-2.05c2.26-1.36 3.39-3.14 3.39-5.32z" fill="#fff"/><path d="m288.32 126.65c-8.93 0-16.26-2.46-21.99-7.37s-8.61-11.88-8.61-20.89 3.24-15.56 9.74-19.66c6.49-4.1 14.31-6.14 23.47-6.14s17.1 1.37 23.82 4.1c-1.51-9.07-7.59-13.6-18.26-13.6-4.87 0-10.9.93-18.08 2.79l-4.35-14.75c10.43-4.04 21.04-6.06 31.82-6.06 31.06 0 46.6 12.45 46.6 37.36 0 8.52-1.04 20.32-3.13 35.39l-.87 7.21h-28.69l-1.04-9.01c-7.88 7.1-18.03 10.65-30.43 10.65zm15.64-20.32c5.22 0 9.68-1.36 13.39-4.1l-1.04-10.81c-2.9-1.86-6.12-2.79-9.65-2.79s-6.43.82-8.69 2.46-3.39 3.66-3.39 6.06.87 4.53 2.61 6.39 4 2.78 6.78 2.78z" fill="#fff"/><path d="m428.63 45.06c8.11 0 15.1 3.22 20.95 9.67s8.78 14.83 8.78 25.15-1.33 25.37-4 45.14h-30.43l-3.48-36.7c-1.16-11.69-4.52-17.53-10.08-17.53-6.61 0-10.14 5.9-10.61 17.69l-1.22 36.54h-31.99l-3.65-77.66h39.29l-.69 13.93c.58-1.09 1.91-2.78 4-5.08 2.09-2.29 4.11-4.15 6.08-5.57 5.1-3.71 10.78-5.57 17.04-5.57z" fill="#fff"/><path d="m480.53 116.9c-8.4-6.5-12.6-16.85-12.6-31.05s4.2-24.55 12.6-31.05 19.62-9.75 33.64-9.75 25.24 3.25 33.64 9.75 12.61 16.85 12.61 31.05-4.2 24.55-12.61 31.05c-8.4 6.5-19.62 9.75-33.64 9.75s-25.24-3.25-33.64-9.75zm26.34-49.64c-1.39 3.77-2.09 9.97-2.09 18.6s.69 14.83 2.09 18.6c1.39 3.77 3.82 5.65 7.3 5.65s5.91-1.88 7.3-5.65 2.09-9.97 2.09-18.6-.7-14.83-2.09-18.6-3.83-5.65-7.3-5.65-5.91 1.88-7.3 5.65z" fill="#fff"/><path d="m608.58 58c6.14-8.63 13.73-12.94 22.78-12.94 4.29 0 8.23.98 11.82 2.95l-4.17 26.87c-4.64-3.06-9.85-4.59-15.65-4.59s-9.33 2.19-11.3 6.55c-1.16 2.73-1.91 5.35-2.26 7.87l-3.3 40.3h-31.3l-5.22-77.66h34.25z" fill="#fff"/><path d="m646.66 50.13v-22.45c0-2.84 1.13-5.43 3.39-7.78s5.5-3.52 9.74-3.52 7.48 1.15 9.74 3.44 3.39 4.89 3.39 7.78-1.8 6.8-5.39 11.72l-7.82 10.81h-13.04z" fill="#fff"/><path d="m757.06 100.43c0 6.23-2.2 11.41-6.61 15.56s-9.48 6.96-15.21 8.44c-5.74 1.47-11.27 2.21-16.6 2.21s-10-.33-14-.98c-4-.66-7.39-1.42-10.17-2.29-5.1-1.86-9.16-3.6-12.17-5.24l-1.56-.98 7.65-14.91c6.96 3.72 12.81 5.57 17.56 5.57s7.13-1.86 7.13-5.57c0-1.86-1.51-3.77-4.52-5.73-3.02-1.96-6.29-3.82-9.82-5.57-3.54-1.75-6.81-4.42-9.82-8.03-3.02-3.6-4.52-7.75-4.52-12.45 0-8.41 3.36-14.75 10.08-19.01s15.59-6.39 26.6-6.39c5.56 0 11.01.44 16.34 1.31 5.33.88 9.33 1.75 12 2.62l3.83 1.47-4.35 16.55c-6.61-2.29-12.23-3.44-16.87-3.44s-6.96 1.69-6.96 5.08c0 1.64 1.1 3.2 3.3 4.67s4.87 2.92 8 4.34 6.26 3.03 9.39 4.83 5.8 4.26 8 7.37 3.3 6.64 3.3 10.57z" fill="#fff"/></svg>